<?xml version="1.0" encoding="utf-8"?>
<!-- Generator: Adobe Illustrator 16.0.2, SVG Export Plug-In . SVG Version: 6.00 Build 0)  -->
<!DOCTYPE svg PUBLIC "-//W3C//DTD SVG 1.1//EN" "http://www.w3.org/Graphics/SVG/1.1/DTD/svg11.dtd">
<svg version="1.1" id="Layer_1" xmlns="http://www.w3.org/2000/svg" xmlns:xlink="http://www.w3.org/1999/xlink" x="0px" y="0px"
	 width="770px" height="200px" viewBox="0 0 770 200" enable-background="new 0 0 770 200" xml:space="preserve">
<path fill="#69157C" d="M50.5,0.803h109.138c0,0,45.162-0.985,44.804,44.221l0.002,109.722c0,0,1.431,44.443-44.447,44.443H50.5
	c0,0-44.623,1.793-44.623-44.803V45.024C5.877,45.024,4.803,0.803,50.5,0.803z"/>
<g>
	<polygon fill="#FFFFFF" points="116.314,121.619 113.324,117.824 113.324,121.619 	"/>
	<polygon fill="#FFFFFF" points="81.433,77.338 115.077,34.789 90.215,34.789 61.271,72.885 61.271,34.789 40.121,34.789 
		40.121,121.619 61.271,121.619 61.271,83.276 90.463,121.619 92.173,121.619 92.173,90.973 	"/>
	<rect x="92.173" y="121.619" fill="#FFFFFF" width="21.151" height="43.416"/>
	<polygon fill="#FFFFFF" points="148.7,78.204 148.7,132.01 113.324,78.204 92.173,78.204 92.173,90.973 113.324,117.824 
		113.324,111.477 148.7,165.035 169.851,165.035 169.851,78.204 	"/>
</g>
<g>
	<path fill="#FFFFFF" d="M252.129,25.092h17.026v33.601h0.226c1.691-2.931,3.494-5.638,5.299-8.343l17.138-25.257h21.198
		l-25.144,32.36l26.384,43.638h-19.957l-18.718-32.813l-6.427,8.006v24.808h-17.025V25.092z"/>
	<path fill="#FFFFFF" d="M366.574,68.955h-27.965v18.042h31.233v14.094h-48.372V25.092h46.794v14.095h-29.656v15.786h27.965V68.955
		L366.574,68.955z"/>
	<path fill="#FFFFFF" d="M381.679,25.092h17.138v61.565h30.22v14.433h-47.359L381.679,25.092L381.679,25.092z"/>
	<path fill="#FFFFFF" d="M447.637,101.09l-24.354-75.998h18.829l9.247,32.135c2.594,9.133,4.96,17.703,6.764,27.175h0.339
		c1.917-9.133,4.286-18.155,6.879-26.836l9.698-32.474h18.267L467.71,101.09H447.637L447.637,101.09z"/>
	<path fill="#FFFFFF" d="M518.67,25.092v75.998h-17.139V25.092H518.67z"/>
	<path fill="#FFFFFF" d="M533.551,101.09V25.092h20.07l15.787,27.851c4.51,8.006,8.906,17.477,12.402,26.047h0.226
		c-1.014-10.036-1.353-20.297-1.353-31.798V25.092h15.786v75.998h-18.042L562.19,71.773c-4.51-8.231-9.584-17.928-13.192-26.836
		h-0.451c0.564,10.148,0.79,20.86,0.79,33.263v22.89H533.551z"/>
	<path fill="#FFFFFF" d="M320.456,182.467v-75.998h20.071l15.786,27.852c4.51,8.006,8.906,17.477,12.403,26.047h0.226
		c-1.015-10.035-1.354-20.297-1.354-31.797v-22.102h15.787v75.998h-18.042l-16.238-29.314c-4.509-8.232-9.583-17.93-13.192-26.84
		h-0.451c0.563,10.15,0.79,20.861,0.79,33.266v22.889H320.456L320.456,182.467z"/>
	<path fill="#FFFFFF" d="M443.469,150.332h-27.964v18.041h31.232v14.094h-48.373v-75.998h46.795v14.094h-29.654v15.787h27.964
		V150.332z"/>
	<path fill="#FFFFFF" d="M471.539,182.467l-18.042-75.998h18.379l5.751,31.234c1.693,9.133,3.271,18.943,4.512,26.723h0.225
		c1.241-8.342,3.045-17.477,4.962-26.947l6.429-31.008h18.268l6.087,32.023c1.693,8.908,2.933,17.025,4.06,25.48h0.227
		c1.127-8.455,2.818-17.363,4.396-26.496l6.202-31.008h17.478l-19.62,75.998h-18.606l-6.426-32.699
		c-1.466-7.666-2.706-14.771-3.608-23.455h-0.226c-1.353,8.57-2.593,15.789-4.397,23.455l-7.216,32.699h-18.831V182.467z"/>
	<path fill="#FFFFFF" d="M576.619,120.902h-20.521v-14.434h58.409v14.434h-20.749v61.564h-17.139V120.902z"/>
	<path fill="#FFFFFF" d="M652.613,183.707c-22.438,0-35.741-17.025-35.741-38.676c0-22.773,14.656-39.803,36.983-39.803
		c23.341,0,36.083,17.477,36.083,38.451c0,25.033-14.998,40.027-37.211,40.027H652.613z M653.404,170.064
		c11.614,0,18.267-10.938,18.267-25.82c0-13.645-6.429-25.373-18.267-25.373c-11.84,0-18.492,11.502-18.492,25.711
		c0,14.32,6.878,25.482,18.379,25.482H653.404z"/>
	<path fill="#FFFFFF" d="M701.209,182.467v-75.998h20.07l15.785,27.852c4.512,8.006,8.908,17.477,12.402,26.047h0.226
		c-1.015-10.035-1.352-20.297-1.352-31.797v-22.102h15.784v75.998h-18.04l-16.236-29.314c-4.512-8.232-9.584-17.93-13.194-26.84
		h-0.449c0.563,10.15,0.788,20.861,0.788,33.266v22.889H701.209L701.209,182.467z"/>
</g>
</svg>
