<?xml version="1.0" encoding="utf-8"?>
<!-- Generator: Adobe Illustrator 16.0.2, SVG Export Plug-In . SVG Version: 6.00 Build 0)  -->
<!DOCTYPE svg PUBLIC "-//W3C//DTD SVG 1.1//EN" "http://www.w3.org/Graphics/SVG/1.1/DTD/svg11.dtd">
<svg version="1.1" id="Layer_1" xmlns="http://www.w3.org/2000/svg" xmlns:xlink="http://www.w3.org/1999/xlink" x="0px" y="0px"
	 width="300px" height="300px" viewBox="0 0 300 300" enable-background="new 0 0 300 300" xml:space="preserve">
<path display="none" fill="#6B1687" d="M300,288c0,6.627-5.373,12-12,12H12c-6.627,0-12-5.373-12-12V12C0,5.373,5.373,0,12,0h276
	c6.627,0,12,5.373,12,12V288z"/>
<path fill="#6B1687" d="M67.539,0.002h165.177c0,0,68.35-1.491,67.808,66.926l0.003,166.058c0,0,2.167,67.265-67.268,67.265H67.539
	c0,0-67.535,2.712-67.535-67.807V66.929C0.003,66.929-1.624,0.002,67.539,0.002z"/>
<g>
	<polygon fill="#FFFFFF" points="167.146,182.854 162.62,177.109 162.62,182.854 	"/>
	<polygon fill="#FFFFFF" points="114.354,115.835 165.271,51.438 127.646,51.438 83.84,109.096 83.84,51.438 51.829,51.438 
		51.829,182.854 83.84,182.854 83.84,124.821 128.02,182.854 130.608,182.854 130.608,136.471 	"/>
	<rect x="130.608" y="182.854" fill="#FFFFFF" width="32.012" height="65.709"/>
	<polygon fill="#FFFFFF" points="216.159,117.146 216.159,198.578 162.62,117.146 130.608,117.146 130.608,136.471 162.62,177.109 
		162.62,167.503 216.159,248.563 248.171,248.563 248.171,117.146 	"/>
</g>
</svg>
