<?xml version="1.0" encoding="utf-8"?>
<!-- Generator: Adobe Illustrator 22.0.0, SVG Export Plug-In . SVG Version: 6.00 Build 0)  -->
<svg version="1.1" id="Layer_1" xmlns="http://www.w3.org/2000/svg" xmlns:xlink="http://www.w3.org/1999/xlink" x="0px" y="0px"
	 viewBox="0 0 300 300" style="enable-background:new 0 0 300 300;" xml:space="preserve">
<style type="text/css">
	.st0{display:none;fill:#6B1687;}
	.st1{display:none;fill:#1C7EB7;}
	.st2{fill:url(#SVGID_1_);}
	.st3{fill:#FFFFFF;}
</style>
<path class="st0" d="M300,288c0,6.6-5.4,12-12,12H12c-6.6,0-12-5.4-12-12V12C0,5.4,5.4,0,12,0h276c6.6,0,12,5.4,12,12V288z"/>
<path class="st1" d="M67.5,0h165.2c0,0,68.4-1.5,67.8,66.9l0,166.1c0,0,2.2,67.3-67.3,67.3H67.5c0,0-67.5,2.7-67.5-67.8V66.9
	C0,66.9-1.6,0,67.5,0z"/>
<linearGradient id="SVGID_1_" gradientUnits="userSpaceOnUse" x1="21.4459" y1="281.751" x2="283.9147" y2="17.0094" gradientTransform="matrix(1 0 0 -1 0 302)">
	<stop  offset="0" style="stop-color:#0A84FF"/>
	<stop  offset="1" style="stop-color:#25A6EF"/>
</linearGradient>
<path class="st2" d="M67.5,0h165c0,0,68.3-1.5,67.8,66.9v165.9c0,0,2.1,67.2-67.2,67.2H67.5c0,0-67.5,2.7-67.5-67.8V66.9
	C0,66.9-1.5,0,67.5,0z"/>
<g>
	<polygon class="st3" points="167.1,182.9 162.6,177.1 162.6,182.9 	"/>
	<polygon class="st3" points="114.4,115.8 165.3,51.4 127.6,51.4 83.8,109.1 83.8,51.4 51.8,51.4 51.8,182.9 83.8,182.9 83.8,124.8 
		128,182.9 130.6,182.9 130.6,136.5 	"/>
	<rect x="130.6" y="182.9" class="st3" width="32" height="65.7"/>
	<polygon class="st3" points="216.2,117.1 216.2,198.6 162.6,117.1 130.6,117.1 130.6,136.5 162.6,177.1 162.6,167.5 216.2,248.6 
		248.2,248.6 248.2,117.1 	"/>
</g>
</svg>
