<svg width="770" height="200" viewBox="0 0 770 200" fill="none" xmlns="http://www.w3.org/2000/svg">
	<path d="M50.9001 0.899989H159.9C159.9 0.899989 205 -0.100014 204.7 45.1V154.7C204.7 154.7 206.1 199.1 160.3 199.1H50.9001C50.9001 199.1 6.30011 200.9 6.30011 154.3V45.1C6.30011 45.1 5.30011 0.899989 50.9001 0.899989Z" fill="url(#paint0_linear_909_5027)" />
	<path d="M116.6 121.6L113.7 117.8V121.6H116.6Z" fill="white" />
	<path d="M81.8 77.3999L115.4 34.8999H90.6L61.7 72.8999V34.8999H40.5V121.6H61.7V83.2999L90.8 121.6H92.5V90.9999L81.8 77.3999Z" fill="white" />
	<path d="M113.6 121.6H92.5V165H113.6V121.6Z" fill="white" />
	<path d="M149 78.2V132L113.7 78.2H92.5V91L113.7 117.8V111.5L149 165H170.1V78.2H149Z" fill="white" />
	<path d="M252.3 25.2H269.3V58.7999H269.5C271.2 55.8999 273 53.2 274.8 50.5L291.9 25.2999H313.1L288 57.5L314.4 101.1H294.5L275.8 68.3L269.4 76.3V101.1H252.4L252.3 25.2Z" fill="url(#paint1_linear_909_5027)" />
	<path d="M366.6 69H338.7V87H369.9V101.1H321.6V25.2H368.3V39.2999H338.7V55H366.6V69Z" fill="url(#paint2_linear_909_5027)" />
	<path d="M381.7 25.2H398.8V86.6999H429V101.1H381.7V25.2Z" fill="url(#paint3_linear_909_5027)" />
	<path d="M447.6 101.1L423.3 25.2H442L451.2 57.2999C453.8 66.4 456.2 75 458 84.4H458.3C460.2 75.3 462.6 66.2999 465.2 57.5999L474.9 25.2H493.1L467.5 101.1H447.6Z" fill="url(#paint4_linear_909_5027)" />
	<path d="M518.5 25.2V101.1H501.4V25.2H518.5Z" fill="url(#paint5_linear_909_5027)" />
	<path d="M533.4 101.1V25.2H553.4L569.2 53C573.7 61 578.1 70.5 581.6 79H581.8C580.8 69 580.4 58.7 580.4 47.2V25.2H596.2V101.1H578.2L562 71.8C557.5 63.6 552.4 53.9 548.8 45H548.3C548.9 55.1 549.1 65.7999 549.1 78.1999V101.1H533.4Z" fill="url(#paint6_linear_909_5027)" />
	<path d="M320.5 182.4V106.5H340.5L356.3 134.3C360.8 142.3 365.2 151.8 368.7 160.3H368.9C367.9 150.3 367.5 140 367.5 128.5V106.4H383.3V182.3H365.3L349.1 153C344.6 144.8 339.5 135.1 335.9 126.2H335.4C336 136.3 336.2 147 336.2 159.4V182.3L320.5 182.4Z" fill="url(#paint7_linear_909_5027)" />
	<path d="M443.4 150.3H415.5V168.3H446.7V182.4H398.4V106.5H445.1V120.6H415.5V136.4H443.4V150.3Z" fill="url(#paint8_linear_909_5027)" />
	<path d="M471.4 182.4L453.4 106.5H471.8L477.5 137.7C479.2 146.8 480.8 156.6 482 164.4H482.2C483.4 156.1 485.2 146.9 487.2 137.5L493.6 106.5H511.8L517.9 138.5C519.6 147.4 520.8 155.5 522 164H522.2C523.3 155.6 525 146.7 526.6 137.5L532.8 106.5H550.3L530.7 182.4H512.1L505.7 149.7C504.2 142 503 134.9 502.1 126.3H501.9C500.5 134.9 499.3 142.1 497.5 149.7L490.3 182.4H471.4Z" fill="url(#paint9_linear_909_5027)" />
	<path d="M576.4 120.9H555.9V106.5H614.2V120.9H593.5V182.4H576.4V120.9Z" fill="url(#paint10_linear_909_5027)" />
	<path d="M652.3 183.6C629.9 183.6 616.6 166.6 616.6 145C616.6 122.3 631.2 105.2 653.5 105.2C676.8 105.2 689.5 122.7 689.5 143.6C689.5 168.6 674.5 183.6 652.3 183.6ZM653.1 170C664.7 170 671.3 159.1 671.3 144.2C671.3 130.6 664.9 118.9 653.1 118.9C641.3 118.9 634.6 130.4 634.6 144.6C634.6 158.9 641.5 170.1 653 170.1H653.1V170Z" fill="url(#paint11_linear_909_5027)" />
	<path d="M700.8 182.4V106.5H720.8L736.6 134.3C741.1 142.3 745.5 151.8 749 160.3H749.2C748.2 150.3 747.8 140 747.8 128.5V106.4H763.6V182.3H745.6L729.4 153C724.9 144.8 719.8 135.1 716.2 126.2H715.8C716.4 136.3 716.6 147 716.6 159.4V182.3L700.8 182.4Z" fill="url(#paint12_linear_909_5027)" />
	<defs>
		<linearGradient id="paint0_linear_909_5027" x1="20.4728" y1="14.2717" x2="193.858" y2="189.158" gradientUnits="userSpaceOnUse">
			<stop stop-color="#0A84FF" />
			<stop offset="1" stop-color="#25A6EF" />
		</linearGradient>
		<linearGradient id="paint1_linear_909_5027" x1="507.95" y1="25.2" x2="507.95" y2="183.6" gradientUnits="userSpaceOnUse">
			<stop stop-color="#0A84FF" />
			<stop offset="1" stop-color="#40C8E0" />
		</linearGradient>
		<linearGradient id="paint2_linear_909_5027" x1="507.95" y1="25.2" x2="507.95" y2="183.6" gradientUnits="userSpaceOnUse">
			<stop stop-color="#0A84FF" />
			<stop offset="1" stop-color="#40C8E0" />
		</linearGradient>
		<linearGradient id="paint3_linear_909_5027" x1="507.95" y1="25.2" x2="507.95" y2="183.6" gradientUnits="userSpaceOnUse">
			<stop stop-color="#0A84FF" />
			<stop offset="1" stop-color="#40C8E0" />
		</linearGradient>
		<linearGradient id="paint4_linear_909_5027" x1="507.95" y1="25.2" x2="507.95" y2="183.6" gradientUnits="userSpaceOnUse">
			<stop stop-color="#0A84FF" />
			<stop offset="1" stop-color="#40C8E0" />
		</linearGradient>
		<linearGradient id="paint5_linear_909_5027" x1="507.95" y1="25.2" x2="507.95" y2="183.6" gradientUnits="userSpaceOnUse">
			<stop stop-color="#0A84FF" />
			<stop offset="1" stop-color="#40C8E0" />
		</linearGradient>
		<linearGradient id="paint6_linear_909_5027" x1="507.95" y1="25.2" x2="507.95" y2="183.6" gradientUnits="userSpaceOnUse">
			<stop stop-color="#0A84FF" />
			<stop offset="1" stop-color="#40C8E0" />
		</linearGradient>
		<linearGradient id="paint7_linear_909_5027" x1="507.95" y1="25.2" x2="507.95" y2="183.6" gradientUnits="userSpaceOnUse">
			<stop stop-color="#0A84FF" />
			<stop offset="1" stop-color="#40C8E0" />
		</linearGradient>
		<linearGradient id="paint8_linear_909_5027" x1="507.95" y1="25.2" x2="507.95" y2="183.6" gradientUnits="userSpaceOnUse">
			<stop stop-color="#0A84FF" />
			<stop offset="1" stop-color="#40C8E0" />
		</linearGradient>
		<linearGradient id="paint9_linear_909_5027" x1="507.95" y1="25.2" x2="507.95" y2="183.6" gradientUnits="userSpaceOnUse">
			<stop stop-color="#0A84FF" />
			<stop offset="1" stop-color="#40C8E0" />
		</linearGradient>
		<linearGradient id="paint10_linear_909_5027" x1="507.95" y1="25.2" x2="507.95" y2="183.6" gradientUnits="userSpaceOnUse">
			<stop stop-color="#0A84FF" />
			<stop offset="1" stop-color="#40C8E0" />
		</linearGradient>
		<linearGradient id="paint11_linear_909_5027" x1="507.95" y1="25.2" x2="507.95" y2="183.6" gradientUnits="userSpaceOnUse">
			<stop stop-color="#0A84FF" />
			<stop offset="1" stop-color="#40C8E0" />
		</linearGradient>
		<linearGradient id="paint12_linear_909_5027" x1="507.95" y1="25.2" x2="507.95" y2="183.6" gradientUnits="userSpaceOnUse">
			<stop stop-color="#0A84FF" />
			<stop offset="1" stop-color="#40C8E0" />
		</linearGradient>
	</defs>
</svg>