<?xml version="1.0" encoding="utf-8"?>
<!-- Generator: Adobe Illustrator 22.0.0, SVG Export Plug-In . SVG Version: 6.00 Build 0)  -->
<svg version="1.1" xmlns="http://www.w3.org/2000/svg" xmlns:xlink="http://www.w3.org/1999/xlink" x="0px" y="0px"
	 viewBox="0 0 500 500" style="enable-background:new 0 0 500 500;" xml:space="preserve">
<style type="text/css">
	.st0{fill:#EBEBEB;}
	.st1{fill:#F5F5F5;}
	.st2{fill:#E0E0E0;}
	.st3{display:none;}
	.st4{display:inline;}
	.st5{fill:#407BFF;}
	.st6{opacity:0.9;fill:#FFFFFF;}
	.st7{opacity:0.4;fill:#FFFFFF;enable-background:new    ;}
	.st8{opacity:0.6;fill:#FFFFFF;enable-background:new    ;}
	.st9{opacity:0.2;fill:#FFFFFF;enable-background:new    ;}
	.st10{opacity:0.7;fill:#FFFFFF;enable-background:new    ;}
	.st11{opacity:0.1;enable-background:new    ;}
	.st12{fill:#263238;}
	.st13{opacity:0.2;fill:#FFFFFF;}
	.st14{opacity:0.3;fill:#FFFFFF;}
	.st15{opacity:0.2;}
	.st16{opacity:0.5;fill:#FFFFFF;}
	.st17{opacity:0.4;fill:#FFFFFF;}
	.st18{opacity:0.5;}
	.st19{fill:#FFFFFF;}
	.st20{opacity:0.2;enable-background:new    ;}
	.st21{fill:none;stroke:#263238;stroke-width:1.0253;stroke-linecap:round;stroke-linejoin:round;stroke-miterlimit:10;}
	.st22{opacity:0.1;}
	.st23{opacity:0.6;enable-background:new    ;}
	.st24{opacity:0.3;}
	.st25{fill:#B55B52;}
	.st26{fill:#A02724;}
	.st27{opacity:0.3;enable-background:new    ;}
	.st28{font-family:'Montserrat-Regular';}
	.st29{font-size:4.5488px;}
	.st30{fill:#FFB573;}
	.st31{fill:#ED893E;}
	.st32{fill:none;stroke:#263238;stroke-width:1.029;stroke-linecap:round;stroke-linejoin:round;stroke-miterlimit:10;}
</style>
<g id="Background_Complete">
	<g>
		<rect y="382.4" class="st0" width="500" height="0.3"/>
		<rect x="416.8" y="398.5" class="st0" width="33.1" height="0.3"/>
		<rect x="322.5" y="401.2" class="st0" width="8.7" height="0.3"/>
		<rect x="396.6" y="389.2" class="st0" width="19.2" height="0.3"/>
		<rect x="52.5" y="390.9" class="st0" width="43.2" height="0.3"/>
		<rect x="104.6" y="390.9" class="st0" width="6.3" height="0.3"/>
		<rect x="131.5" y="395.1" class="st0" width="93.7" height="0.3"/>
		<path class="st0" d="M237,337.8H43.9c-3.1,0-5.7-2.6-5.7-5.7V60.7c0-3.1,2.6-5.7,5.7-5.7H237c3.1,0,5.7,2.6,5.7,5.7v271.4
			C242.7,335.2,240.2,337.8,237,337.8z M43.9,55.2c-3,0-5.5,2.4-5.5,5.5v271.4c0,3,2.4,5.5,5.5,5.5H237c3,0,5.5-2.4,5.5-5.5V60.7
			c0-3-2.4-5.5-5.5-5.5H43.9z"/>
		<path class="st0" d="M453.3,337.8H260.2c-3.1,0-5.7-2.6-5.7-5.7V60.7c0-3.1,2.6-5.7,5.7-5.7h193.1c3.1,0,5.7,2.6,5.7,5.7v271.4
			C459,335.2,456.5,337.8,453.3,337.8z M260.2,55.2c-3,0-5.5,2.4-5.5,5.5v271.4c0,3,2.4,5.5,5.5,5.5h193.1c3,0,5.5-2.4,5.5-5.5V60.7
			c0-3-2.4-5.5-5.5-5.5H260.2z"/>
	</g>
	<g>
		<path class="st1" d="M67.2,376.9l0.5-69l10.2-8.7l4.7-22.8l6.1-7.2l3.3-16l5.6,7.3l3.2,43.7l3.2-5l2.5-17l5.1,5.4l6.3,1.6
			l3.7,36.1l94,11.2l19.6-16.8l8-32.7l8.3-8.5l2.5-15.7l7.9,2.7v16.6l6.7,3.9l2.9,33.7l8.4,11.7l2.4-20.8c0,0,6.4-5.2,7.9-6.4
			c1.4-1.2,9.6-23.9,8.3-25.6c-1.2-1.7,1.8-16.4,1.8-16.4l8.1,4.9v24.3l8.5,2.1l1.3,10.6l21.6,3.5l3.5-16.3h9.6l3,9.3l8.8-0.1
			l13.9,10l11.4-22.4l11.6,5.4l8.4-19.4l8.8,11.4l3.3,36.9l4.5,0.5l2.1-8l8.5,8v53.8H67.2z"/>
		<path class="st1" d="M223.5,192.6h51.9l0,0c4.5-0.1,8-3.8,8-8.3c0-4.6-3.7-8.3-8.3-8.3c-0.8,0-1.6,0.1-2.4,0.4
			c0.1-0.8,0.2-1.7,0.2-2.5c0-9.7-7.9-17.5-17.5-17.5c-1.1,0-2.2,0.1-3.2,0.3c-2.7-4.4-7.5-7.4-13.1-7.4c-8.4,0-15.2,6.7-15.3,15.1
			c-0.1,0-0.2,0-0.3,0c-7.8,0-14.1,6.3-14.1,14.1C209.3,186.3,215.7,192.6,223.5,192.6z"/>
		<path class="st1" d="M192.4,110h19.5l0,0c1.7,0,3-1.4,3-3.1c0-1.7-1.4-3.1-3.1-3.1c-0.3,0-0.6,0-0.9,0.1c0-0.3,0.1-0.6,0.1-1
			c0-3.6-3-6.6-6.6-6.6c-0.4,0-0.8,0-1.2,0.1c-1-1.7-2.8-2.8-4.9-2.8c-3.2,0-5.7,2.5-5.8,5.7c0,0-0.1,0-0.1,0
			c-2.9,0-5.3,2.4-5.3,5.3C187.1,107.6,189.5,110,192.4,110z"/>
		<path class="st1" d="M370.2,116.1h19.5l0,0c1.7,0,3-1.4,3-3.1c0-1.7-1.4-3.1-3.1-3.1c-0.3,0-0.6,0-0.9,0.1c0-0.3,0.1-0.6,0.1-1
			c0-3.6-3-6.6-6.6-6.6c-0.4,0-0.8,0-1.2,0.1c-1-1.7-2.8-2.8-4.9-2.8c-3.2,0-5.7,2.5-5.8,5.7c0,0-0.1,0-0.1,0
			c-2.9,0-5.3,2.4-5.3,5.3S367.2,116.1,370.2,116.1z"/>
		<path class="st1" d="M370.2,174.1h19.5l0,0c1.7,0,3-1.4,3-3.1c0-1.7-1.4-3.1-3.1-3.1c-0.3,0-0.6,0-0.9,0.1c0-0.3,0.1-0.6,0.1-1
			c0-3.6-3-6.6-6.6-6.6c-0.4,0-0.8,0-1.2,0.1c-1-1.7-2.8-2.8-4.9-2.8c-3.2,0-5.7,2.5-5.8,5.7c0,0-0.1,0-0.1,0
			c-2.9,0-5.3,2.4-5.3,5.3C364.8,171.7,367.2,174.1,370.2,174.1z"/>
		<path class="st1" d="M82.7,189h28.2l0,0c2.4-0.1,4.4-2.1,4.4-4.5c0-2.5-2-4.5-4.5-4.5c-0.4,0-0.9,0.1-1.3,0.2
			c0.1-0.5,0.1-0.9,0.1-1.4c0-5.3-4.3-9.5-9.5-9.5c-0.6,0-1.2,0.1-1.8,0.2c-1.5-2.4-4.1-4-7.1-4c-4.6,0-8.3,3.7-8.3,8.2
			c0,0-0.1,0-0.1,0c-4.2,0-7.7,3.4-7.7,7.7C75,185.6,78.5,189,82.7,189z"/>
		<path class="st1" d="M294,125.8h28.2l0,0c2.4-0.1,4.4-2.1,4.4-4.5c0-2.5-2-4.5-4.5-4.5c-0.4,0-0.9,0.1-1.3,0.2
			c0.1-0.5,0.1-0.9,0.1-1.4c0-5.3-4.3-9.5-9.5-9.5c-0.6,0-1.2,0.1-1.8,0.2c-1.5-2.4-4.1-4-7.1-4c-4.6,0-8.3,3.7-8.3,8.2
			c0,0-0.1,0-0.1,0c-4.2,0-7.7,3.4-7.7,7.7C286.3,122.3,289.7,125.8,294,125.8z"/>
		<path class="st2" d="M204.5,282.3c2.1-15.5-4.4-32.8-13.6-44.3c-1.7-2.1-3.5-4.2-4.7-6.6c-3.8-7.5,2.1-12.7,7.6-16.9
			c20.8-15.8-2.6-18.5-13.5-27.6c-1-0.8-1.9-1.8-2.2-3c-0.4-2,1.3-3.8,2.9-5.2c7.5-6.6,16.9-13.1,18.6-23.8
			c0.7-4.4-0.4-9.3-3.6-12.4c-8.1-7.9-54.4,1.4-45.8-19.4c1.3-3,3.1-6.2,2.4-9.4c-4.2-20-53.4-12.1-66.8-11.4
			c11.3-0.6,22.7,0.8,33.5,3.9c5,1.5,10.7,4.3,11.3,9.5c0.5,5.1-4.3,8.8-8,11.4c-5.7,3.9-12.8,9.8-6.8,17
			c7.6,9.1,22.4,10.4,33.2,13.3c3.8,1,7.8,2.5,8,7.1c0.1,2.6-1,5.1-2.3,7.3c-2.7,4.8-6.1,9.3-8.2,14.4c-2.1,5.1-2.3,11.9,1.3,16.7
			c6.9,9.1,19.3,6.6,10.5,21.6c-11.2,19-10.6,41.3-2.4,61.3c4.1,10.1,11.7,21.7,23.7,22.5c6.7,0.4,13.2-3.2,17.4-8.3
			C201.3,294.7,203.7,288.7,204.5,282.3z"/>
		<path class="st0" d="M429.6,358.1l-16.5-3.3l-3.7-45.2l-11.3-7.8l-3.9-38.7L384,251.7l-4.7,8.9l-7.7,14l-2.6,13.8l-4.4,12.3
			l-9.4,14.7l-8.5-7.6c0,0-4.6-7.5-6.8-8.5c-2.2-1-11.2-1.8-11.2-1.8l-12.5,12v9.4l-12.8,6.8l-7.9,7.9l-4.7,5.8l-8.8,4.6
			c-19.3-13.3-67-50.6-77.6-100.2l-12,11.3l-8.6-13.4l-6.7,14.2l4.7,14.9l-8.2,7.5l3.5,15.1l-9.8-15.1l5.3-10.7l-4-9.4l3-13.9
			l-9.3-4.2l-11.8,18.1l-8.1-14.4c0,0-10,75.1-94,136.9h399.3L429.6,358.1z"/>
	</g>
</g>
<g id="Background_Simple" class="st3">
	<g class="st4">
		<path class="st5" d="M86.5,101.6c27.9-59.4,127.1-51.1,165.3-9.3c38.3,41.8,50.7,68.6,85.2,53c34.5-15.6,78.5-11.4,81,38.2
			c2.5,49.6-37.9,108.3-102.1,125.6c-64.2,17.4-64.2,78.8-149.1,66.4c-46.3-6.8-47.4-56.9-40.8-98.3
			C132.6,235.8,54.2,170.6,86.5,101.6z"/>
		<path class="st6" d="M86.5,101.6c27.9-59.4,127.1-51.1,165.3-9.3c38.3,41.8,50.7,68.6,85.2,53c34.5-15.6,78.5-11.4,81,38.2
			c2.5,49.6-37.9,108.3-102.1,125.6c-64.2,17.4-64.2,78.8-149.1,66.4c-46.3-6.8-47.4-56.9-40.8-98.3
			C132.6,235.8,54.2,170.6,86.5,101.6z"/>
	</g>
</g>
<g id="Shadow_1_">
	<ellipse id="_x3C_Path_x3E__359_" class="st1" cx="250" cy="416.2" rx="193.9" ry="11.3"/>
</g>
<g id="Plant">
	<g>
		<g>
			<path class="st5" d="M136.5,383.4c0,0-3.8-0.2-4.2-10.5c-0.4-10.3,6.3-13.1,11.4-11.8c0,0-0.7-7.4,2.6-7.1
				c3.3,0.3,3.1,5.2,3.1,5.2s1.1-10.4,5.7-10.4c4.5,0,0,12.3,0,12.3s6.3-3,8.6,0c2.3,3-2.9,6.5-2.9,6.5s8.1,2.6,4.7,11.1
				c0,0,5.7,0.9,7.2,4.7c0,0-0.5-7.6,1.6-7.1c2,0.5,1.6,7.2,1.6,7.2s3.4-7.3,6.3-4.7s-1.4,8.8-1.4,8.8s5.7-2.7,6.6,0.9
				c0.9,3.6-3.2,5-3.2,5s5.9-1.4,5.9,5.4c0,0,11.3-1.1,14,5h-67.5L136.5,383.4z"/>
			<path class="st7" d="M136.5,383.4c0,0-3.8-0.2-4.2-10.5c-0.4-10.3,6.3-13.1,11.4-11.8c0,0-0.7-7.4,2.6-7.1
				c3.3,0.3,3.1,5.2,3.1,5.2s1.1-10.4,5.7-10.4c4.5,0,0,12.3,0,12.3s6.3-3,8.6,0c2.3,3-2.9,6.5-2.9,6.5s8.1,2.6,4.7,11.1
				c0,0,5.7,0.9,7.2,4.7c0,0-0.5-7.6,1.6-7.1c2,0.5,1.6,7.2,1.6,7.2s3.4-7.3,6.3-4.7s-1.4,8.8-1.4,8.8s5.7-2.7,6.6,0.9
				c0.9,3.6-3.2,5-3.2,5s5.9-1.4,5.9,5.4c0,0,11.3-1.1,14,5h-67.5L136.5,383.4z"/>
		</g>
		<g>
			<g>
				<path class="st5" d="M383.4,403.7H420c0,0-7.3-11.2-10.4-9.7c-4,1.8-7-8.3-11.5-5.9c-1.6,0.8-0.8,3.5-1.8,4.6
					c-1.6,1.8-3.7,1.4-5.7,2.4C386.7,397.1,385.3,399.7,383.4,403.7z"/>
				<path class="st8" d="M383.4,403.7H420c0,0-7.3-11.2-10.4-9.7c-4,1.8-7-8.3-11.5-5.9c-1.6,0.8-0.8,3.5-1.8,4.6
					c-1.6,1.8-3.7,1.4-5.7,2.4C386.7,397.1,385.3,399.7,383.4,403.7z"/>
			</g>
			<g>
				<path class="st5" d="M416,400.6c0,0-2.4-14-0.7-16c1.7-2,2,7.6,2,7.6s5.6-20.2,9.2-20.3c3.6-0.1-4.2,17.5-4.2,17.5
					s15.3-24.9,19.7-22.6c4.4,2.3-16,24.4-16,24.4s11.2-9.6,13.6-6.9c2.5,2.7-12.4,11-12.4,11s6.5-1.5,6.5,0.7
					C433.6,398.2,422.6,401.8,416,400.6z"/>
				<path class="st9" d="M416,400.6c0,0-2.4-14-0.7-16c1.7-2,2,7.6,2,7.6s5.6-20.2,9.2-20.3c3.6-0.1-4.2,17.5-4.2,17.5
					s15.3-24.9,19.7-22.6c4.4,2.3-16,24.4-16,24.4s11.2-9.6,13.6-6.9c2.5,2.7-12.4,11-12.4,11s6.5-1.5,6.5,0.7
					C433.6,398.2,422.6,401.8,416,400.6z"/>
			</g>
			<g>
				<path class="st5" d="M413.8,398.6c0,0-11.5-2.1-12.6-3.9c-1.1-1.9,6.4,0.6,6.4,0.6s-14-10-13.1-12.8c0.9-2.8,12.3,8.2,12.3,8.2
					s-15-18.8-11.9-21.6c3-2.8,14.4,19.3,14.4,19.3s-4.3-11.3-1.5-12.5s5,12.7,5,12.7s0.7-5.5,2.4-4.9
					C417,384.3,416.6,393.9,413.8,398.6z"/>
				<path class="st9" d="M413.8,398.6c0,0-11.5-2.1-12.6-3.9c-1.1-1.9,6.4,0.6,6.4,0.6s-14-10-13.1-12.8c0.9-2.8,12.3,8.2,12.3,8.2
					s-15-18.8-11.9-21.6c3-2.8,14.4,19.3,14.4,19.3s-4.3-11.3-1.5-12.5s5,12.7,5,12.7s0.7-5.5,2.4-4.9
					C417,384.3,416.6,393.9,413.8,398.6z"/>
			</g>
			<g>
				<path class="st5" d="M413,397.1c0,0-11.1-11.1-10.9-14c0.2-2.9,6.6,5.6,6.6,5.6s-7.8-21.8-4.6-24.2c3.2-2.4,7.3,18.5,7.3,18.5
					s-2.1-32.3,3.4-33c5.5-0.7,1.1,32.3,1.1,32.3s4-15.8,7.9-14.9c4,0.9-4.2,17.9-4.2,17.9s5-5.5,6.4-3.5
					C427.4,383.7,419.7,394,413,397.1z"/>
				<path class="st7" d="M413,397.1c0,0-11.1-11.1-10.9-14c0.2-2.9,6.6,5.6,6.6,5.6s-7.8-21.8-4.6-24.2c3.2-2.4,7.3,18.5,7.3,18.5
					s-2.1-32.3,3.4-33c5.5-0.7,1.1,32.3,1.1,32.3s4-15.8,7.9-14.9c4,0.9-4.2,17.9-4.2,17.9s5-5.5,6.4-3.5
					C427.4,383.7,419.7,394,413,397.1z"/>
			</g>
			<path class="st5" d="M399.5,403.7h29.2c0,0-5.8-8.9-8.3-7.8c-3.2,1.5-5.6-6.6-9.2-4.7c-1.3,0.7-0.6,2.8-1.4,3.7
				c-1.3,1.4-3,1.2-4.6,1.9C402.2,398.4,401.1,400.5,399.5,403.7z"/>
			<path class="st10" d="M399.5,403.7h29.2c0,0-5.8-8.9-8.3-7.8c-3.2,1.5-5.6-6.6-9.2-4.7c-1.3,0.7-0.6,2.8-1.4,3.7
				c-1.3,1.4-3,1.2-4.6,1.9C402.2,398.4,401.1,400.5,399.5,403.7z"/>
		</g>
		<g>
			<path class="st5" d="M402.3,403.7l-7.6-35.2l-12.3-12.5v-29.9l-11.8-29.9L357,285l-43.9,26.2l6.1,34.8c0,0-15.8,16.3-17.2,16.3
				c-1.4,0-8.5-2.1-8.5-2.1l-19.7,27l-14.9,4.8l-4.9,11.8H402.3z"/>
			<path class="st10" d="M402.3,403.7l-7.6-35.2l-12.3-12.5v-29.9l-11.8-29.9L357,285l-43.9,26.2l6.1,34.8c0,0-15.8,16.3-17.2,16.3
				c-1.4,0-8.5-2.1-8.5-2.1l-19.7,27l-14.9,4.8l-4.9,11.8H402.3z"/>
			<polygon class="st11" points="402.3,403.7 394.7,368.5 375.3,391.5 340.3,395.4 334,380.5 312.3,377.3 299.6,391.8 291.9,386.9 
				267.6,396.1 259,391.9 254.1,403.7 			"/>
			<polygon class="st11" points="382.4,356.1 365,368.5 352.2,359 323.6,348.7 353,353.7 357.6,327.4 382.4,326.2 			"/>
		</g>
		<g>
			<g>
				<path class="st5" d="M246.5,403.7h-36.6c0,0,7.3-11.2,10.4-9.7c4,1.8,7-8.3,11.5-5.9c1.6,0.8,0.8,3.5,1.8,4.6
					c1.6,1.8,3.7,1.4,5.7,2.4C243.2,397.1,244.6,399.7,246.5,403.7z"/>
				<path class="st8" d="M246.5,403.7h-36.6c0,0,7.3-11.2,10.4-9.7c4,1.8,7-8.3,11.5-5.9c1.6,0.8,0.8,3.5,1.8,4.6
					c1.6,1.8,3.7,1.4,5.7,2.4C243.2,397.1,244.6,399.7,246.5,403.7z"/>
			</g>
			<g>
				<path class="st5" d="M213.9,400.6c0,0,2.4-14,0.7-16c-1.7-2-2,7.6-2,7.6s-5.6-20.2-9.2-20.3c-3.6-0.1,4.2,17.5,4.2,17.5
					s-15.3-24.9-19.7-22.6c-4.4,2.3,16,24.4,16,24.4s-11.2-9.6-13.6-6.9c-2.5,2.7,12.4,11,12.4,11s-6.5-1.5-6.5,0.7
					C196.3,398.2,207.3,401.8,213.9,400.6z"/>
				<path class="st9" d="M213.9,400.6c0,0,2.4-14,0.7-16c-1.7-2-2,7.6-2,7.6s-5.6-20.2-9.2-20.3c-3.6-0.1,4.2,17.5,4.2,17.5
					s-15.3-24.9-19.7-22.6c-4.4,2.3,16,24.4,16,24.4s-11.2-9.6-13.6-6.9c-2.5,2.7,12.4,11,12.4,11s-6.5-1.5-6.5,0.7
					C196.3,398.2,207.3,401.8,213.9,400.6z"/>
			</g>
			<g>
				<path class="st5" d="M216.1,398.6c0,0,11.5-2.1,12.6-3.9c1.1-1.9-6.4,0.6-6.4,0.6s14-10,13.1-12.8c-0.9-2.8-12.3,8.2-12.3,8.2
					s15-18.8,11.9-21.6s-14.4,19.3-14.4,19.3s4.3-11.3,1.5-12.5c-2.8-1.1-5,12.7-5,12.7s-0.7-5.5-2.4-4.9
					C212.9,384.3,213.3,393.9,216.1,398.6z"/>
				<path class="st9" d="M216.1,398.6c0,0,11.5-2.1,12.6-3.9c1.1-1.9-6.4,0.6-6.4,0.6s14-10,13.1-12.8c-0.9-2.8-12.3,8.2-12.3,8.2
					s15-18.8,11.9-21.6s-14.4,19.3-14.4,19.3s4.3-11.3,1.5-12.5c-2.8-1.1-5,12.7-5,12.7s-0.7-5.5-2.4-4.9
					C212.9,384.3,213.3,393.9,216.1,398.6z"/>
			</g>
			<g>
				<path class="st5" d="M216.9,397.1c0,0,11.1-11.1,10.9-14c-0.2-2.9-6.6,5.6-6.6,5.6s7.8-21.8,4.6-24.2
					c-3.2-2.4-7.3,18.5-7.3,18.5s2.1-32.3-3.4-33c-5.5-0.7-1.1,32.3-1.1,32.3s-4-15.8-7.9-14.9c-4,0.9,4.2,17.9,4.2,17.9
					s-5-5.5-6.4-3.5C202.5,383.7,210.2,394,216.9,397.1z"/>
				<path class="st7" d="M216.9,397.1c0,0,11.1-11.1,10.9-14c-0.2-2.9-6.6,5.6-6.6,5.6s7.8-21.8,4.6-24.2
					c-3.2-2.4-7.3,18.5-7.3,18.5s2.1-32.3-3.4-33c-5.5-0.7-1.1,32.3-1.1,32.3s-4-15.8-7.9-14.9c-4,0.9,4.2,17.9,4.2,17.9
					s-5-5.5-6.4-3.5C202.5,383.7,210.2,394,216.9,397.1z"/>
			</g>
			<path class="st5" d="M230.4,403.7h-29.2c0,0,5.8-8.9,8.3-7.8c3.2,1.5,5.6-6.6,9.2-4.7c1.3,0.7,0.6,2.8,1.4,3.7
				c1.3,1.4,3,1.2,4.6,1.9C227.7,398.4,228.8,400.5,230.4,403.7z"/>
			<path class="st10" d="M230.4,403.7h-29.2c0,0,5.8-8.9,8.3-7.8c3.2,1.5,5.6-6.6,9.2-4.7c1.3,0.7,0.6,2.8,1.4,3.7
				c1.3,1.4,3,1.2,4.6,1.9C227.7,398.4,228.8,400.5,230.4,403.7z"/>
		</g>
		<g>
			<polygon class="st5" points="156.3,403.7 57.1,403.7 58.5,398.2 67.1,395.1 58.5,383.2 64.3,370.1 80.7,370.8 77.6,350.2 
				81.4,341.1 94.8,339.3 91.6,325.7 96.7,312.4 104.6,312.4 128.4,353.9 130.1,348.8 136.4,343.2 143,350.2 			"/>
			<polygon class="st10" points="156.3,403.7 57.1,403.7 58.5,398.2 67.1,395.1 58.5,383.2 64.3,370.1 80.7,370.8 77.6,350.2 
				81.4,341.1 94.8,339.3 91.6,325.7 96.7,312.4 104.6,312.4 128.4,353.9 130.1,348.8 136.4,343.2 143,350.2 			"/>
			<polygon class="st11" points="156.3,403.7 57.1,403.7 58.5,398.2 67.1,395.1 58.5,383.2 67.5,384.8 82.9,394.1 78.9,379.4 
				80.7,370.8 85.2,365.6 99.9,380.3 91.3,375.7 89.2,379.1 93.8,395.8 109.2,398.1 119.7,393.5 119.5,376.9 111.8,372.6 
				104.6,380.3 96.7,344.1 106.7,363.3 112.7,358 123.5,362.3 128.4,353.9 130.1,348.8 129.2,375.4 132.1,390.9 136.4,386.2 
				142.1,384.8 			"/>
		</g>
		<g>
			<g>
				<path class="st5" d="M152.8,403.5c0,0,7.3-12.1,6.5-14.6c-0.8-2.5-4.6,6.4-4.6,6.4s2.1-20.8-1.2-22.2
					c-3.3-1.4-2.4,17.8-2.4,17.8s-5.2-28.8-10.2-28.2c-5,0.6,6.1,28.6,6.1,28.6s-6.9-13-10.2-11.3c-3.3,1.6,7.6,14.7,7.6,14.7
					s-5.6-3.7-6.4-1.7C137.3,394.9,146.3,402.3,152.8,403.5z"/>
				<path class="st9" d="M152.8,403.5c0,0,7.3-12.1,6.5-14.6c-0.8-2.5-4.6,6.4-4.6,6.4s2.1-20.8-1.2-22.2
					c-3.3-1.4-2.4,17.8-2.4,17.8s-5.2-28.8-10.2-28.2c-5,0.6,6.1,28.6,6.1,28.6s-6.9-13-10.2-11.3c-3.3,1.6,7.6,14.7,7.6,14.7
					s-5.6-3.7-6.4-1.7C137.3,394.9,146.3,402.3,152.8,403.5z"/>
			</g>
			<g>
				<path class="st5" d="M155.6,402.4c0,0,11.4,2.2,13.2,0.9c1.7-1.3-6.2-1.7-6.2-1.7s16.7-4.3,16.8-7.2c0.1-2.9-14.5,3.2-14.5,3.2
					s20.8-12.2,18.9-15.9c-1.8-3.7-20.4,12.8-20.4,12.8s8.1-9,5.9-11.1c-2.2-2.1-9.3,10-9.3,10s1.3-5.4-0.5-5.4
					C157.8,388,154.7,397,155.6,402.4z"/>
				<path class="st9" d="M155.6,402.4c0,0,11.4,2.2,13.2,0.9c1.7-1.3-6.2-1.7-6.2-1.7s16.7-4.3,16.8-7.2c0.1-2.9-14.5,3.2-14.5,3.2
					s20.8-12.2,18.9-15.9c-1.8-3.7-20.4,12.8-20.4,12.8s8.1-9,5.9-11.1c-2.2-2.1-9.3,10-9.3,10s1.3-5.4-0.5-5.4
					C157.8,388,154.7,397,155.6,402.4z"/>
			</g>
			<g>
				<path class="st5" d="M156.9,401.3c0,0,14.3-6.3,15.2-9.1c0.9-2.8-8.2,2.9-8.2,2.9s15.2-17.5,13.1-20.9
					c-2.1-3.4-13.5,14.6-13.5,14.6s13.6-29.4,8.8-32c-4.9-2.7-12.7,29.7-12.7,29.7s2-16.2-2-16.8c-4-0.6-2.5,18.2-2.5,18.2
					s-2.7-6.9-4.7-5.6C148.3,383.6,151.8,396,156.9,401.3z"/>
				<path class="st7" d="M156.9,401.3c0,0,14.3-6.3,15.2-9.1c0.9-2.8-8.2,2.9-8.2,2.9s15.2-17.5,13.1-20.9
					c-2.1-3.4-13.5,14.6-13.5,14.6s13.6-29.4,8.8-32c-4.9-2.7-12.7,29.7-12.7,29.7s2-16.2-2-16.8c-4-0.6-2.5,18.2-2.5,18.2
					s-2.7-6.9-4.7-5.6C148.3,383.6,151.8,396,156.9,401.3z"/>
			</g>
		</g>
	</g>
</g>
<g id="Machine">
	<g>
		<g>
			<rect x="218.2" y="387.4" class="st12" width="12.5" height="24.2"/>
			<g>
				<path class="st5" d="M255.5,158.5h-25.7c0.2-1.8,0.3-3.6,0.4-5.4c0.5-6.5,1.1-13.1,1.6-19.9c0.1-1.3,1.1-2.6,2.3-3
					c5.6-1.6,11.5-1.6,17.1,0c1.2,0.4,2.2,1.7,2.3,3c0.5,7,1.1,13.8,1.6,20.4C255.3,155.3,255.4,156.9,255.5,158.5z"/>
				<ellipse class="st13" cx="235.8" cy="144.8" rx="4.2" ry="10.2"/>
				<path class="st14" d="M236.8,143.8c0,2.6-1,4.7-2.3,4.7c-1.3,0-2.3-2.1-2.3-4.7c0-2.6,1-4.7,2.3-4.7
					C235.8,139.1,236.8,141.2,236.8,143.8z"/>
				<g>
					<path class="st15" d="M242.5,143.1v1.1c0,0.9,0.7,1.7,1.6,1.7v10.8h-2.9V140c0-0.8,0.6-1.4,1.4-1.4c0.8,0,1.4,0.6,1.4,1.4v1.3
						C243.2,141.4,242.5,142.1,242.5,143.1z"/>
					<g>
						<path class="st15" d="M251.2,144.4c-0.1,2-0.6,3.6-1.3,3.6c-0.1,0-0.2,0-0.3-0.1l-5.7-2.3c-0.6,0-1-0.8-1-1.9
							c0-1,0.5-1.9,1-1.9l5.7-2.4c0.1-0.1,0.2-0.1,0.3-0.1c0.6,0,1.2,1.5,1.3,3.6c-0.1-1.8-0.6-3.1-1.2-3.1c-0.7,0-1.2,1.8-1.2,3.9
							c0,2.2,0.5,3.9,1.2,3.9C250.6,147.5,251.1,146.1,251.2,144.4z"/>
						<path class="st15" d="M241,141.5l-5.2-2.2c-0.1-0.1-0.2-0.1-0.3-0.1c-0.7,0-1.3,2-1.3,4.4c0,2.4,0.6,4.4,1.3,4.4
							c0.1,0,0.2,0,0.3-0.1l5.2-2.1V141.5z"/>
					</g>
				</g>
				<ellipse class="st16" cx="249.5" cy="144.2" rx="4.2" ry="10.2"/>
				<path class="st16" d="M253.3,143.8c0,2.1-0.8,3.8-1.9,3.8c-1,0-1.9-1.7-1.9-3.8c0-2.1,0.8-3.8,1.9-3.8
					C252.4,140,253.3,141.7,253.3,143.8z"/>
				<path class="st14" d="M233.1,132.3c0,0,8.9-2.7,18.8,0c0,0-2.3-2.7-9.8-2.7C234.5,129.7,233.1,132.3,233.1,132.3z"/>
				<path class="st15" d="M255.5,158.5h-25.7c0.2-1.8,0.3-3.6,0.4-5.4c1,0.8,3.9,2.3,12.4,2.3c7.1,0,10.7-1,12.4-1.7
					C255.3,155.3,255.4,156.9,255.5,158.5z"/>
				<path class="st12" d="M250.9,160.6V158c0-1.7-1.4-3.1-3.1-3.1h-10.2c-1.7,0-3.1,1.4-3.1,3.1v2.5H250.9z"/>
				<path class="st12" d="M255.2,162.4h-25c-0.6,0-1-0.5-1-1v-3.2c0-0.6,0.5-1,1-1h25c0.6,0,1,0.5,1,1v3.2
					C256.2,161.9,255.7,162.4,255.2,162.4z"/>
				<path class="st17" d="M255.2,162.4h-25c-0.6,0-1-0.5-1-1v-3.2c0-0.6,0.5-1,1-1h25c0.6,0,1,0.5,1,1v3.2
					C256.2,161.9,255.7,162.4,255.2,162.4z"/>
				<g>
					<path class="st5" d="M262.2,119.1c0.1-0.2,0.1-0.5-0.1-0.6c-0.2-0.1-0.5-0.1-0.6,0.1c-0.4,0.5-1.3,1.3-2.1,2.1
						c-0.9,0.8-1.8,1.6-2.3,2.2c-0.7,1-1.6,2.2-1.8,3.5c0,0.2,0.1,0.5,0.3,0.5c0,0,0.1,0,0.1,0c0.2,0,0.4-0.1,0.4-0.3
						c0.2-1.2,1-2.2,1.7-3.2c0.4-0.5,1.3-1.3,2.1-2.1C260.9,120.4,261.7,119.7,262.2,119.1z"/>
					<path class="st5" d="M272.3,134.8c-0.1-0.2-0.4-0.3-0.6-0.2c-1.7,0.8-3.9,1.1-6.1,1.4c-1.7,0.2-3.4,0.5-4.9,1
						c-0.2,0.1-0.3,0.3-0.3,0.5c0.1,0.2,0.2,0.3,0.4,0.3c0,0,0.1,0,0.1,0c1.4-0.5,3.1-0.7,4.8-0.9c2.2-0.3,4.5-0.6,6.3-1.5
						C272.3,135.3,272.4,135,272.3,134.8z"/>
					<path class="st5" d="M271.2,151.6c-1.1-0.4-2.5-0.7-3.9-1.1c-1.6-0.4-3.2-0.8-4.4-1.2c-0.2-0.1-0.5,0-0.6,0.3
						c-0.1,0.2,0,0.5,0.3,0.6c1.2,0.4,2.9,0.9,4.5,1.3c1.5,0.4,2.8,0.7,3.9,1.1c0,0,0.1,0,0.1,0c0.2,0,0.3-0.1,0.4-0.3
						C271.6,152,271.5,151.7,271.2,151.6z"/>
					<path class="st5" d="M268.2,165.6c-1.5-0.9-2.6-2.1-3.7-3.3c-0.7-0.8-1.5-1.6-2.4-2.4c-0.2-0.2-0.5-0.1-0.6,0
						c-0.2,0.2-0.1,0.5,0,0.6c0.9,0.7,1.6,1.5,2.3,2.3c1.2,1.3,2.3,2.5,3.9,3.4c0.1,0,0.1,0.1,0.2,0.1c0.1,0,0.3-0.1,0.4-0.2
						C268.5,166,268.4,165.7,268.2,165.6z"/>
					<path class="st5" d="M224.7,119.4c-0.2-0.2-0.5-0.1-0.6,0c-0.2,0.2-0.1,0.5,0,0.6c2.2,2,4.2,4.2,5.8,6.6
						c0.1,0.1,0.2,0.2,0.4,0.2c0.1,0,0.2,0,0.2-0.1c0.2-0.1,0.2-0.4,0.1-0.6C229,123.7,227,121.4,224.7,119.4z"/>
					<path class="st5" d="M225.2,136.3c-1.2-0.3-2.5-0.8-3.8-1.4c-2.4-1-4.9-2-7.1-2c-0.2,0-0.4,0.2-0.4,0.4c0,0.2,0.2,0.4,0.4,0.4
						c2.1,0.1,4.5,1,6.8,2c1.4,0.6,2.7,1.1,3.9,1.4c0,0,0.1,0,0.1,0c0.2,0,0.4-0.1,0.4-0.3C225.6,136.6,225.5,136.3,225.2,136.3z"/>
					<path class="st5" d="M221.9,148.6C221.9,148.6,221.9,148.6,221.9,148.6c0.2,0,0.4-0.2,0.4-0.4c0-0.2-0.2-0.4-0.4-0.4
						c-1.2,0-2.2,0.5-3.1,1c-1.1,0.6-2.2,0.6-3.4,0.6c-1.2,0-2.5,0.1-3.8,0.7c-0.2,0.1-0.3,0.4-0.2,0.6c0.1,0.1,0.2,0.2,0.4,0.2
						c0.1,0,0.1,0,0.2,0c1.1-0.6,2.2-0.6,3.4-0.6c1.2,0,2.5-0.1,3.8-0.7C220,149.1,221,148.6,221.9,148.6z"/>
					<path class="st5" d="M223.7,160.4l-0.5,0.2c-2.4,1-4.9,2-6.7,4c-0.2,0.2-0.1,0.5,0,0.6c0.1,0.1,0.2,0.1,0.3,0.1
						c0.1,0,0.2-0.1,0.3-0.1c1.6-1.9,3.9-2.8,6.3-3.8l0.5-0.2c0.2-0.1,0.3-0.3,0.2-0.6C224.1,160.4,223.9,160.3,223.7,160.4z"/>
					<path class="st5" d="M243.4,113.7c-0.2,0-0.5,0.1-0.5,0.4c-0.3,2.6-0.5,7.9-0.4,10.4c0,0.2,0.2,0.4,0.4,0.4c0,0,0,0,0,0
						c0.2,0,0.4-0.2,0.4-0.4c-0.1-2.6,0.1-7.8,0.3-10.3C243.8,113.9,243.6,113.7,243.4,113.7z"/>
				</g>
				<g class="st18">
					<path class="st19" d="M262.2,119.1c0.1-0.2,0.1-0.5-0.1-0.6c-0.2-0.1-0.5-0.1-0.6,0.1c-0.4,0.5-1.3,1.3-2.1,2.1
						c-0.9,0.8-1.8,1.6-2.3,2.2c-0.7,1-1.6,2.2-1.8,3.5c0,0.2,0.1,0.5,0.3,0.5c0,0,0.1,0,0.1,0c0.2,0,0.4-0.1,0.4-0.3
						c0.2-1.2,1-2.2,1.7-3.2c0.4-0.5,1.3-1.3,2.1-2.1C260.9,120.4,261.7,119.7,262.2,119.1z"/>
					<path class="st19" d="M272.3,134.8c-0.1-0.2-0.4-0.3-0.6-0.2c-1.7,0.8-3.9,1.1-6.1,1.4c-1.7,0.2-3.4,0.5-4.9,1
						c-0.2,0.1-0.3,0.3-0.3,0.5c0.1,0.2,0.2,0.3,0.4,0.3c0,0,0.1,0,0.1,0c1.4-0.5,3.1-0.7,4.8-0.9c2.2-0.3,4.5-0.6,6.3-1.5
						C272.3,135.3,272.4,135,272.3,134.8z"/>
					<path class="st19" d="M271.2,151.6c-1.1-0.4-2.5-0.7-3.9-1.1c-1.6-0.4-3.2-0.8-4.4-1.2c-0.2-0.1-0.5,0-0.6,0.3
						c-0.1,0.2,0,0.5,0.3,0.6c1.2,0.4,2.9,0.9,4.5,1.3c1.5,0.4,2.8,0.7,3.9,1.1c0,0,0.1,0,0.1,0c0.2,0,0.3-0.1,0.4-0.3
						C271.6,152,271.5,151.7,271.2,151.6z"/>
					<path class="st19" d="M268.2,165.6c-1.5-0.9-2.6-2.1-3.7-3.3c-0.7-0.8-1.5-1.6-2.4-2.4c-0.2-0.2-0.5-0.1-0.6,0
						c-0.2,0.2-0.1,0.5,0,0.6c0.9,0.7,1.6,1.5,2.3,2.3c1.2,1.3,2.3,2.5,3.9,3.4c0.1,0,0.1,0.1,0.2,0.1c0.1,0,0.3-0.1,0.4-0.2
						C268.5,166,268.4,165.7,268.2,165.6z"/>
					<path class="st19" d="M224.7,119.4c-0.2-0.2-0.5-0.1-0.6,0c-0.2,0.2-0.1,0.5,0,0.6c2.2,2,4.2,4.2,5.8,6.6
						c0.1,0.1,0.2,0.2,0.4,0.2c0.1,0,0.2,0,0.2-0.1c0.2-0.1,0.2-0.4,0.1-0.6C229,123.7,227,121.4,224.7,119.4z"/>
					<path class="st19" d="M225.2,136.3c-1.2-0.3-2.5-0.8-3.8-1.4c-2.4-1-4.9-2-7.1-2c-0.2,0-0.4,0.2-0.4,0.4c0,0.2,0.2,0.4,0.4,0.4
						c2.1,0.1,4.5,1,6.8,2c1.4,0.6,2.7,1.1,3.9,1.4c0,0,0.1,0,0.1,0c0.2,0,0.4-0.1,0.4-0.3C225.6,136.6,225.5,136.3,225.2,136.3z"/>
					<path class="st19" d="M221.9,148.6C221.9,148.6,221.9,148.6,221.9,148.6c0.2,0,0.4-0.2,0.4-0.4c0-0.2-0.2-0.4-0.4-0.4
						c-1.2,0-2.2,0.5-3.1,1c-1.1,0.6-2.2,0.6-3.4,0.6c-1.2,0-2.5,0.1-3.8,0.7c-0.2,0.1-0.3,0.4-0.2,0.6c0.1,0.1,0.2,0.2,0.4,0.2
						c0.1,0,0.1,0,0.2,0c1.1-0.6,2.2-0.6,3.4-0.6c1.2,0,2.5-0.1,3.8-0.7C220,149.1,221,148.6,221.9,148.6z"/>
					<path class="st19" d="M223.7,160.4l-0.5,0.2c-2.4,1-4.9,2-6.7,4c-0.2,0.2-0.1,0.5,0,0.6c0.1,0.1,0.2,0.1,0.3,0.1
						c0.1,0,0.2-0.1,0.3-0.1c1.6-1.9,3.9-2.8,6.3-3.8l0.5-0.2c0.2-0.1,0.3-0.3,0.2-0.6C224.1,160.4,223.9,160.3,223.7,160.4z"/>
					<path class="st19" d="M243.4,113.7c-0.2,0-0.5,0.1-0.5,0.4c-0.3,2.6-0.5,7.9-0.4,10.4c0,0.2,0.2,0.4,0.4,0.4c0,0,0,0,0,0
						c0.2,0,0.4-0.2,0.4-0.4c-0.1-2.6,0.1-7.8,0.3-10.3C243.8,113.9,243.6,113.7,243.4,113.7z"/>
				</g>
			</g>
			<path class="st12" d="M269.6,167.2v246.5H216v-3.4h7.9c0.8,0,1.5-0.7,1.5-1.5c0-0.8-0.7-1.5-1.5-1.5H216v-2.4h7.9
				c0.8,0,1.5-0.7,1.5-1.5c0-0.8-0.7-1.5-1.5-1.5H216v-2.4h7.9c0.8,0,1.5-0.7,1.5-1.5c0-0.8-0.7-1.5-1.5-1.5H216V394h7.9
				c0.8,0,1.5-0.7,1.5-1.5c0-0.8-0.7-1.5-1.5-1.5H216V167.2c0-3.6,2.9-6.4,6.4-6.4h40.7C266.7,160.8,269.6,163.6,269.6,167.2z"/>
			<path class="st7" d="M269.6,167.2v246.5H216v-3.4h7.9c0.8,0,1.5-0.7,1.5-1.5c0-0.8-0.7-1.5-1.5-1.5H216v-2.4h7.9
				c0.8,0,1.5-0.7,1.5-1.5c0-0.8-0.7-1.5-1.5-1.5H216v-2.4h7.9c0.8,0,1.5-0.7,1.5-1.5c0-0.8-0.7-1.5-1.5-1.5H216V394h7.9
				c0.8,0,1.5-0.7,1.5-1.5c0-0.8-0.7-1.5-1.5-1.5H216V167.2c0-3.6,2.9-6.4,6.4-6.4h40.7C266.7,160.8,269.6,163.6,269.6,167.2z"/>
			<g>
				<path class="st12" d="M269.5,169.4H239c-5.9,0-10.7,4.8-10.7,10.7v41.2c0,0.8,0.7,1.5,1.5,1.5c0.8,0,1.5-0.7,1.5-1.5V180
					c0-4.2,3.4-7.7,7.7-7.7h30.4c0.8,0,1.5-0.7,1.5-1.5S270.3,169.4,269.5,169.4z"/>
				<path class="st12" d="M216,193.5c1.2,0,2.2,1,2.2,2.2v25.6c0,0.8,0.7,1.5,1.5,1.5c0.8,0,1.5-0.7,1.5-1.5v-25.6
					c0-2.9-2.3-5.2-5.2-5.2c-0.8,0-1.5,0.7-1.5,1.5C214.5,192.8,215.2,193.5,216,193.5z"/>
				<path class="st12" d="M216,327.5h2.9c3.5,0,6.3-2.8,6.3-6.3v-88.1c0-0.8-0.7-1.5-1.5-1.5c-0.8,0-1.5,0.7-1.5,1.5v88.1
					c0,1.8-1.5,3.3-3.3,3.3H216c-0.8,0-1.5,0.7-1.5,1.5S215.2,327.5,216,327.5z"/>
				<path class="st12" d="M264,389.4h-21.2c-5.2,0-9.5-4.2-9.5-9.5v-27.2c0-6.9-5.6-12.5-12.5-12.5H216c-0.8,0-1.5,0.7-1.5,1.5
					c0,0.8,0.7,1.5,1.5,1.5h4.9c5.2,0,9.5,4.2,9.5,9.5v27.2c0,6.9,5.6,12.5,12.5,12.5H264c0.8,0,1.5-0.7,1.5-1.5
					C265.5,390.1,264.8,389.4,264,389.4z"/>
				<g class="st20">
					<path class="st19" d="M269.5,169.4H239c-5.9,0-10.7,4.8-10.7,10.7v41.2c0,0.8,0.7,1.5,1.5,1.5c0.8,0,1.5-0.7,1.5-1.5V180
						c0-4.2,3.4-7.7,7.7-7.7h30.4c0.8,0,1.5-0.7,1.5-1.5S270.3,169.4,269.5,169.4z"/>
					<path class="st19" d="M216,193.5c1.2,0,2.2,1,2.2,2.2v25.6c0,0.8,0.7,1.5,1.5,1.5c0.8,0,1.5-0.7,1.5-1.5v-25.6
						c0-2.9-2.3-5.2-5.2-5.2c-0.8,0-1.5,0.7-1.5,1.5C214.5,192.8,215.2,193.5,216,193.5z"/>
					<path class="st19" d="M216,327.5h2.9c3.5,0,6.3-2.8,6.3-6.3v-88.1c0-0.8-0.7-1.5-1.5-1.5c-0.8,0-1.5,0.7-1.5,1.5v88.1
						c0,1.8-1.5,3.3-3.3,3.3H216c-0.8,0-1.5,0.7-1.5,1.5S215.2,327.5,216,327.5z"/>
					<path class="st19" d="M264,389.4h-21.2c-5.2,0-9.5-4.2-9.5-9.5v-27.2c0-6.9-5.6-12.5-12.5-12.5H216c-0.8,0-1.5,0.7-1.5,1.5
						c0,0.8,0.7,1.5,1.5,1.5h4.9c5.2,0,9.5,4.2,9.5,9.5v27.2c0,6.9,5.6,12.5,12.5,12.5H264c0.8,0,1.5-0.7,1.5-1.5
						C265.5,390.1,264.8,389.4,264,389.4z"/>
				</g>
			</g>
			<g>
				<path class="st5" d="M224.8,251.5c-0.4,0-1.9,0-2.3,0c-4.5,0-8.2,4.1-8.2,9.1c0,5,3.7,9.1,8.2,9.1c0.4,0,1.9,0,2.3,0
					c4.5,0,8.2-4.1,8.2-9.1C233,255.6,229.3,251.5,224.8,251.5z"/>
				<path class="st5" d="M222.5,251.5c-4.5,0-8.2,4.1-8.2,9.1c0,5,3.7,9.1,8.2,9.1c4.5,0,8.2-4.1,8.2-9.1
					C230.7,255.6,227.1,251.5,222.5,251.5z"/>
				<ellipse class="st19" cx="222.5" cy="260.6" rx="7.3" ry="8"/>
				<g>
					<g class="st15">
						<path d="M222.5,269.7c-4.5,0-8.2-4.1-8.2-9.1c0-5,3.7-9.1,8.2-9.1c4.5,0,8.2,4.1,8.2,9.1C230.7,265.6,227.1,269.7,222.5,269.7
							z M222.5,252.6c-4,0-7.3,3.6-7.3,8c0,4.4,3.3,8,7.3,8c4,0,7.3-3.6,7.3-8C229.8,256.2,226.5,252.6,222.5,252.6z"/>
					</g>
					<line class="st21" x1="222.7" y1="260.6" x2="225.9" y2="255.2"/>
					<path class="st12" d="M223.8,260.6c0,0.7-0.5,1.2-1.1,1.2c-0.6,0-1.1-0.5-1.1-1.2s0.5-1.2,1.1-1.2
						C223.3,259.4,223.8,259.9,223.8,260.6z"/>
				</g>
				<path class="st15" d="M223.1,268.6c-0.2,0-0.4,0-0.6,0c-4,0-7.3-3.6-7.3-8c0-4.4,3.3-8,7.3-8c0.2,0,0.4,0,0.6,0
					c-3.7,0.3-6.7,3.8-6.7,8C216.4,264.8,219.3,268.3,223.1,268.6z"/>
			</g>
			<g>
				<path class="st5" d="M224.8,273.5c-0.4,0-1.9,0-2.3,0c-4.5,0-8.2,4.1-8.2,9.1c0,5,3.7,9.1,8.2,9.1c0.4,0,1.9,0,2.3,0
					c4.5,0,8.2-4.1,8.2-9.1C233,277.6,229.3,273.5,224.8,273.5z"/>
				<path class="st5" d="M222.5,273.5c-4.5,0-8.2,4.1-8.2,9.1c0,5,3.7,9.1,8.2,9.1c4.5,0,8.2-4.1,8.2-9.1
					C230.7,277.6,227.1,273.5,222.5,273.5z"/>
				<ellipse class="st19" cx="222.5" cy="282.6" rx="7.3" ry="8"/>
				<g>
					<g class="st15">
						<path d="M222.5,291.7c-4.5,0-8.2-4.1-8.2-9.1c0-5,3.7-9.1,8.2-9.1c4.5,0,8.2,4.1,8.2,9.1C230.7,287.6,227.1,291.7,222.5,291.7
							z M222.5,274.6c-4,0-7.3,3.6-7.3,8c0,4.4,3.3,8,7.3,8c4,0,7.3-3.6,7.3-8C229.8,278.2,226.5,274.6,222.5,274.6z"/>
					</g>
					<line class="st21" x1="222.7" y1="282.6" x2="225.9" y2="286.9"/>
					<path class="st12" d="M223.8,282.6c0,0.7-0.5,1.2-1.1,1.2c-0.6,0-1.1-0.5-1.1-1.2s0.5-1.2,1.1-1.2
						C223.3,281.4,223.8,282,223.8,282.6z"/>
				</g>
				<path class="st15" d="M223.1,290.6c-0.2,0-0.4,0-0.6,0c-4,0-7.3-3.6-7.3-8c0-4.4,3.3-8,7.3-8c0.2,0,0.4,0,0.6,0
					c-3.7,0.3-6.7,3.8-6.7,8C216.4,286.8,219.3,290.3,223.1,290.6z"/>
			</g>
			<g>
				<path class="st5" d="M224.8,295.6c-0.4,0-1.9,0-2.3,0c-4.5,0-8.2,4.1-8.2,9.1c0,5,3.7,9.1,8.2,9.1c0.4,0,1.9,0,2.3,0
					c4.5,0,8.2-4.1,8.2-9.1C233,299.6,229.3,295.6,224.8,295.6z"/>
				<path class="st5" d="M222.5,295.6c-4.5,0-8.2,4.1-8.2,9.1c0,5,3.7,9.1,8.2,9.1c4.5,0,8.2-4.1,8.2-9.1
					C230.7,299.6,227.1,295.6,222.5,295.6z"/>
				<ellipse class="st19" cx="222.5" cy="304.6" rx="7.3" ry="8"/>
				<g>
					<g class="st15">
						<path d="M222.5,313.7c-4.5,0-8.2-4.1-8.2-9.1c0-5,3.7-9.1,8.2-9.1c4.5,0,8.2,4.1,8.2,9.1C230.7,309.7,227.1,313.7,222.5,313.7
							z M222.5,296.6c-4,0-7.3,3.6-7.3,8c0,4.4,3.3,8,7.3,8c4,0,7.3-3.6,7.3-8C229.8,300.2,226.5,296.6,222.5,296.6z"/>
					</g>
					<line class="st21" x1="222.7" y1="304.6" x2="218.2" y2="301.1"/>
					<path class="st12" d="M223.8,304.6c0,0.7-0.5,1.2-1.1,1.2c-0.6,0-1.1-0.5-1.1-1.2s0.5-1.2,1.1-1.2
						C223.3,303.4,223.8,304,223.8,304.6z"/>
				</g>
				<path class="st15" d="M223.1,312.6c-0.2,0-0.4,0-0.6,0c-4,0-7.3-3.6-7.3-8c0-4.4,3.3-8,7.3-8c0.2,0,0.4,0,0.6,0
					c-3.7,0.3-6.7,3.8-6.7,8C216.4,308.9,219.3,312.3,223.1,312.6z"/>
			</g>
			<g>
				<path class="st5" d="M237.9,237.9h-24c-1.5,0-2.7-1.2-2.7-2.7v-14.7c0-1.5,1.2-2.7,2.7-2.7h24c1.5,0,2.7,1.2,2.7,2.7v14.7
					C240.7,236.7,239.4,237.9,237.9,237.9z"/>
				<path class="st13" d="M232.3,237.9h-18.4c-1.5,0-2.7-1.2-2.7-2.7v-14.7c0-1.5,1.2-2.7,2.7-2.7h18.4c1.5,0,2.7,1.2,2.7,2.7v14.7
					C235.1,236.7,233.8,237.9,232.3,237.9z"/>
				<path class="st12" d="M249.6,229.3c0.8,0,1.5-0.7,1.5-1.5s-0.7-1.5-1.5-1.5H239c-0.8,0-1.5,0.7-1.5,1.5s0.7,1.5,1.5,1.5H249.6z"
					/>
				<path class="st13" d="M249.6,229.3c0.8,0,1.5-0.7,1.5-1.5s-0.7-1.5-1.5-1.5H239c-0.8,0-1.5,0.7-1.5,1.5s0.7,1.5,1.5,1.5H249.6z"
					/>
			</g>
			<path class="st22" d="M269.6,173.3v240.4h-26.9V204.9C242.7,189,254.3,175.8,269.6,173.3z"/>
		</g>
		<g>
			<polygon class="st12" points="311.5,105.6 317.7,158.9 305.2,158.9 			"/>
			<path class="st5" d="M306.1,111c0,3,2.4,5.4,5.4,5.4c3,0,5.4-2.4,5.4-5.4c0-3-2.4-5.4-5.4-5.4C308.5,105.6,306.1,108,306.1,111z"
				/>
			<g>
				<path class="st5" d="M306.5,121.6h9.9c0.8,0,1.5-0.7,1.5-1.5s-0.7-1.5-1.5-1.5h-9.9c-0.8,0-1.5,0.7-1.5,1.5
					S305.7,121.6,306.5,121.6z"/>
				<path class="st5" d="M320.7,147.3h-18.6c-0.8,0-1.5,0.7-1.5,1.5s0.7,1.5,1.5,1.5h18.6c0.8,0,1.5-0.7,1.5-1.5
					S321.6,147.3,320.7,147.3z"/>
				<path class="st5" d="M304.4,135.7h14.1c0.8,0,1.5-0.7,1.5-1.5c0-0.8-0.7-1.5-1.5-1.5h-14.1c-0.8,0-1.5,0.7-1.5,1.5
					C302.9,135,303.6,135.7,304.4,135.7z"/>
				<path class="st5" d="M305.5,128.2h12.2c0.8,0,1.5-0.7,1.5-1.5s-0.7-1.5-1.5-1.5h-12.2c-0.8,0-1.5,0.7-1.5,1.5
					S304.7,128.2,305.5,128.2z"/>
				<path class="st5" d="M303.4,142.6h16.2c0.8,0,1.5-0.7,1.5-1.5c0-0.8-0.7-1.5-1.5-1.5h-16.2c-0.8,0-1.5,0.7-1.5,1.5
					C301.9,141.9,302.5,142.6,303.4,142.6z"/>
			</g>
			<g class="st23">
				<path class="st19" d="M306.5,121.6h9.9c0.8,0,1.5-0.7,1.5-1.5s-0.7-1.5-1.5-1.5h-9.9c-0.8,0-1.5,0.7-1.5,1.5
					S305.7,121.6,306.5,121.6z"/>
				<path class="st19" d="M320.7,147.3h-18.6c-0.8,0-1.5,0.7-1.5,1.5s0.7,1.5,1.5,1.5h18.6c0.8,0,1.5-0.7,1.5-1.5
					S321.6,147.3,320.7,147.3z"/>
				<path class="st19" d="M304.4,135.7h14.1c0.8,0,1.5-0.7,1.5-1.5c0-0.8-0.7-1.5-1.5-1.5h-14.1c-0.8,0-1.5,0.7-1.5,1.5
					C302.9,135,303.6,135.7,304.4,135.7z"/>
				<path class="st19" d="M305.5,128.2h12.2c0.8,0,1.5-0.7,1.5-1.5s-0.7-1.5-1.5-1.5h-12.2c-0.8,0-1.5,0.7-1.5,1.5
					S304.7,128.2,305.5,128.2z"/>
				<path class="st19" d="M303.4,142.6h16.2c0.8,0,1.5-0.7,1.5-1.5c0-0.8-0.7-1.5-1.5-1.5h-16.2c-0.8,0-1.5,0.7-1.5,1.5
					C301.9,141.9,302.5,142.6,303.4,142.6z"/>
			</g>
			<g>
				<path class="st12" d="M384,339.8h-32.9V205.9H384c3.6,0,6.5,2.9,6.5,6.5v120.8C390.6,336.9,387.7,339.8,384,339.8z"/>
				<path class="st13" d="M390.6,212.4v120.8c0,3.6-2.9,6.5-6.5,6.5h-32.9V205.9H384C387.7,205.9,390.6,208.8,390.6,212.4z"/>
				<path class="st15" d="M380.6,221.6v111.6c0,3.6-2.9,6.5-6.5,6.5h-22.9V205.9h13.7C373.5,205.9,380.6,212.9,380.6,221.6z"/>
			</g>
			<path class="st5" d="M362.5,413.7h32.4v-56c0-9-7.3-16.2-16.2-16.2l0,0c-9,0-16.2,7.3-16.2,16.2V413.7z"/>
			<path class="st9" d="M394.9,357.7v56h-32.4v-56c0-4.5,1.8-8.5,4.8-11.5c1.8-1.8,4-3.2,6.5-4c1.6-0.5,3.3-0.8,5-0.8
				C387.7,341.5,394.9,348.7,394.9,357.7z"/>
			<path class="st22" d="M384.9,357.7v56h-22.4v-56c0-4.5,1.8-8.5,4.8-11.5c1.8-1.8,4-3.2,6.5-4
				C380.2,344.4,384.9,350.5,384.9,357.7z"/>
			<g>
				<path class="st12" d="M250.5,413.7h124.2V222.1c0-34.3-27.8-62.1-62.1-62.1h0c-34.3,0-62.1,27.8-62.1,62.1V413.7z"/>
				<path class="st8" d="M250.5,413.7h124.2V222.1c0-34.3-27.8-62.1-62.1-62.1h0c-34.3,0-62.1,27.8-62.1,62.1V413.7z"/>
				<path class="st22" d="M374.7,222.1v191.6h-22V222.1c0-30.5-22-55.9-51.1-61.1c3.6-0.6,7.3-1,11-1
					C346.8,160,374.7,187.8,374.7,222.1z"/>
			</g>
			<g>
				<path class="st5" d="M285.1,396.3c20.5,0,37.2-16.7,37.2-37.2V217c0-20.5-16.7-37.2-37.2-37.2c-20.5,0-37.2,16.7-37.2,37.2
					v142.1C247.9,379.7,264.6,396.3,285.1,396.3z"/>
				<path class="st13" d="M285.1,396.3c20.5,0,37.2-16.7,37.2-37.2V217c0-20.5-16.7-37.2-37.2-37.2c-20.5,0-37.2,16.7-37.2,37.2
					v142.1C247.9,379.7,264.6,396.3,285.1,396.3z"/>
				<path class="st7" d="M284.1,391.3L284.1,391.3c17.8,0,32.2-14.4,32.2-32.2V217c0-17.8-14.4-32.2-32.2-32.2h0
					c-17.8,0-32.2,14.4-32.2,32.2v142.1C251.9,376.9,266.3,391.3,284.1,391.3z"/>
				<path class="st5" d="M280.7,259.7c12.3,0,22.3-11.2,22.3-25.1c0-13.8-10-25.1-22.3-25.1s-22.3,11.2-22.3,25.1
					C258.4,248.5,268.4,259.7,280.7,259.7z"/>
				<path class="st13" d="M280.7,259.7c12.3,0,22.3-11.2,22.3-25.1c0-13.8-10-25.1-22.3-25.1s-22.3,11.2-22.3,25.1
					C258.4,248.5,268.4,259.7,280.7,259.7z"/>
				<g>
					<path class="st12" d="M284.5,305.9c-1.8,0-1.5,0-3.3,0c-6.2,0-11.3-5.5-11.3-12.2c0-6.7,5-12.2,11.3-12.2c1.8,0,1.5,0,3.3,0
						c6.2,0,11.3,5.5,11.3,12.2C295.7,300.4,290.7,305.9,284.5,305.9z"/>
					<path class="st17" d="M292.5,293.7c0-6.7-5-12.2-11.3-12.2s-11.3,5.5-11.3,12.2s5,12.2,11.3,12.2S292.5,300.4,292.5,293.7z"/>
					<path class="st13" d="M284.5,305.9c-1.8,0-1.5,0-3.3,0c-6.2,0-11.3-5.5-11.3-12.2c0-6.7,5-12.2,11.3-12.2c1.8,0,1.5,0,3.3,0
						c6.2,0,11.3,5.5,11.3,12.2C295.7,300.4,290.7,305.9,284.5,305.9z"/>
				</g>
				<path class="st5" d="M256,294.3c0,13.5,9.6,24.4,21.4,24.4c11.8,0,21.4-10.9,21.4-24.4c0-13.5-9.6-24.4-21.4-24.4
					C265.6,269.9,256,280.8,256,294.3z M285,290.7l6.3-9c2.1,3.4,3.4,7.5,3.5,12h-8.7C286,292.5,285.6,291.5,285,290.7z
					 M294.8,295.2c-0.2,4.3-1.4,8.3-3.5,11.7l-6.3-9c0.6-0.7,1-1.6,1.1-2.6H294.8z M277,296.6L263.7,307c-2.1-3.3-3.4-7.4-3.6-11.8
					h16.5C276.7,295.7,276.8,296.2,277,296.6z M260.1,293.7c0.1-4.5,1.4-8.7,3.6-12.1L277,292c-0.2,0.5-0.3,1.1-0.4,1.7H260.1z
					 M276.7,273.2l2.8,16.1c-0.6,0.3-1.1,0.7-1.6,1.2l-13.2-10.3C267.7,276.1,272,273.4,276.7,273.2z M290.2,280l-6.6,9.4
					c-0.6-0.4-1.4-0.6-2.2-0.6l-2.7-15.6C283.2,273.6,287.3,276.2,290.2,280z M278.8,315.4l2.7-15.6c0.8,0,1.5-0.3,2.1-0.6l6.6,9.4
					C287.3,312.4,283.2,315,278.8,315.4z M264.7,308.5l13.2-10.3c0.4,0.5,1,0.9,1.6,1.2l-2.8,16.1
					C272,315.2,267.8,312.5,264.7,308.5z"/>
				<g>
					<path class="st24" d="M299.9,234.6c0,2.1-0.3,4.2-0.8,6.1c-0.2,0.9-0.5,1.8-0.9,2.7c-0.6,1.7-1.5,3.2-2.4,4.7
						c-0.4,0.6-0.8,1.1-1.2,1.6c-0.4,0.5-0.9,1-1.4,1.5c-3.4,3.4-7.8,5.4-12.6,5.4c-1,0-1.9-0.1-2.9-0.2
						c-9.3-1.6-16.4-10.8-16.4-21.8c0-12.2,8.6-22.1,19.3-22.1c4.5,0,8.7,1.8,12,4.8c1.1,1,2.1,2.2,3,3.4c0.9,1.3,1.7,2.7,2.3,4.2
						c0.4,1,0.8,2,1.1,3.1c0.1,0.2,0.1,0.4,0.1,0.6v0c0.1,0.6,0.3,1.1,0.4,1.7v0C299.8,231.8,299.9,233.2,299.9,234.6z"/>
					<g>
						<g>
							<path class="st25" d="M298.3,243.5c-0.6,1.7-1.5,3.2-2.4,4.7c-0.4,0.6-0.8,1.1-1.2,1.6c-0.9,0.3-2,0.5-3.2,0.6
								c-2.4,0.2-3.2-1-3.2-2.1c0-0.4,0.1-0.8,0.2-1.1c3.2-1.1,3.6-3.3,3.1-5.6c0,0,0,0,0,0c0-0.1-0.1-0.3-0.1-0.4
								c-0.1-0.3-0.2-0.5-0.3-0.8c0-0.1-0.1-0.2-0.1-0.3c0,0,0,0,0-0.1l3.8-3.9l2.1-2.2l0.4-0.4l0.1-0.1c0,0.1,0,0.2,0,0.3
								c-0.2,2-0.2,4.9,0.2,7.4C297.8,241.9,298,242.7,298.3,243.5z"/>
							<path class="st15" d="M294.9,236l-3.8,3.9c0.2,0.7,0.4,1.3,0.6,2c1.5-0.4,3.5-2.3,3.5-3.9C295.2,237.2,295.1,236.4,294.9,236
								z"/>
						</g>
						<g>
							<path class="st12" d="M283,224.4c-0.6,2-0.1,5.9,2.6,4.6C288.2,227.6,283.9,221,283,224.4z"/>
							<path class="st25" d="M297,226.6c0.5,5,1,7.9-1.1,10.8c-3.2,4.4-9.6,3-11.6-1.8c-1.7-4.3-2.2-11.7,2.4-14.4
								C291.2,218.6,296.6,221.6,297,226.6z"/>
							<path class="st12" d="M299.1,228.1c0,0.1-0.1,0.1-0.2,0.2c-0.5,0.5-1,1-1.6,1.4c-0.2,0.2-0.4,0.3-0.7,0.5
								c-0.4-0.3-0.8-0.7-1.1-1.2c-0.7-1.1-1-2.5-1.2-3.6c-0.1-1-0.1-1.8-0.1-1.8c-0.1,0.1-0.2,0.1-0.3,0.1l0.3-2.2l0.1-1l1.2,0.2
								c0.9,1.3,1.7,2.7,2.3,4.2C298.4,226,298.8,227,299.1,228.1z"/>
							<path class="st25" d="M299.6,230.4L299.6,230.4c-0.2,1.3-1,2.4-1.9,3.1c-0.1,0-0.1,0.1-0.2,0.1v0c0,0-0.1,0.1-0.2,0.1
								c-0.1,0.1-0.2,0.1-0.3,0.1c-1.1,0.3-2-0.7-2.1-2c0-0.8,0.1-2,0.6-2.8c0.3-0.6,0.8-1,1.5-1.2c0,0,0,0,0.1,0
								c0.7-0.1,1.3,0.1,1.7,0.5c0.1,0.1,0.2,0.2,0.3,0.4v0C299.4,229.3,299.5,229.9,299.6,230.4z"/>
							<path class="st12" d="M289.7,229.1c0.1,0.4-0.1,0.8-0.4,0.8c-0.3,0-0.5-0.3-0.6-0.7c-0.1-0.4,0.1-0.8,0.4-0.8
								C289.4,228.4,289.7,228.7,289.7,229.1z"/>
							<path class="st12" d="M285.2,229.7c0.1,0.4-0.1,0.8-0.4,0.8c-0.3,0-0.5-0.3-0.6-0.7c-0.1-0.4,0.1-0.8,0.4-0.8
								C284.8,229,285.1,229.3,285.2,229.7z"/>
							<path class="st26" d="M286.7,229.7c0,0-0.6,2.4-1.5,3.6c0.8,0.5,2,0,2,0L286.7,229.7z"/>
							<path class="st12" d="M291.2,233.2c0.2,0,0.3,0,0.5,0.1c0.1,0,0.1,0.1,0.1,0.1c0,0.1-0.1,0.1-0.1,0.1
								c-1.8-0.3-2.8,0.8-2.8,0.8c0,0-0.1,0.1-0.2,0c0,0-0.1-0.1,0-0.2C288.8,234.1,289.7,233.1,291.2,233.2z"/>
							<path class="st12" d="M290.9,227.4c-0.1,0-0.2,0-0.2-0.1c-0.8-0.7-1.6-0.6-1.6-0.6c-0.1,0-0.3-0.1-0.3-0.2
								c0-0.1,0.1-0.3,0.2-0.3c0,0,1.1-0.2,2.1,0.7c0.1,0.1,0.1,0.2,0,0.3C291,227.4,291,227.4,290.9,227.4z"/>
							<path class="st12" d="M283,228.4c0,0-0.1,0-0.1,0c-0.1,0-0.2-0.2-0.2-0.3c0.4-1.3,1.5-1.6,1.5-1.6c0.1,0,0.3,0,0.3,0.2
								c0,0.1,0,0.3-0.2,0.3c0,0-0.9,0.2-1.2,1.3C283.1,228.4,283,228.4,283,228.4z"/>
							<path class="st12" d="M298,225h-2.1c0,0-0.1,0.1-0.4,0.2c-0.3,0.1-0.7,0.2-1.1,0.2c-0.3,0-0.7-0.1-1-0.3
								c-1.3-0.8-1.3-4.8-5.5-3.2c0,0-1.3-0.5-2.4,0.6c-0.3,0.3-0.5,0.8-0.7,1.5c-0.3,0.9-0.5,2-0.9,2.7c-0.2,0.4-0.5,0.7-0.8,0.8
								c-0.1,0-0.1,0-0.1,0c0,0-0.1,0-0.1,0c-0.1,0-0.3,0-0.4-0.1c-2.1-0.8-1.6-1.5-1.6-1.5s0.6,0.4,0.9,0.2c0,0-1-1.1-0.4-2.3
								c0,0,0.5,0.7,0.8,0.6c0,0-0.4-2.4,1.2-5.4c1.6-3,9.1-1.5,9.1-1.5s0,0,0.1-0.1c1.1,1,2.1,2.2,3,3.4
								C296.6,222.1,297.4,223.5,298,225z"/>
						</g>
						<path class="st19" d="M299.2,240.8c-0.2,0.9-0.5,1.8-0.9,2.7c-0.6,1.7-1.5,3.2-2.4,4.7c-0.4,0.6-0.8,1.1-1.2,1.6
							c-0.4,0.5-0.9,1-1.4,1.5c-3.4,3.4-7.8,5.4-12.6,5.4c-1,0-1.9-0.1-2.9-0.2c0.8-3.3,2.8-5.6,4.5-7c1.5-1.2,2.8-1.8,2.8-1.8
							l0.1-5.8c0,0,2.8-0.1,6.4-0.3c0.4,0,0.8-0.1,1.2-0.1c1.6-0.1,3.3-0.3,4.9-0.5C298.2,240.9,298.7,240.9,299.2,240.8z"/>
						<path class="st5" d="M292.3,229v0.1c0,0.7-0.5,1.2-1.2,1.3l-0.1,0l-7.4,0.6c-0.7,0-1.4-0.5-1.4-1.2v-0.1
							c0-0.3,0.1-0.7,0.4-0.9c0.2-0.2,0.5-0.4,0.8-0.4l7.6-0.6C291.6,227.8,292.2,228.3,292.3,229z"/>
						<path class="st8" d="M291.3,229.5L291.3,229.5c0,0.4-0.1,0.8-0.4,1l-7.4,0.6c-0.7,0-1.4-0.5-1.4-1.2v-0.1
							c0-0.3,0.1-0.7,0.4-0.9l7.4-0.6C290.6,228.2,291.2,228.7,291.3,229.5z"/>
						<path class="st12" d="M290.3,229.9l-7.2,0.5c-0.3,0-0.5-0.2-0.6-0.5l0,0c0-0.3,0.2-0.5,0.5-0.6l7.2-0.5c0.3,0,0.5,0.2,0.6,0.5
							l0,0C290.8,229.6,290.6,229.9,290.3,229.9z"/>
						<path class="st15" d="M295.9,248.2c-0.4,0.6-0.8,1.1-1.2,1.6c-0.4,0.5-0.9,1-1.4,1.5c-3.6,1.1-7.8,1.2-11-1.8
							c1.5-1.2,2.8-1.8,2.8-1.8s1.2,0.4,3.2,0.6C290.2,248.5,292.8,248.6,295.9,248.2z"/>
					</g>
					<path class="st9" d="M295.9,229.7c0,2.1-0.3,4.2-0.8,6.1c-0.2,0.9-0.5,1.8-0.9,2.7c-0.6,1.7-1.4,3.2-2.4,4.7
						c-0.4,0.6-0.8,1.1-1.2,1.6c-0.4,0.5-0.9,1-1.4,1.5c-3.4,3.4-7.8,5.4-12.6,5.4c-1,0-1.9-0.1-2.9-0.2c-3.3-0.6-6.4-2.1-9-4.4
						c-2.1-3.5-3.3-7.8-3.3-12.4c0-12.2,8.6-22.1,19.3-22.1c4.5,0,8.6,1.7,11.8,4.7c0.5,0.9,1,1.8,1.4,2.8c0.4,1,0.8,2,1.1,3.1
						c0.1,0.2,0.1,0.4,0.1,0.6v0c0.2,0.6,0.3,1.1,0.4,1.7v0C295.7,226.8,295.9,228.2,295.9,229.7z"/>
					<g>
						<path class="st9" d="M282.7,233.2c-3.8,6.5-10.6,9.6-15.4,6.8c-4.7-2.7-5.5-10.2-1.8-16.7c3.8-6.5,10.6-9.6,15.4-6.8
							S286.5,226.7,282.7,233.2z"/>
						<path class="st9" d="M286.4,239.2c-1,1.7-2.8,2.5-4.1,1.8c-1.3-0.7-1.5-2.7-0.5-4.5s2.8-2.5,4.1-1.8
							C287.2,235.5,287.4,237.5,286.4,239.2z"/>
					</g>
				</g>
			</g>
			<path class="st5" d="M290,163.8h43l-1.9-6.2c-0.7-2.2-2.7-3.8-5.1-3.8h-29.1c-2.3,0-4.4,1.5-5.1,3.8L290,163.8z"/>
			<g>
				<g>
					<path class="st12" d="M379.1,336.5h-4c-3,0-5.5-2.4-5.5-5.5v-5c0-0.8,0.7-1.5,1.5-1.5c0.8,0,1.5,0.7,1.5,1.5v5
						c0,1.4,1.1,2.5,2.5,2.5h4c0.8,0,1.5,0.7,1.5,1.5C380.6,335.8,380,336.5,379.1,336.5z"/>
				</g>
				<g class="st24">
					<path class="st19" d="M379.1,336.5h-4c-3,0-5.5-2.4-5.5-5.5v-5c0-0.8,0.7-1.5,1.5-1.5c0.8,0,1.5,0.7,1.5,1.5v5
						c0,1.4,1.1,2.5,2.5,2.5h4c0.8,0,1.5,0.7,1.5,1.5C380.6,335.8,380,336.5,379.1,336.5z"/>
				</g>
				<path class="st5" d="M358.9,328.7h24c1.5,0,2.7-1.2,2.7-2.7v-14.7c0-1.5-1.2-2.7-2.7-2.7h-24c-1.5,0-2.7,1.2-2.7,2.7V326
					C356.2,327.5,357.4,328.7,358.9,328.7z"/>
				<path class="st13" d="M364.6,328.7H383c1.5,0,2.7-1.2,2.7-2.7v-14.7c0-1.5-1.2-2.7-2.7-2.7h-18.4c-1.5,0-2.7,1.2-2.7,2.7V326
					C361.8,327.5,363,328.7,364.6,328.7z"/>
			</g>
			<g>
				<g>
					<path class="st12" d="M378.5,231.5h-40c-8,0-14.5-6.5-14.5-14.5c0-21.2-17.3-38.5-38.5-38.5c-0.8,0-1.5-0.7-1.5-1.5
						s0.7-1.5,1.5-1.5c22.9,0,41.5,18.6,41.5,41.5c0,6.3,5.2,11.5,11.5,11.5h40c0.8,0,1.5,0.7,1.5,1.5S379.3,231.5,378.5,231.5z"/>
				</g>
				<g>
					<path class="st12" d="M285.1,415.2c-0.8,0-1.5-0.7-1.5-1.5v-12.9c0-1.9,1.5-3.4,3.4-3.4c20.4,0,37-16.6,37-37V250.1
						c0-7.3,5.9-13.3,13.3-13.3h41.2c0.8,0,1.5,0.7,1.5,1.5c0,0.8-0.7,1.5-1.5,1.5h-41.2c-5.7,0-10.3,4.6-10.3,10.3v110.3
						c0,22.1-17.9,40-40,40c-0.2,0-0.4,0.2-0.4,0.4v12.9C286.6,414.5,285.9,415.2,285.1,415.2z"/>
				</g>
				<g>
					<path class="st12" d="M368.8,260.6c-0.8,0-1.5-0.7-1.5-1.5v-8.5c0-3,2.5-5.5,5.5-5.5h5.7c0.8,0,1.5,0.7,1.5,1.5
						c0,0.8-0.7,1.5-1.5,1.5h-5.7c-1.4,0-2.5,1.1-2.5,2.5v8.5C370.3,259.9,369.6,260.6,368.8,260.6z"/>
				</g>
				<g>
					<path class="st12" d="M346.7,347c-0.8,0-1.5-0.7-1.5-1.5v-19.1c0-5.1,4.1-9.2,9.2-9.2h4.1c0.8,0,1.5,0.7,1.5,1.5
						c0,0.8-0.7,1.5-1.5,1.5h-4.1c-3.4,0-6.2,2.8-6.2,6.2v19.1C348.2,346.3,347.5,347,346.7,347z"/>
				</g>
				<g>
					<path class="st12" d="M377.9,396h-17.1c-0.8,0-1.5-0.7-1.5-1.5c0-0.8,0.7-1.5,1.5-1.5h17.1c0.8,0,1.5,0.7,1.5,1.5
						C379.4,395.3,378.7,396,377.9,396z"/>
				</g>
				<g class="st27">
					<g>
						<path class="st19" d="M378.5,231.5h-40c-8,0-14.5-6.5-14.5-14.5c0-21.2-17.3-38.5-38.5-38.5c-0.8,0-1.5-0.7-1.5-1.5
							s0.7-1.5,1.5-1.5c22.9,0,41.5,18.6,41.5,41.5c0,6.3,5.2,11.5,11.5,11.5h40c0.8,0,1.5,0.7,1.5,1.5S379.3,231.5,378.5,231.5z"/>
					</g>
					<g>
						<path class="st19" d="M285.1,415.2c-0.8,0-1.5-0.7-1.5-1.5v-12.9c0-1.9,1.5-3.4,3.4-3.4c20.4,0,37-16.6,37-37V250.1
							c0-7.3,5.9-13.3,13.3-13.3h41.2c0.8,0,1.5,0.7,1.5,1.5c0,0.8-0.7,1.5-1.5,1.5h-41.2c-5.7,0-10.3,4.6-10.3,10.3v110.3
							c0,22.1-17.9,40-40,40c-0.2,0-0.4,0.2-0.4,0.4v12.9C286.6,414.5,285.9,415.2,285.1,415.2z"/>
					</g>
					<g>
						<path class="st19" d="M368.8,260.6c-0.8,0-1.5-0.7-1.5-1.5v-8.5c0-3,2.5-5.5,5.5-5.5h5.7c0.8,0,1.5,0.7,1.5,1.5
							c0,0.8-0.7,1.5-1.5,1.5h-5.7c-1.4,0-2.5,1.1-2.5,2.5v8.5C370.3,259.9,369.6,260.6,368.8,260.6z"/>
					</g>
					<g>
						<path class="st19" d="M346.7,347c-0.8,0-1.5-0.7-1.5-1.5v-19.1c0-5.1,4.1-9.2,9.2-9.2h4.1c0.8,0,1.5,0.7,1.5,1.5
							c0,0.8-0.7,1.5-1.5,1.5h-4.1c-3.4,0-6.2,2.8-6.2,6.2v19.1C348.2,346.3,347.5,347,346.7,347z"/>
					</g>
					<g>
						<path class="st19" d="M377.9,396h-17.1c-0.8,0-1.5-0.7-1.5-1.5c0-0.8,0.7-1.5,1.5-1.5h17.1c0.8,0,1.5,0.7,1.5,1.5
							C379.4,395.3,378.7,396,377.9,396z"/>
					</g>
				</g>
			</g>
			<g>
				<path class="st5" d="M330.5,413.7h32.4v-56c0-9-7.3-16.2-16.2-16.2l0,0c-9,0-16.2,7.3-16.2,16.2V413.7z"/>
				<path class="st9" d="M330.5,413.7h32.4v-56c0-9-7.3-16.2-16.2-16.2l0,0c-9,0-16.2,7.3-16.2,16.2V413.7z"/>
				<path class="st22" d="M362.9,357.7v56h-6v-56c0-7.9-5.7-14.5-13.2-15.9c1-0.2,2-0.3,3-0.3C355.6,341.5,362.9,348.7,362.9,357.7z
					"/>
			</g>
			<path class="st5" d="M400.4,417.7H210.7l0,0c0-3.4,2.7-6.1,6.1-6.1h177.5C397.7,411.7,400.4,414.4,400.4,417.7L400.4,417.7z"/>
			<path class="st9" d="M290,163.8h43l-1.9-6.2c-0.7-2.2-2.7-3.8-5.1-3.8h-29.1c-2.3,0-4.4,1.5-5.1,3.8L290,163.8z"/>
			<g>
				<g>
					<path class="st5" d="M400.4,260.9v40.1c0,2.1-1.7,3.8-3.8,3.8h-58c-2.1,0-3.8-1.7-3.8-3.8v-40.1c0-2.1,1.7-3.8,3.8-3.8h58
						C398.7,257,400.4,258.7,400.4,260.9z"/>
					<path class="st13" d="M400.4,260.9v40.1c0,2.1-1.7,3.8-3.8,3.8h-49.5c-2.1,0-3.8-1.7-3.8-3.8v-40.1c0-2.1,1.7-3.8,3.8-3.8h49.5
						C398.7,257,400.4,258.7,400.4,260.9z"/>
				</g>
				<g>
					<path class="st15" d="M392.3,299.7h-39.6c-2.3,0-4.2-1.9-4.2-4.2l0,0c0-2.3,1.9-4.2,4.2-4.2h39.6c2.3,0,4.2,1.9,4.2,4.2l0,0
						C396.6,297.8,394.7,299.7,392.3,299.7z"/>
					<path class="st15" d="M392.3,290h-39.6c-2.3,0-4.2-1.9-4.2-4.2l0,0c0-2.3,1.9-4.2,4.2-4.2h39.6c2.3,0,4.2,1.9,4.2,4.2l0,0
						C396.6,288.1,394.7,290,392.3,290z"/>
					<path class="st15" d="M392.3,280.3h-39.6c-2.3,0-4.2-1.9-4.2-4.2l0,0c0-2.3,1.9-4.2,4.2-4.2h39.6c2.3,0,4.2,1.9,4.2,4.2l0,0
						C396.6,278.4,394.7,280.3,392.3,280.3z"/>
					<path class="st15" d="M392.3,270.6h-39.6c-2.3,0-4.2-1.9-4.2-4.2v0c0-2.3,1.9-4.2,4.2-4.2h39.6c2.3,0,4.2,1.9,4.2,4.2v0
						C396.6,268.7,394.7,270.6,392.3,270.6z"/>
					<g>
						<g>
							<path class="st19" d="M362,263.1h-3.6v6.6h3.6c0.6-0.6,1.1-1.9,1.1-3.3C363.1,265,362.7,263.7,362,263.1z"/>
							<path class="st15" d="M358.5,263.1v6.6c0.6-0.6,1.1-1.9,1.1-3.3C359.6,265,359.1,263.7,358.5,263.1z"/>
						</g>
						<g>
							<path class="st19" d="M367.7,263.1h-3.6v6.6h3.6c0.6-0.6,1.1-1.9,1.1-3.3C368.8,265,368.3,263.7,367.7,263.1z"/>
							<path class="st15" d="M364.1,263.1v6.6c0.6-0.6,1.1-1.9,1.1-3.3C365.2,265,364.8,263.7,364.1,263.1z"/>
						</g>
						<g>
							<path class="st19" d="M373.3,263.1h-3.6v6.6h3.6c0.6-0.6,1.1-1.9,1.1-3.3C374.4,265,374,263.7,373.3,263.1z"/>
							<path class="st15" d="M369.8,263.1v6.6c0.6-0.6,1.1-1.9,1.1-3.3C370.9,265,370.4,263.7,369.8,263.1z"/>
						</g>
						<g>
							<path class="st19" d="M379,263.1h-3.6v6.6h3.6c0.6-0.6,1.1-1.9,1.1-3.3C380.1,265,379.6,263.7,379,263.1z"/>
							<path class="st15" d="M375.4,263.1v6.6c0.6-0.6,1.1-1.9,1.1-3.3C376.5,265,376,263.7,375.4,263.1z"/>
						</g>
					</g>
					<g>
						<g>
							<path class="st19" d="M362,272.8h-3.6v6.6h3.6c0.6-0.6,1.1-1.9,1.1-3.3C363.1,274.6,362.7,273.4,362,272.8z"/>
							<path class="st15" d="M358.5,272.8v6.6c0.6-0.6,1.1-1.9,1.1-3.3C359.6,274.6,359.1,273.4,358.5,272.8z"/>
						</g>
						<g>
							<path class="st19" d="M367.7,272.8h-3.6v6.6h3.6c0.6-0.6,1.1-1.9,1.1-3.3C368.8,274.6,368.3,273.4,367.7,272.8z"/>
							<path class="st15" d="M364.1,272.8v6.6c0.6-0.6,1.1-1.9,1.1-3.3C365.2,274.6,364.8,273.4,364.1,272.8z"/>
						</g>
					</g>
					<g>
						<g>
							<path class="st19" d="M362,282.5h-3.6v6.6h3.6c0.6-0.6,1.1-1.9,1.1-3.3C363.1,284.3,362.7,283.1,362,282.5z"/>
							<path class="st15" d="M358.5,282.5v6.6c0.6-0.6,1.1-1.9,1.1-3.3C359.6,284.3,359.1,283.1,358.5,282.5z"/>
						</g>
						<g>
							<path class="st19" d="M367.7,282.5h-3.6v6.6h3.6c0.6-0.6,1.1-1.9,1.1-3.3C368.8,284.3,368.3,283.1,367.7,282.5z"/>
							<path class="st15" d="M364.1,282.5v6.6c0.6-0.6,1.1-1.9,1.1-3.3C365.2,284.3,364.8,283.1,364.1,282.5z"/>
						</g>
					</g>
					<g>
						<g>
							<g>
								<path class="st19" d="M362,292.1h-3.6v6.6h3.6c0.6-0.6,1.1-1.9,1.1-3.3C363.1,294,362.7,292.7,362,292.1z"/>
							</g>
							<g class="st15">
								<path d="M358.5,292.1v6.6c0.6-0.6,1.1-1.9,1.1-3.3C359.6,294,359.1,292.7,358.5,292.1z"/>
							</g>
						</g>
						<g>
							<g>
								<path class="st19" d="M367.7,292.1h-3.6v6.6h3.6c0.6-0.6,1.1-1.9,1.1-3.3C368.8,294,368.3,292.7,367.7,292.1z"/>
							</g>
							<g class="st15">
								<path d="M364.1,292.1v6.6c0.6-0.6,1.1-1.9,1.1-3.3C365.2,294,364.8,292.7,364.1,292.1z"/>
							</g>
						</g>
						<g>
							<g>
								<path class="st19" d="M374.7,292.1h-3.6v6.6h3.6c0.6-0.6,1.1-1.9,1.1-3.3C375.8,294,375.4,292.7,374.7,292.1z"/>
							</g>
							<g class="st15">
								<path d="M371.2,292.1v6.6c0.6-0.6,1.1-1.9,1.1-3.3C372.3,294,371.8,292.7,371.2,292.1z"/>
							</g>
						</g>
						<g>
							<g>
								<path class="st19" d="M380.4,292.1h-3.6v6.6h3.6c0.6-0.6,1.1-1.9,1.1-3.3C381.5,294,381,292.7,380.4,292.1z"/>
							</g>
							<g class="st15">
								<path d="M376.8,292.1v6.6c0.6-0.6,1.1-1.9,1.1-3.3C377.9,294,377.5,292.7,376.8,292.1z"/>
							</g>
						</g>
						<g>
							<g>
								<path class="st19" d="M387.4,292.1h-3.6v6.6h3.6c0.6-0.6,1.1-1.9,1.1-3.3C388.5,294,388.1,292.7,387.4,292.1z"/>
							</g>
							<g class="st15">
								<path d="M383.9,292.1v6.6c0.6-0.6,1.1-1.9,1.1-3.3C385,294,384.5,292.7,383.9,292.1z"/>
							</g>
						</g>
						<g>
							<g>
								<path class="st19" d="M393.1,292.1h-3.6v6.6h3.6c0.6-0.6,1.1-1.9,1.1-3.3C394.2,294,393.7,292.7,393.1,292.1z"/>
							</g>
							<g class="st15">
								<path d="M389.5,292.1v6.6c0.6-0.6,1.1-1.9,1.1-3.3C390.6,294,390.2,292.7,389.5,292.1z"/>
							</g>
						</g>
						<g>
							<path class="st12" d="M369.4,294.8c0-0.2,0.2-0.4,0.4-0.4c0.2,0,0.4,0.2,0.4,0.4c0,0.2-0.2,0.4-0.4,0.4
								C369.6,295.1,369.4,295,369.4,294.8z M369.4,296.5c0-0.2,0.2-0.4,0.4-0.4c0.2,0,0.4,0.1,0.4,0.4c0,0.2-0.2,0.4-0.4,0.4
								C369.6,296.9,369.4,296.7,369.4,296.5z"/>
						</g>
						<g>
							<path class="st12" d="M382.2,294.8c0-0.2,0.2-0.4,0.4-0.4c0.2,0,0.4,0.2,0.4,0.4c0,0.2-0.2,0.4-0.4,0.4
								C382.3,295.1,382.2,295,382.2,294.8z M382.2,296.5c0-0.2,0.2-0.4,0.4-0.4c0.2,0,0.4,0.1,0.4,0.4c0,0.2-0.2,0.4-0.4,0.4
								C382.3,296.9,382.2,296.7,382.2,296.5z"/>
						</g>
					</g>
					<g>
						<path class="st12" d="M353.2,266.9v1.1h-0.6v-1.1l-1.3-2.1h0.6l0.9,1.6l0.9-1.6h0.6L353.2,266.9z"/>
					</g>
					<g>
						<path class="st12" d="M354.1,277.7l0-2.1l-1,1.7h-0.3l-1-1.7v2.1h-0.6v-3.2h0.5l1.3,2.1l1.2-2.1h0.5l0,3.2H354.1z"/>
					</g>
					<g>
						<path class="st12" d="M351.5,284.2h1.4c1,0,1.7,0.6,1.7,1.6c0,1-0.7,1.6-1.7,1.6h-1.4V284.2z M352.9,286.8
							c0.7,0,1.2-0.4,1.2-1.1c0-0.7-0.5-1.1-1.2-1.1h-0.8v2.2H352.9z"/>
					</g>
					<g>
						<path class="st12" d="M354.4,293.8v3.2h-0.6v-1.4h-1.6v1.4h-0.6v-3.2h0.6v1.3h1.6v-1.3H354.4z"/>
					</g>
					<text transform="matrix(1 0 0 1 360.0693 297.0142)" class="st12 st28 st29">0</text>
					<text transform="matrix(1 0 0 1 365.6655 297.0142)" class="st12 st28 st29">6</text>
					<text transform="matrix(1 0 0 1 359.8559 287.3413)" class="st12 st28 st29">2</text>
					<text transform="matrix(1 0 0 1 360.0693 277.6694)" class="st12 st28 st29">0</text>
					<text transform="matrix(1 0 0 1 359.8559 267.9956)" class="st12 st28 st29">2</text>
					<text transform="matrix(1 0 0 1 365.5673 267.9956)" class="st12 st28 st29">5</text>
					<text transform="matrix(1 0 0 1 371.3779 267.9956)" class="st12 st28 st29">8</text>
					<text transform="matrix(1 0 0 1 377.1235 267.9956)" class="st12 st28 st29">5</text>
					<text transform="matrix(1 0 0 1 365.7314 277.6685)" class="st12 st28 st29">8</text>
					<text transform="matrix(1 0 0 1 365.5722 287.3413)" class="st12 st28 st29">2</text>
					<text transform="matrix(1 0 0 1 372.8066 297.0142)" class="st12 st28 st29">5</text>
					<text transform="matrix(1 0 0 1 378.4516 297.0151)" class="st12 st28 st29">5</text>
					<text transform="matrix(1 0 0 1 385.6518 297.0142)" class="st12 st28 st29">2</text>
					<text transform="matrix(1 0 0 1 391.1738 297.0142)" class="st12 st28 st29">1</text>
				</g>
			</g>
		</g>
	</g>
</g>
<g id="Character">
	<g id="_x3C_Group_x3E__1_">
		<g>
			<path class="st12" d="M112,347.6l-0.4,18.2l-0.1,2.8l-0.4,8.9c0,0-3.4,3.8-3.9,4.5c-0.5,0.7-2.9,0.5-4.9,1.1
				c-1.9,0.6-1.7-3.2-3.3-4.6c-1.6-1.4-0.4-5.4,0-6.2c0.4-0.8-0.1-9.9,0.7-11.4c0.9-1.5,0.8-5.6,0.8-5.6l3.8-14.1l2.6-18.3l-0.1-3.5
				l-0.5-2.4l1.6-4.1l2.5,0.3l-0.6,4.3l0,1.8l-0.1,5.9v4.7l0,8.3L112,347.6z"/>
			<path class="st7" d="M112,347.6l-0.4,18.2l-0.1,2.8l-0.4,8.9c0,0-3.4,3.8-3.9,4.5c-0.5,0.7-2.9,0.5-4.9,1.1
				c-1.9,0.6-1.7-3.2-3.3-4.6c-1.6-1.4-0.4-5.4,0-6.2c0.4-0.8-0.1-9.9,0.7-11.4c0.9-1.5,0.8-5.6,0.8-5.6l3.8-14.1l2.6-18.3l-0.1-3.5
				l-0.5-2.4l1.6-4.1l2.5,0.3l-0.6,4.3l0,1.8l-0.1,5.9v4.7l0,8.3L112,347.6z"/>
			<path class="st20" d="M111.5,368.7l-0.4,8.9c0,0-3.4,3.8-3.9,4.5c-0.5,0.7-2.9,0.5-4.9,1.1c-1.9,0.6-1.7-3.2-3.3-4.6
				c-1.6-1.4-0.4-5.4,0-6.2c0.4-0.8-0.1-9.9,0.7-11.4c0.9-1.5,0.8-5.6,0.8-5.6l3.8-14.1l2.6-18.3l-0.1-3.5l-0.5-2.4l1.6-4.1
				l-0.8,4.6l2.7,1.8l-0.1,5.9v4.7c-1.5,1.6-3.7,4.9-3.7,4.9l-0.9,6.5l2-1.3l-3,4l-2.7,12.2l1.7,3.2l2-0.7l1-1.2l-1,2.4l-2.1,1.1
				l-1.6,1c0,0-0.9,3.1-0.9,3.8c0,0.7,0,5.2,0,5.2v2.7l3.6,1.3l2.5-2.7h2.4l-1.9,1.3l-0.8,2.4l0.8,1.9l3.1-2.1v-3.4L111.5,368.7z"/>
		</g>
		<path class="st30" d="M169.2,413.6h-5.5c0,0,9.8-39.6,9.8-41c0-0.7-8.2-6.8-16.4-12.7c-5.8-4.2-11.6-8.3-14.6-10.4c0,0,0,0,0,0
			c-1.3-0.9-2.1-1.5-2.1-1.5l1.6-1.5l10.6-10c0,0,5.4,3.7,11.6,9.1c7.6,6.5,16.4,15.6,18.6,23.8
			C186.9,384.4,169.2,413.6,169.2,413.6z"/>
		<path class="st20" d="M164.2,345.7c-1.7,4.6-4.2,10.5-7.1,14.3c-5.8-4.2-11.6-8.3-14.6-10.4c0,0,0,0,0,0c-0.2-1-0.4-1.9-0.5-2.9
			l10.6-10C152.5,336.6,157.9,340.3,164.2,345.7z"/>
		<path class="st30" d="M140.4,372.3c-1.2,9.4-9.5,41.4-9.5,41.4h-6.1c0,0,2.4-38.1,3.7-41.4c0.7-1.7-2.4-8.4-5-15.4
			c-2.5-6.5-4.5-13.3-2.7-16.2c0.9-1.5,2.5-2.6,4.3-3.2c5.2-2,12.5-0.9,12.5-0.9s0.3,2.1,0.8,5.2c0.7,4.8,1.6,12.1,2.1,18.7
			C140.6,365.2,140.7,369.5,140.4,372.3z"/>
		<path class="st20" d="M140.3,360.5c-1.9-0.3-4-0.7-4.9-1c-1.8-0.6-4.3-5.3-4.3-5.3s-3.9,2.6-6.3,2.8c-0.4,0.1-0.9,0-1.3-0.1
			c-2.5-6.5-4.5-13.3-2.7-16.2c0.9-1.5,2.5-2.6,4.3-3.2c3.9,0.7,8.4,2.1,12.5,4c0.3,0.1,0.5,0.2,0.8,0.4
			C138.9,346.6,139.8,353.9,140.3,360.5z"/>
		<path class="st12" d="M168,278.7c2.5,1.5,1.3,7,2,8.7c0.6,1.7,3.2,3,2.2,3.5c-1,0.5-2-1.2-2.2,0c-0.2,1.2,0.5,5,0,6.5
			c-0.5,1.5-1.5-0.2-1.7,1.7c-0.1,1.9-0.6,5.1-6.4,7c-5.8,1.9-20.2,4.6-23.1,0c-2.9-4.6-2.7-8.6-1.7-9.6c1-1-2,3.1-2.2,0.8
			c-0.1-2.2,1.3-0.7,2-3.7c0.7-3,2-4.4,2.4-4.3c0.4,0-2.4,0.7-1.3-0.8c1.1-1.6,3.4-0.6,4-2.3c0.6-1.7,1.1-7,4.7-7.2
			C150.5,278.7,168,278.7,168,278.7z"/>
		<g>
			<path class="st30" d="M158.3,296.9c3.5-0.3,7.1-0.7,10.6-1.2c1.8-0.3,3.5-0.6,5.2-0.9c1.7-0.3,3.4-0.7,4.8-1.3
				c0.7-0.2,1.4-0.5,1.9-0.8c0.1-0.1,0.3-0.1,0.3-0.2c0.1-0.1,0.2-0.2,0.1-0.1c-0.1,0.1-0.2,0.4-0.2,0.6c0,0.4,0.1,0-0.1-0.6
				c-0.2-0.5-0.6-1.2-1-1.9c-1.8-2.7-4.3-5.4-6.7-7.9l2.3-3c3.3,2,6.4,4.1,9.2,7.2c0.7,0.8,1.4,1.6,2,2.8c0.3,0.6,0.6,1.2,0.8,1.9
				c0.2,0.8,0.4,1.7,0.2,2.8c-0.2,1.1-0.8,2.2-1.5,3c-0.4,0.4-0.6,0.6-0.9,0.8c-0.3,0.2-0.5,0.4-0.8,0.6c-1.1,0.7-2,1.1-3,1.6
				c-3.9,1.6-7.6,2.3-11.4,3c-3.8,0.7-7.4,1.1-11.3,1.4L158.3,296.9z"/>
		</g>
		<path class="st20" d="M165.4,303.9c-2.2,0.3-4.3,0.5-6.5,0.6l-0.1-1.7c0.4-0.3,0.7-0.5,0.7-0.5S163.3,302.7,165.4,303.9z"/>
		<path class="st5" d="M136.3,290.5c0,0-9.4,2.8-10.2,3.7c-0.8,0.9,0.9,2,0.9,2s-5.9,8.3-5.6,8.2c0.3-0.1,1.1,0.6,1.1,0.6L120,311
			h0.6l-1.5,5.8l0.8,0.5c0,0-2.2,5.7,0,10.5C122.2,332.6,146.6,298,136.3,290.5z"/>
		<g>
			<path class="st30" d="M177.8,281.6l-3.3-6.8l-5.4,3.8c0,0,1.6,5.1,6,5.3L177.8,281.6z"/>
			<polygon class="st30" points="170.3,271.7 166.9,275.4 169.2,278.6 174.6,274.8 			"/>
		</g>
		<path class="st30" d="M168.4,410.7l-2.5-1.6c-0.2,0-1.4,1.5-1.5,1.7c-1.5,3.6-1.5,6-1.5,6c-0.1,0.4,0.2,0.8,0.6,0.9
			c0.1,0,0.1,0,0.2,0c2.1,0,3.6-0.2,6.3-0.2c1.6,0,6.6,0.2,8.8,0.2s2.5-2.2,1.6-2.4c-4.1-0.9-9.7-3-9.8-4.1
			C170.4,410.9,168.7,410.7,168.4,410.7z"/>
		<path class="st30" d="M166.3,296.1c-0.4,0.4-0.9,0.9-1.3,1.3c-16.6,17.8-17.6,35.7-17.6,35.7s-20.6,1.3-28.3-0.1
			c-0.3-9.9,1.6-17.6,4.3-23.6c1.8-4,3.9-7.2,6-9.7c0.6-0.7,1.2-1.3,1.7-1.9c4.3-4.5,8.2-6.2,8.2-6.2s1.1-0.1,2.7-0.1
			c0.9,0,1.9,0,3,0c0.7,0,1.5,0.1,2.2,0.1c3,0.2,7.7,1.2,10.9,1.9C162.3,294.5,166.3,296.1,166.3,296.1z"/>
		<path class="st5" d="M121.6,294.5"/>
		<path class="st20" d="M166.3,296.1c-0.4,0.4-0.9,0.9-1.3,1.3c-4.5,3.3-13.3,3.3-13.3,3.3l-1.6,1.6l-1-2.5
			c-1.5-0.9-2.8-2.1-3.9-3.4c-1.4-1.7-2.5-3.5-3.1-4.9c-0.2-0.4-0.3-0.7-0.5-1c1.1,0.2,2.3,0.5,3.5,1l0,0c0.7,0,1.5,0.1,2.2,0.1
			c3,0.2,7.7,1.2,10.9,1.9C162.3,294.5,166.3,296.1,166.3,296.1z"/>
		<g>
			<path class="st30" d="M156,297.1c2.4,2.3,5.6,2.3,8.1,0.9c1.6-0.9,2.9-2.4,3.5-4.3c0.1-0.2,0.1-0.5,0.2-0.8
				c0.9-4.8-0.7-15.9-5.4-14.6c-3.9,1.1-8,0.6-9.3,4.3c-0.4,1.1-0.5,2.2-0.4,3.4C153.1,291.4,153.2,294.5,156,297.1z"/>
			<path class="st12" d="M160.7,287.3c0,0.4,0.3,0.8,0.5,0.8c0.3,0,0.5-0.4,0.5-0.8c0-0.4-0.3-0.8-0.5-0.8
				C160.9,286.5,160.7,286.8,160.7,287.3z"/>
			<path class="st12" d="M165.6,287.1c0,0.4,0.3,0.8,0.5,0.8c0.3,0,0.5-0.4,0.5-0.8c0-0.4-0.3-0.8-0.5-0.8
				C165.8,286.3,165.6,286.6,165.6,287.1z"/>
			<path class="st12" d="M153.9,289.7c-0.5,0.2-1.2,2.2,0,3.3l0,0c-1,0.2-2-0.3-2.4-1.2c-0.2-0.4-0.4-1-0.7-1.8
				c-1.5-4.2-1.9-7-1.6-9.2l7-1.5l0.5,2.3c-0.7,0.5-1.1,1.4-0.7,2.3c0.9,1.9,0.1,5-1.3,6.4C154.7,290.3,154.6,289.4,153.9,289.7z"/>
			<path class="st30" d="M150.4,290.6c0.6,1.2,1.7,2.1,3,2.4c1.7,0.5,2.6-1,2.1-2.6c-0.4-1.4-1.8-3.5-3.5-3.2
				C150.3,287.3,149.7,289.1,150.4,290.6z"/>
			<path class="st12" d="M168.4,279.6c1.4-1-1.2-4.1-2.6-4.2c-1.4-0.1-3.9-1-5.6-2.6c-1.7-1.6-5-1.4-5.8,0.4c-0.8,1.7-1.3,2.2-3,2
				c-1.8-0.2-3.3-0.6-4.7,1.9c-1.4,2.5-0.1,4.7-1.8,5.4c-1.7,0.7-0.8,4.7,1.6,4.8c2.3,0.1-0.9,3.2-0.1,4.5c0.8,1.3,2.8,0.8,2.9,1.6
				c0.1,0.8-2.9,2.3-1.6,2.7c1.3,0.4,2.7,0.3,3-1.9c0.2-1.1,0.7-1.1,1.5-1.7c0.5-0.3,1-0.9,1.3-1.5c0.3-0.6,0.7-1.2,1-1.9
				c0.2-0.4,0.1-0.9,0.3-1.4c0.2-0.8,0.8-1.4,1-2.2c0.2-0.6,0.2-1.3,0.8-1.6c-0.1,0.5,0.1,0.9,0.2,1.4c0,0.5-0.1,0.9-0.2,1.4
				c-0.1,0.5-0.3,2,0.1,2.4c0.6,0.6,0.5-0.7,0.6-1c0.1-0.2,0.2-0.4,0.3-0.6c0-0.2,0-0.4,0-0.6c0-0.8,0.2-1.7,0.7-2.4
				c0.2-0.2,0.5-0.4,0.7-0.6c0.3-0.3,0.5-0.6,0.8-0.8c0.4-0.4,1.2-0.6,1.2-1.3c0.1-1.1,0.5-2.7,0.8-2.6c0.3,0.1,0.3,0.7,0.8,1.1
				c0.4,0.4-1.1,2.1-0.5,2.2c0.7,0.1,0.1-0.2,1.1-1.1c1-0.9,1.8-1.9,1.2-2.6c0,0,1.7,2,2.8,2c1,0,1,2.8,1.9,2.5
				C169.9,282.9,168.4,279.6,168.4,279.6z"/>
			<path class="st30" d="M164.7,288.3c4.2,0,6.4,2.4,6.4,4.8c0,3-4.5,8.5-12.5,5.7C151.2,296.1,155.7,288.3,164.7,288.3z"/>
			<path class="st31" d="M163.1,288.7c0.1-0.5,1.4,0,1.4,0l-0.2-1.6l1,1.6c0,0,0.9-0.9,1.4-0.5c0.5,0.4,0.1,1.5-1.4,1.6
				C164.1,290,163,289.3,163.1,288.7z"/>
			<path class="st32" d="M159.4,286.2c2-1.8,5.5-2.4,7.4-0.9"/>
			<path class="st12" d="M155.2,296.3c0,0-0.2-4.3,3.4-5.6c3.7-1.3,6.2-0.4,6.8-0.4c0.7,0,1.5-0.7,3.5-0.9c2-0.2,3,4.7,2.6,6
				c-0.4,1.3-0.4-0.6-0.9,0.6c-0.5,1.2-0.2,3-1.1,2.7c-0.9-0.2-1.7,0.6-2.2,1.3c-0.5,0.7-0.1,1-1.5,0.6c-1.4-0.4-0.8,1.7-2.8,1
				c-1.9-0.7-2.8-1.1-3.9-0.5c-1.1,0.6-1.6-0.8-2.5-1.7C155.8,298.6,154.9,298.6,155.2,296.3z"/>
			<path class="st30" d="M165.5,291.9c0,0-1.8,1.4-2.1,0.9c-0.3-0.5-1.4,0.2-2.2,0.8c-0.7,0.6-0.5,2.1,0.7,2.4
				c1.3,0.3,3.8-0.4,4.2-0.3c0.4,0.1,2.6,0.2,3.2-1.3s-0.5-1.4-1-1.6C167.8,292.6,166.7,291.6,165.5,291.9z"/>
			<g>
				<path class="st12" d="M169,293.6l-1.3,1.1c-0.2,0-0.3,0.1-0.5,0.1c-0.3,0.1-0.7,0.1-1,0.1c-3.6,0.4-5.5-0.5-3.5-1.3
					c0.3-0.1,0.6-0.2,0.9-0.3c0.3-0.1,0.6-0.1,1-0.1c0.9-0.1,1.9,0,2.7,0.1c0.3,0,0.5,0.1,0.8,0.1C168.6,293.6,169,293.6,169,293.6z
					"/>
				<path class="st19" d="M164.6,293.3v0.6h-1v-0.5C164,293.4,164.3,293.3,164.6,293.3z"/>
				<path class="st19" d="M167.2,294.9c-0.3,0.1-0.7,0.1-1,0.1c0-0.2,0-0.6,0-0.6h0.9L167.2,294.9z"/>
				<path class="st19" d="M168.1,293.5l-0.1,0.4h-0.6l-0.1-0.5C167.6,293.4,167.8,293.4,168.1,293.5z"/>
			</g>
		</g>
		<g>
			<path class="st30" d="M107.8,319l-3.7,6.6l6.2,2.3c0,0,3.2-4.2,0.9-8L107.8,319z"/>
			<polygon class="st30" points="104,330.9 109,331.5 110.3,327.8 104.1,325.6 			"/>
		</g>
		<path class="st20" d="M135.9,300.5c0,0-6.9,8.3-12.4,9c1.8-4,3.9-7.2,6-9.7C131.7,299.5,134,299.6,135.9,300.5z"/>
		<g>
			<path class="st30" d="M141.7,298.7c-3.4,1.2-6.9,2.4-10.3,3.5c-3.4,1.2-6.9,2.3-10.2,3.5c-0.6,0.1-1.7,1.1-2.7,2.3
				c-1,1.2-1.9,2.7-2.8,4.1c-1.8,3-3.4,6.2-4.9,9.4l-3.6-1.2c0.8-3.7,1.9-7.3,3.4-10.8c0.8-1.8,1.6-3.5,2.7-5.3
				c0.6-0.9,1.2-1.8,2-2.6l0.7-0.7c0.2-0.2,0.5-0.4,0.8-0.6c0.3-0.2,0.6-0.4,0.9-0.6c0.3-0.2,0.8-0.4,0.9-0.5
				c1.7-0.8,3.4-1.5,5.2-2.2c1.7-0.7,3.4-1.4,5.2-2c3.4-1.3,6.9-2.5,10.4-3.6L141.7,298.7z"/>
		</g>
		<path class="st5" d="M145.1,291.5c0,0-2.7-2.2-5.7-3c-3-0.8-1.3,0.9-1.3,0.9s-4.9,0.7-5.5,1c-0.7,0.3,1.6,2,1.6,2l-1.8,2.3
			l4.2-0.3c0,0-3.5,6.4-4.2,7.8c-0.7,1.4,2.4,1.2,2.4,1.2l-4.7,4.6l2.5,2l-2.9,7.1h1.9l-5.7,10.6c0,0,2.7,4.7,3.8,4.5
			c1.1-0.3,15.2-2.4,15.2-2.4s2.1,0.4,1.1-1.3c-0.9-1.7-2.1-8.4-2.3-9.5c-0.3-1.1,1-0.4,1-0.8c0-0.4-2.1-5.6-2.1-5.6
			s1.2-0.2,1.2-0.5c0-0.3-1.2-8.7-1.2-8.7s2.5,3.1,2.4,2.3c-0.1-0.9-1.2-7.6-1.2-7.6l0.8,1.8C144.7,299.9,145.9,293.5,145.1,291.5z"
			/>
		<path class="st5" d="M139.6,329.6c0,0,3.4-4.9,6.7-5.4c3.2-0.5-0.9,2.7-0.9,2.7l6.2-2.7l-1.4,2.7l2.4,0c0,0-3.4,1.4-4.6,3.2
			c0,0,10.7,8.2,14.4,12.2s-1.2,1-1.2,1l-0.4,4.8l-4.1-3.2l-0.9,7.5l-4-2.2l-2.5,9.4l-8.3-3.2l-5.8,2.4l-3.8-6.3l-5.7,2.5l-4-4.9
			l-2.4,3.5c0,0-4.7-16.1,0-23.6l-2-5.6l3.5,2.7v-1.5c0,0,2,0.6,3.8,2.6c0,0,0.4-4.6,1.7-6.1c0,0,1.7,3.4,1.4,5.9
			c0,0,1.8-3.8,3.8-2.4c2,1.4,3.6,3.2,3.6,3.2v-3C135,325.6,139.3,326.7,139.6,329.6z"/>
		<path class="st13" d="M144.7,299.9c0,0,1.2-6.4,0.4-8.4c0,0-2.7-2.2-5.7-3c-3-0.8-1.3,0.9-1.3,0.9s-4.9,0.7-5.5,1
			c-0.7,0.3,1.6,2,1.6,2l-1.7,2.3l4.2-0.3c0,0-3.5,6.4-4.2,7.8c-0.7,1.4,2.4,1.2,2.4,1.2l-4.7,4.6l2.5,2l-2.9,7h1.9l-2.3,4.3
			c0.7,1.3,1.3,2.5,1.3,2.5s0.3-2,0.8-2.1c0.5-0.1,1.2,2.1,1.2,2.1s0.2-2.4,3.4-1.5c3.2,0.9,4,3.1,4,3.1s2.4-2.3,4.2-3.3
			c-0.3-1.5-0.6-2.9-0.7-3.3c-0.3-1.1,1-0.4,1-0.8c0-0.4-2.1-5.6-2.1-5.6s1.2-0.2,1.2-0.5c0-0.3-1.2-8.7-1.2-8.7s2.6,3.1,2.4,2.3
			c-0.1-0.9-1.2-7.6-1.2-7.6L144.7,299.9z M141.2,303.1c0,0.3,0,0.5-0.1,0.8c-0.1,0.2-0.3,0.4-0.6,0.4c-0.2,0-0.4-0.2-0.6-0.3
			c-0.2-0.2-0.4-0.4-0.7-0.6c-0.1-0.1-0.3-0.3-0.4-0.4c-0.1-0.2-0.1-0.4,0-0.5c0.1-0.1,0.3-0.2,0.5-0.3c0.2-0.1,0.3-0.2,0.3-0.4
			l0.1,0.2c-0.1-0.5,0.1-1,0.4-1.3c0.3,0.3,0.3,0.7,0.3,1.1c0,0.4,0.1,0.8,0.4,1c0.1,0,0.1,0.1,0.2,0.1
			C141.2,302.8,141.2,302.9,141.2,303.1z M137.5,313.2c-0.1,0.2-1.2-1.1-1.2-1.1s-0.6,1.2-1.3,0c-0.8-1.2,1.3-2.9,1.3-2.9
			s0.9-1.4,1.2-1.3c0.3,0.1-0.2,1.7,0,2.7c0.2,1,0.8-0.3,0.8-0.3S137.6,313,137.5,313.2z M138.6,290.8c0.5-0.5,2-0.9,2.3,0
			c0.1,0.2,0.1,0.5,0.1,0.8c0,0.1,0,0.3-0.1,0.4c-0.1,0.1-0.3,0.2-0.4,0c0-0.1,0-0.3-0.1-0.4c-0.3,0.1-0.6,0.4-0.9,0.6
			c-0.3,0.2-0.7,0.4-1,0.2c0-0.4,0.1-0.7,0.3-1c0.1-0.1,0.1-0.1,0.1-0.2C139.1,291,138.8,290.9,138.6,290.8z M141.6,321
			c-0.1,0.3-0.1,0.7-0.2,1c0,0.1,0,0.2-0.1,0.3c-0.1,0.2-0.4,0.3-0.6,0.2c-0.2-0.1-0.4-0.3-0.4-0.6c0,0.2,0,0.4,0,0.6
			c-0.4,0.1-0.9-0.1-1.1-0.4c-0.3-0.3-0.4-0.8-0.4-1.2c-0.1-1.2,1.1-1,1.4-2c0.3,0.2,0.4,0.6,0.5,0.9c0.1,0.3,0.3,0.7,0.6,0.8
			c0.1,0,0.1,0,0.2,0.1C141.6,320.8,141.6,320.9,141.6,321z"/>
		<path class="st13" d="M162.3,342.2c-0.3-0.4-0.7-0.8-1.2-1.2c-0.7,0.6-3.2-0.8-2.6-1.8c0.2,0.1,0.4,0.3,0.6,0.4
			c0-0.2-0.1-0.4-0.1-0.6c-1.8-1.6-3.9-3.3-5.8-4.8c-0.4,0.1-0.9,0.2-1.1-0.1c-0.1-0.1-0.2-0.4-0.3-0.5c-0.1-0.1-0.4-0.2-0.5,0
			c0,0.1,0,0.1-0.1,0.2c-0.1,0.1-0.2,0.1-0.3,0c-0.1-0.1-0.2-0.2-0.2-0.3c-0.3-0.5-0.9-0.8-1.1-1.4c-0.1-0.2-0.1-0.5,0-0.8
			c-1-0.8-1.6-1.3-1.6-1.3c1.2-1.8,4.6-3.2,4.6-3.2l-2.4,0l1.4-2.7l-6.2,2.7c0,0,4.2-3.2,0.9-2.7c-3.2,0.5-6.7,5.4-6.7,5.4
			c-0.3-2.9-4.6-4-4.6-4v3c0,0-1.6-1.8-3.6-3.2c-2-1.4-3.8,2.4-3.8,2.4c0.3-2.4-1.4-5.9-1.4-5.9c-1.3,1.4-1.7,6.1-1.7,6.1
			c-1.8-2-3.8-2.6-3.8-2.6v1.5l-3.5-2.7l2,5.6c-4.7,7.5,0,23.6,0,23.6l2.4-3.5l4,4.9l5.7-2.5l3.8,6.3l5.8-2.4l8.3,3.2l2.5-9.4l4,2.2
			l0.9-7.5l4.1,3.2l0.4-4.8C161.1,343.3,166,346.3,162.3,342.2z M121,347.2c0,0.3-0.1,0.5-0.2,0.7c-0.1,0.2-0.4,0.4-0.6,0.3
			c-0.3,0-0.5-0.3-0.6-0.6c-0.3-0.6-0.7-1.7-0.6-2.4c0.1-0.5,0.2-0.4,0.5-0.6c0.3-0.3,0.5-0.6,0.8-1c0.2,0,0.2,0.2,0.2,0.4
			c0,0.3,0,0.5,0,0.8c0,0.2,0,0.3,0.1,0.5c0.1,0.1,0.3,0.2,0.4,0C121,346,121,346.6,121,347.2z M124.7,337.8c-0.3-0.2-0.6-0.6-0.7-1
			c0-0.2-0.1-0.4-0.3-0.4c-0.2,0-0.3,0.3-0.5,0.3c-0.4-0.1-0.2-3.5,0.6-3.2c0.2,0.1,0.2,0.3,0.2,0.5c0,0.2,0.1,0.5,0.3,0.4
			c-0.1-0.1,0.2-0.3,0.3-0.2c0.1,0.1,0.1,0.3,0.1,0.4C124.9,335.7,124.9,336.8,124.7,337.8z M135.3,346c-0.5,0.1-1.1-0.2-1.4-0.6
			c0,0.2,0,0.4,0,0.6c-0.5,0.1-1-0.1-1.2-0.5c-0.1-0.2-0.1-0.4-0.2-0.6c-0.1-0.2-0.3-0.3-0.5-0.2c0,0-0.1,0.1-0.1,0.2
			c-0.1,0.1-0.2,0-0.3-0.1c-0.1-0.1-0.1-0.2-0.1-0.3c-0.1-0.6-0.5-1.1-0.5-1.7c0-0.4,0.5-1.5,1.1-1.3c0.1,0,0.2,0.1,0.2,0.2
			c0.3,0.3,0.5,0.6,0.7,0.9c0.1,0.1,0.2,0.3,0.3,0.2c0.1,0,0.1,0,0.1-0.1c0.3-0.2,0.5-0.5,0.6-0.8c0.3,0.6,0.6,1.1,0.9,1.7
			c0.1,0.2,0.2,0.3,0.2,0.5C135.4,344.7,135.3,345.4,135.3,346z M138.9,334.4c-0.4-0.6-0.3-1.2,0.3-1.2c0.1,0,1,0.1,1.1,0.1
			c0.4,0.1,0.6,0.5,0.8,0.8c0.2,0.4,0.4,0.8,0.9,1c0.1,0,0.2,0,0.2,0.1c0,0.1,0,0.1,0,0.2c0,0.3,0,0.6,0,0.9c0,0.1,0,0.2,0,0.2
			c0,0.1-0.1,0.1-0.2,0.1c-0.9,0.4-1.4-0.2-1.8-0.8C139.9,335.2,139.3,334.9,138.9,334.4z M144.5,354c0,0.1-0.1,0.1-0.2,0.1
			c-0.4,0.1-0.9,0-1.2-0.3c-0.3-0.3-0.5-0.7-0.5-1.1c-0.1,2.1-3.4-0.9-2.3-1.9c0.1,0.2,0.3,0.4,0.4,0.6c0.1-0.6,0.1-1.3,0.1-1.9
			c0.4,0.4,0.7,0.8,1.1,1.3c0.1,0,0.2-0.1,0.2-0.2c0-0.1,0-0.2,0-0.3c0.1-0.1,0.2-0.2,0.4-0.1c0.1,0,0.3,0.1,0.4,0.2
			c0.3,0.3,0.6,0.5,1,0.8c0.1,0.1,0.3,0.2,0.3,0.4c0.1,0.2,0.1,0.4,0.1,0.6c0,0.6,0.1,1.1,0.1,1.7C144.6,353.9,144.6,354,144.5,354z
			 M153.6,343.9c0,0,0,0.1,0,0.1c0,0-0.1,0-0.1,0c-1.5,0.1-2.7-0.7-3.3-2c0.2-0.1,0.5,0,0.7,0.1c0.1-0.5,0-1-0.3-1.5
			c0.5-0.1,0.9,0.6,1.5,0.7c0.1,0,0.3,0,0.4,0c0.1,0,0.2,0.1,0.3,0.2C153.4,342.2,153.7,343.1,153.6,343.9z"/>
		<path class="st30" d="M129.2,410.7l-2.5-1.6c-0.2,0-1.4,1.5-1.5,1.7c-1.5,3.6-1.5,6-1.5,6c-0.1,0.4,0.2,0.8,0.6,0.9
			c0.1,0,0.1,0,0.2,0c2.1,0,3.6-0.2,6.3-0.2c1.6,0,6.6,0.2,8.8,0.2c2.3,0,2.5-2.2,1.6-2.4c-4.1-0.9-9.7-3-9.8-4.1
			C131.2,410.9,129.6,410.7,129.2,410.7z"/>
	</g>
</g>
</svg>
