<?xml version="1.0" encoding="utf-8"?>
<!-- Generator: Adobe Illustrator 22.0.0, SVG Export Plug-In . SVG Version: 6.00 Build 0)  -->
<svg version="1.1" xmlns="http://www.w3.org/2000/svg" xmlns:xlink="http://www.w3.org/1999/xlink" x="0px" y="0px"
	 viewBox="0 0 750 500" style="enable-background:new 0 0 750 500;" xml:space="preserve">
<style type="text/css">
	.st0{display:none;}
	.st1{display:inline;fill:#F5F5F5;}
	.st2{opacity:0.21;}
	.st3{fill:#94BEFF;}
	.st4{fill:#2136AE;}
	.st5{fill:#4472FF;}
	.st6{fill:#5E9FFF;}
	.st7{fill:#CCD5D8;}
	.st8{fill:#FFFFFF;}
	.st9{fill:#1F35C0;}
	.st10{opacity:0.62;clip-path:url(#SVGID_2_);fill:#1F35C0;}
	.st11{clip-path:url(#SVGID_2_);}
	.st12{fill:#080B7B;}
	.st13{clip-path:url(#SVGID_4_);}
	.st14{fill:#E39B68;}
	.st15{fill:#212057;}
	.st16{opacity:0.64;fill-rule:evenodd;clip-rule:evenodd;fill:#E39B68;}
	.st17{opacity:0.58;fill:#E39B68;}
	.st18{opacity:0.95;fill:#212057;}
	.st19{fill-rule:evenodd;clip-rule:evenodd;fill:#E39B68;}
	.st20{fill:none;stroke:#1F35C0;stroke-width:2.6486;stroke-miterlimit:10;}
	.st21{fill:none;stroke:#94BEFF;stroke-width:0.8424;stroke-miterlimit:10;}
</style>
<g id="BACKGROUND" class="st0">
	<rect class="st1" width="750" height="500"/>
</g>
<g id="OBJECTS">
	<g class="st2">
		<path class="st3" d="M641.5,119.8C605.2,73.6,531,48.3,469.1,67.5c-95,29.4-127.5,141.1-224.4,165.7
			c-41.7,10.6-89.6,2.8-127.5,20.9c-39,18.6-57.8,61.2-31.9,93.9c14.6,18.5,38,30.6,61.7,40.4c143.1,58.9,359.2,51.7,465.3-58
			C666.8,273.9,691.7,183.7,641.5,119.8z"/>
	</g>
	<g>
		<g>
			<path class="st4" d="M86.4,221.3c-0.4-0.9-0.8-1.8-1.2-2.7c0.1-0.1,0.2-0.2,0.3-0.3c0.7,0.3,1.4,0.7,2.1,1
				c1.2,1.6,2.4,3.1,3.5,4.8c3.4,5.1,6.7,10.3,10.2,15.4c3.9,5.7,7.5,11.7,11.1,17.6c4.4,7.2,8.4,14.6,14.1,20.9
				c2.9,3.2,5.6,6.8,9.3,9.2c0.9,0.9,1,2.2,1.6,3.3c-3.5-1.6-6.1-4.4-8.8-7c-6-6-10.5-13.1-14.8-20.4c-3.7-6.2-7.3-12.4-11.3-18.4
				c-2.7-4.1-5.3-8.4-8.2-12.4C91.5,228.7,89.3,224.7,86.4,221.3z"/>
			<path class="st5" d="M86.4,221.3c3,3.4,5.2,7.3,7.8,11c2.9,4,5.5,8.3,8.2,12.4c4,6,7.6,12.2,11.3,18.4
				c4.3,7.3,8.9,14.4,14.8,20.4c2.6,2.7,5.2,5.5,8.8,7c2.5,2,4.4,4.7,7.3,6.7c-1.8-4.5-2.8-8.8-3.4-13.3c-0.9-5.9,0.9-11.2,2.6-16.7
				c2.3-7.6,3.5-15.4,2.8-23.3c0-0.3,0.1-0.5,0.2-0.8c2.1,4.6,2.5,9.6,2.8,14.6c0.4,7-1,13.8-1.4,20.7c0,0.7-0.3,1.6,0.7,1.7
				c0.9,0.1,1.1-0.8,1.2-1.5c0.2-1.5,0.2-3,0.4-4.4c1.4-11.1,2.2-22.1-2-32.9c4.3,4.2,5.8,9.7,7.5,15.1c3.1,9.7,2.8,19.6,1.2,29.6
				c-1,6-2,12-5,17.4c-0.5,0.9-0.1,1.4,0.4,1.8c4.9,4,10.1,7.5,15.9,11.1c-1.1-3.1-2-5.7-2.9-8.3c-2.4-7.1-1.5-14.3-0.1-21.5
				c1.8-9.1,5.3-17.6,7.9-26.5c0.8,1.2,0.8,2.5,1.1,3.8c1.6,9,0.4,17.8-1.6,26.6c-0.8,3.4-1.7,6.9-1.8,10.4c0,0.7-0.1,1.6,1,1.5
				c0.9,0,0.8-0.9,0.8-1.4c0.4-3.8,1.3-7.5,2.1-11.2c1.6-7.3,2.6-14.7,1.9-22.3c-0.3-3.9-1.4-7.7-2.1-11.5c2.8,4.1,4.2,8.9,5.3,13.7
				c1.6,7,2.7,14.1,1.8,21.3c-1.2,9-3.7,17.8-7.6,26.1c-0.8,1.7-0.8,2.6,1.1,3.6c5.8,3.2,11.6,6.4,17.5,9.5c0.4,0.2,0.8,0.3,1.7,0.6
				c-2.4-3.6-3.7-7.2-4.6-11c-1.4-5.6,0.3-10.9,1.2-16.3c1.2-7.1,3.7-13.9,6-20.7c0.7-2,0.8-4.2,1.8-6.2c0.6,1.6,0.5,3.3,0.5,5
				c-0.2,7.3-1.7,14.4-3.4,21.4c-0.8,3.5-1.5,7-1.5,10.6c0,0.6-0.1,1.4,0.8,1.4c0.8,0,0.8-0.7,0.9-1.4c0.2-2,0.3-3.9,0.7-5.9
				c1.3-7.2,3.5-14.2,4-21.5c0.2-2.2-0.1-4.5,0.5-6.7c1.6,2.5,2,5.4,2.7,8.2c1.6,6.5,2.5,13.1,1.6,19.8c-0.8,5.7-2.1,11.3-3.3,16.9
				c-0.6,2.9-0.7,5.9-1.9,8.6c-0.5,1.1,0.7,1.1,1.1,1.3c5.6,2.7,11.3,5.3,17,7.9c0.7,0.3,1.5,0.7,2.8,1.2c-1.8-2.9-2.6-5.7-3-8.7
				c-1.1-9,0.3-17.7,3.3-26.1c0.8-2.4,1.6-4.8,2.3-7.2c0.5,0,0.5,0.4,0.5,0.8c0,3.1,0.1,6.2-0.4,9.3c-0.8,5.2-0.9,10.4-1.3,15.6
				c-0.2,3.4,0.1,6.8,0.8,10.1c0.1,0.7,0,1.9,1.1,1.7c1.1-0.2,0.6-1.2,0.5-1.9c-0.5-4.1-0.9-8.1-0.5-12.2c0.5-6.4,1.2-12.8,1.5-19.2
				c0.2-3.8,0.2-7.7-0.9-11.5l0,0c0.2-0.2,0.2-0.4,0-0.6c0.2-1.8,0.4-3.6,0.6-5.8c2.5,3.4,4,6.9,5,10.6c2.5,9.1,3.9,18.4,4,27.9
				c0.1,6.7-2,12.6-6.5,17.7c-0.6,0.7-1.1,1.4-1.7,2.2c6,2.6,11.7,5.9,17.3,9.2c0-0.1,0.2-0.2,0.1-0.2c-3.3-6-1-12.1-0.1-18.1
				c0.5-3,0.8-6.1,1.7-9.1c0.6,0.1,0.5,0.6,0.5,1c0.1,4.7,0,9.5-0.3,14.2c-0.2,3,0.1,5.9,0.8,8.8c0.2,0.7,0.3,1.6,1.2,1.4
				c1.1-0.1,0.8-1,0.6-1.7c-1-4-0.9-8-0.5-12c0.4-4.5,0.2-9,0.1-13.5c-0.1-7.6-1.3-15.1-2.7-22.5c2.5,1.6,3,4.4,4,6.9
				c3.3,8.3,3.7,16.9,1.9,25.6c-1.6,7.9-1.7,15.9,0,23.7c0.7,3-1.1,3.8-2.2,5.3c-3.1,4.2-7.5,7-11.8,9.8c-5.4,3.5-11.1,6.7-17.2,8.7
				c-8.1,2.7-16.6,3.6-25,4c-6,0.3-11.9,0.4-17.9,0.6c-0.5,0-1.1,0.3-1.5-0.4c0.3-0.2,0.5-0.5,0.9-0.6c10.6-3.3,21.1-7.1,32-9.4
				c2.5-0.5,5.1-1,7.6-1.6c0.7-0.1,1.5-0.5,1.2-1.4c-0.2-0.8-1-0.5-1.6-0.4c-3.3,0.7-6.6,1.3-9.9,2c-10.2,2.2-19.9,5.9-29.9,8.8
				c3.8-3.9,8.8-5.8,13.5-8.2c11.2-5.8,23.3-8.7,35.4-11.6c7.5-1.8,15-3.5,22.7-5.2c-1.3-1.4-2.9-2.3-4.4-3.3
				c-5.2-3.1-10.5-6.2-16.1-8.7c-0.8-0.4-1.4-0.6-2.2,0.2c-8.7,8.8-19.7,12.7-31.5,15.2c-8.7,1.9-17.5,3-26.1,5.3
				c2.8-2.3,6.1-3.7,9.1-5.6c4.2-2.7,8.2-5.6,12.7-7.8c8.6-4.4,17.9-6.1,27.5-6.3c0.7,0,1.4,0.1,1.4-0.7c0-0.7-0.6-1.1-1.3-1.1
				c-0.8,0-1.7-0.2-2.5-0.1c-14,0.7-26.5,5.5-37.8,13.7c-4.5,3.3-9.5,5.9-14.5,8.3c-0.3-1,0.4-1.5,1.1-2.1
				c15.1-13.2,32.6-20.9,52.6-22.5c0.5,0,1,0,1.5,0c0.5,0,1,0,1.6-0.4c-1.9-0.9-3.7-1.8-5.6-2.6c-3.9-1.8-7.8-3.7-11.7-5.5
				c-1.5-0.7-2.9-0.7-4.5,0.1c-11,4.9-21.9,10.3-33.4,14.1c-7.6,2.5-15.5,3.7-23.4,5.1c-3,0.5-5.9,1.5-8.9,1.7
				c0.7-0.6,1.4-1.2,2.2-1.7c11.7-6.6,24.3-11.2,37.3-14.5c2.7-0.7,5.5-1.3,8.2-1.9c0.7-0.2,1.6-0.2,1.4-1.2
				c-0.2-0.9-1.1-0.7-1.8-0.6c-0.1,0-0.3,0.1-0.4,0.1c-10.8,2-21.2,5.3-31.4,9.4c-5.4,2.2-10.4,5-15.6,7.5
				c11.7-9.7,24.7-16.6,39.8-19c7-1.1,14-2.7,21.2-3.6c-1.7-0.9-3.5-1.7-5.2-2.7c-4.3-2.3-8.7-4.7-12.9-7.1c-1-0.6-1.6-0.5-2.3,0.3
				c-4.5,5.4-10.2,9.4-16.4,12.5c-11.9,5.8-24.5,6.4-37.3,4.9c-4.9-0.6-9.8-1.1-14.6-2.1c0.1-0.8,0.8-0.7,1.3-0.7
				c12.2-1.3,24.3-3.5,36.4-5.7c3-0.5,5.9-1.2,8.9-1.8c0.6-0.1,1.2-0.4,1-1.1c-0.2-0.7-0.8-0.6-1.4-0.5c-1.1,0.2-2.2,0.4-3.3,0.6
				c-12.1,2.5-24.3,4.4-36.6,6.1c-0.5,0.1-1.5,0.9-1.9-0.3c19.5-7.8,39.2-14.6,60.9-14.9c-2-1.8-4-2.7-5.8-3.9
				c-4.2-2.7-8.2-5.7-12.2-8.8c-0.6-0.5-1.1-0.8-2-0.3c-5.9,2.8-12.2,3.9-18.6,4.4c-9.7,0.7-18.7-2.5-27.7-5.2
				c-5.5-1.6-10.6-4.3-16.2-5.5c-2.4-0.5-4.8-1.1-7.1-1.6c0.1-1,0.9-0.8,1.4-1c0.2,0,0.4,0,0.6,0.1l0,0c3.8,0.8,7.5,1.6,11.3,2.5
				c12.1,3,24.4,5.4,36.9,5.9c0.8,0,2,0.3,2.1-0.8c0.1-1.3-1.2-0.9-1.9-1c-4.6-0.5-9.2-0.8-13.7-1.3c-8.3-1-16.3-3.2-24.4-4.9
				c-1-0.2-2.5,0.2-3-1.2c5.6-0.7,11.1-0.2,16.7-0.2c11.2-0.1,21.9,3.1,32.5,6.1c2.8,0.8,5.7,1,8.7,1.1c-7.4-6.6-14.6-13-22.7-18.3
				c-6.3-4.2-12-9.2-16.7-15.3c-6.3-8.2-10.6-17.6-14.2-27.3c-2.4-6.6-4.5-13.3-6.3-20.1C86.3,222.2,86.4,221.8,86.4,221.3z
				 M242.3,366.4c0.3-0.6,1.1-0.8,0.6-1.5c-0.5-0.6-1.1-0.3-1.7,0c-4.6,2.1-9.4,4-14.2,5.6c-0.7,0.2-1.7,0.5-1.4,1.5
				c0.3,1,1.3,0.6,2,0.4c2.6-0.9,5.2-1.8,7.7-2.8C237.7,368.5,240,367.4,242.3,366.4z M148.5,287.1c-0.4-0.5-0.7-0.7-1.2-0.6
				c-0.4,0.1-0.5,0.5-0.5,0.8c0,0.6,0.1,1.3,0.1,1.9c0.2,2.1,0.3,4.2,0.5,6.3c0.1,0.8,0.4,1.2,1.2,1.1c0.8-0.1,0.7-0.8,0.6-1.3
				c-0.1-1.3-0.1-2.5-0.3-3.8C148.8,290,148.9,288.4,148.5,287.1z M166,322.1c-0.2,0-0.5-0.2-0.7-0.1c-2.4,0.9-4.8,1.8-7.2,2.7
				c-0.4,0.2-0.6,0.6-0.4,1.1c0.2,0.6,0.7,0.6,1.2,0.5c2.3-0.6,4.5-1.4,6.7-2.5C166.2,323.5,166.5,322.9,166,322.1z M196.4,321.2
				c-0.4-0.4-0.6-0.8-1.1-0.6c-0.4,0.2-0.7,0.5-0.7,1c0.4,2.3,0.8,4.7,1.2,7c0.1,0.6,0.4,0.9,1,0.8c0.7-0.1,0.8-0.6,0.7-1.1
				c-0.1-1.5-0.4-2.9-0.6-4.3C196.8,323,196.9,322,196.4,321.2z M172.3,305.5c-0.5-0.4-1-0.2-1.3,0.3c-0.5,0.6-0.1,5.6,0.4,6.2
				c0.4,0.5,0.8,0.5,1.2,0.1C173,311.6,172.7,306,172.3,305.5z M190,336.9c0.3-0.3,0.4-0.6,0.2-1c-0.2-0.6-0.8-0.6-1.2-0.5
				c-1.5,0.3-3,0.6-4.5,1c-0.4,0.1-0.7,0.4-0.8,0.9c0,0.4,0.2,0.6,0.5,0.8C184.9,338.3,189.5,337.3,190,336.9z M139.1,304.2
				c-0.5-0.5-3.4-0.5-3.8,0c-0.4,0.4-0.4,0.9,0.1,1.3c0.5,0.5,3.3,0.3,3.8-0.2C139.4,305,139.4,304.6,139.1,304.2z"/>
			<path class="st5" d="M135.7,287.3c-3.7-2.4-6.3-6-9.3-9.2c-5.7-6.3-9.7-13.7-14.1-20.9c-3.6-5.9-7.1-11.9-11.1-17.6
				c-3.5-5.1-6.8-10.3-10.2-15.4c-1.1-1.6-2.3-3.2-3.5-4.8c3.4,1,6,3.3,8.7,5.5c5.5,4.6,10.9,9.4,15.4,14.9
				c8.5,10.5,15.4,21.9,19.9,34.7C133,278.8,134.5,283,135.7,287.3z"/>
			<path class="st4" d="M162.1,369.3c5.1-2.4,10-5,14.5-8.3c11.3-8.2,23.8-13,37.8-13.7c0.8,0,1.7,0.1,2.5,0.1
				c0.7,0,1.3,0.4,1.3,1.1c0,0.9-0.8,0.7-1.4,0.7c-9.6,0.2-18.8,1.9-27.5,6.3c-4.4,2.2-8.5,5.1-12.7,7.8c-3,1.9-6.3,3.4-9.1,5.6
				c-1.2,0.4-2.4,0.9-3.7,1.2C163.1,370.4,162.2,370.6,162.1,369.3z"/>
			<path class="st4" d="M131.3,354.5c5.2-2.6,10.2-5.4,15.6-7.5c10.2-4.1,20.6-7.4,31.4-9.4c0.1,0,0.3-0.1,0.4-0.1
				c0.7,0,1.6-0.3,1.8,0.6c0.2,1-0.6,1-1.4,1.2c-2.8,0.6-5.5,1.2-8.2,1.9c-13,3.2-25.6,7.9-37.3,14.5c-0.8,0.4-1.5,1.1-2.2,1.7
				C130,356.3,130,356,131.3,354.5z"/>
			<path class="st4" d="M107.9,334.2c0.4,1.2,1.3,0.4,1.9,0.3c12.2-1.7,24.4-3.7,36.6-6.1c1.1-0.2,2.2-0.4,3.3-0.6
				c0.6-0.1,1.2-0.2,1.4,0.5c0.1,0.7-0.5,1-1,1.1c-3,0.6-5.9,1.3-8.9,1.8c-12.1,2.2-24.2,4.5-36.4,5.7c-0.5,0.1-1.2-0.1-1.3,0.7l0,0
				c-0.5-0.9-1.2-0.6-1.8-0.1c-1.6,0-3.2,0.3-5.2-1.1c3.6-0.6,6.6-1.1,9.7-1.7C106.8,335,107.5,335.1,107.9,334.2L107.9,334.2z"/>
			<path class="st4" d="M88.4,296.5c0.6,1.5,2,1,3,1.2c8.1,1.8,16.1,4,24.4,4.9c4.6,0.5,9.1,0.9,13.7,1.3c0.7,0.1,2-0.3,1.9,1
				c-0.1,1.1-1.3,0.8-2.1,0.8c-12.5-0.5-24.8-2.9-36.9-5.9c-3.7-0.9-7.5-1.7-11.3-2.5c1.8-0.9,3.7-0.9,5.6-0.8
				C87.3,296.9,87.9,297.4,88.4,296.5L88.4,296.5z"/>
			<path class="st4" d="M174.8,256c0.7,3.8,1.8,7.6,2.1,11.5c0.7,7.5-0.3,14.9-1.9,22.3c-0.8,3.7-1.7,7.4-2.1,11.2
				c-0.1,0.6,0.1,1.4-0.8,1.4c-1.1,0-1-0.9-1-1.5c0.1-3.6,1-7,1.8-10.4c2-8.8,3.2-17.6,1.6-26.6c-0.2-1.3-0.3-2.6-1.1-3.8
				c-0.3-1.5,0.2-2.9,0.5-4.3C174.1,254.6,174.5,255.8,174.8,256z"/>
			<path class="st4" d="M176.2,385.2c10-2.9,19.7-6.6,29.9-8.8c3.3-0.7,6.6-1.3,9.9-2c0.6-0.1,1.4-0.4,1.6,0.4
				c0.3,0.9-0.5,1.3-1.2,1.4c-2.5,0.6-5.1,1-7.6,1.6c-10.9,2.3-21.4,6.1-32,9.4c-0.3,0.1-0.6,0.4-0.9,0.6l0-0.1
				c-0.2-0.2-0.4-0.2-0.6-0.1C174.4,386.6,174.5,386.2,176.2,385.2z"/>
			<path class="st4" d="M245.7,303.5c1.4,7.4,2.6,14.9,2.7,22.5c0.1,4.5,0.2,9-0.1,13.5c-0.3,4-0.4,8,0.5,12
				c0.2,0.6,0.5,1.5-0.6,1.7c-1,0.1-1.1-0.8-1.2-1.4c-0.7-2.9-1-5.8-0.8-8.8c0.4-4.7,0.4-9.4,0.3-14.2c0-0.4,0.1-0.9-0.5-1l0,0
				c0.5-0.2,0.2-0.4,0.1-0.6c0.4-7.5,0.6-15-1.2-22.4C244.7,303.5,244.8,303.5,245.7,303.5z"/>
			<path class="st4" d="M225.5,293.9c1.2,3.8,1.1,7.6,0.9,11.5c-0.3,6.4-1,12.8-1.5,19.2c-0.3,4.1,0,8.2,0.5,12.2
				c0.1,0.7,0.6,1.8-0.5,1.9c-1.1,0.2-1-1-1.1-1.7c-0.7-3.3-1-6.7-0.8-10.1c0.3-5.2,0.5-10.5,1.3-15.6c0.5-3.1,0.4-6.2,0.4-9.3
				c0-0.3,0-0.7-0.5-0.8l0,0c0.4-0.3,0.1-0.5-0.1-0.8C224.8,298.4,224.4,296,225.5,293.9z"/>
			<path class="st4" d="M148.4,241.4c4.1,10.8,3.4,21.8,2,32.9c-0.2,1.5-0.2,3-0.4,4.4c-0.1,0.7-0.3,1.6-1.2,1.5
				c-1-0.1-0.7-0.9-0.7-1.7c0.4-6.9,1.8-13.7,1.4-20.7c-0.3-5-0.6-9.9-2.8-14.6c-0.6-0.7-0.9-1.7-0.3-2.4
				C147,240.3,147.9,240.6,148.4,241.4z"/>
			<path class="st4" d="M201.6,279.4c-0.6,2.2-0.3,4.5-0.5,6.7c-0.6,7.3-2.7,14.4-4,21.5c-0.4,1.9-0.5,3.9-0.7,5.9
				c-0.1,0.7-0.1,1.4-0.9,1.4c-0.9,0-0.8-0.8-0.8-1.4c0-3.6,0.7-7.1,1.5-10.6c1.7-7.1,3.2-14.1,3.4-21.4c0-1.7,0.1-3.4-0.5-5
				c-0.5-0.9,0.3-1.7,0.2-2.7C200.2,275.6,201.6,277.2,201.6,279.4z"/>
			<path class="st5" d="M107.9,334.2c-0.4,0.8-1.1,0.8-1.8,0.5C106.6,334.2,107.2,334.1,107.9,334.2z"/>
			<path class="st5" d="M101.6,337.5c0.6-0.5,1.3-0.7,1.8,0.1C102.8,337.8,102.2,337.8,101.6,337.5z"/>
			<path class="st5" d="M88.4,296.5c-0.5,0.9-1.1,0.4-1.7,0.1C87.3,296.4,87.8,296.3,88.4,296.5z"/>
			<path class="st4" d="M96.1,336.5c0,0.1,0,0.2-0.1,0.3c0,0-0.2,0.1-0.2,0c-0.1-0.1-0.1-0.2-0.1-0.3
				C95.8,336.6,95.9,336.5,96.1,336.5z"/>
			<path class="st4" d="M225.6,293.3c0.2,0.2,0.2,0.4,0,0.6C225.3,293.7,225.3,293.5,225.6,293.3z"/>
			<path class="st5" d="M224.1,300.6c0.1,0.3,0.5,0.5,0.1,0.8C224.1,301.1,224.1,300.9,224.1,300.6z"/>
			<path class="st4" d="M81.1,297.4c-0.2,0-0.4,0-0.6-0.1C80.8,297.1,81,297.1,81.1,297.4z"/>
			<path class="st5" d="M175.4,387.5c0.2-0.1,0.4-0.1,0.6,0.1C175.7,388,175.6,387.7,175.4,387.5z"/>
			<path class="st5" d="M246.2,327.2c0.1,0.2,0.4,0.5-0.1,0.6C245.9,327.6,246,327.4,246.2,327.2z"/>
			<path class="st4" d="M242.3,366.4c-2.3,1-4.6,2.1-7,3.1c-2.5,1-5.1,1.9-7.7,2.8c-0.7,0.3-1.7,0.7-2-0.4c-0.3-1,0.7-1.2,1.4-1.5
				c4.8-1.6,9.6-3.5,14.2-5.6c0.6-0.3,1.2-0.6,1.7,0C243.4,365.5,242.6,365.8,242.3,366.4z"/>
			<path class="st4" d="M148.5,287.1c0.5,1.4,0.3,2.9,0.5,4.4c0.1,1.3,0.2,2.5,0.3,3.8c0,0.6,0.1,1.2-0.6,1.3
				c-0.8,0.1-1.2-0.4-1.2-1.1c-0.2-2.1-0.3-4.2-0.5-6.3c0-0.6-0.1-1.3-0.1-1.9c0-0.3,0.1-0.7,0.5-0.8
				C147.7,286.4,148.1,286.6,148.5,287.1z"/>
			<path class="st4" d="M166,322.1c0.5,0.8,0.2,1.4-0.5,1.7c-2.1,1-4.4,1.8-6.7,2.5c-0.5,0.1-1,0.1-1.2-0.5c-0.2-0.5,0-0.9,0.4-1.1
				c2.4-0.9,4.8-1.8,7.2-2.7C165.5,321.9,165.8,322.1,166,322.1z"/>
			<path class="st4" d="M196.4,321.2c0.5,0.8,0.4,1.8,0.6,2.7c0.2,1.4,0.4,2.9,0.6,4.3c0,0.5-0.1,1-0.7,1.1c-0.6,0.1-0.9-0.2-1-0.8
				c-0.4-2.3-0.8-4.7-1.2-7c-0.1-0.5,0.2-0.8,0.7-1C195.8,320.4,196,320.8,196.4,321.2z"/>
			<path class="st4" d="M172.3,305.5c0.4,0.5,0.7,6.1,0.3,6.5c-0.4,0.5-0.8,0.4-1.2-0.1c-0.5-0.6-0.9-5.6-0.4-6.2
				C171.3,305.3,171.8,305.1,172.3,305.5z"/>
			<path class="st4" d="M190,336.9c-0.5,0.5-5.1,1.4-5.7,1.2c-0.4-0.2-0.6-0.4-0.5-0.8c0-0.5,0.3-0.8,0.8-0.9c1.5-0.3,3-0.7,4.5-1
				c0.4-0.1,1-0.1,1.2,0.5C190.3,336.2,190.2,336.6,190,336.9z"/>
			<path class="st4" d="M139.1,304.2c0.4,0.4,0.3,0.7,0,1.1c-0.5,0.6-3.3,0.7-3.8,0.2c-0.4-0.4-0.4-0.9-0.1-1.3
				C135.7,303.7,138.6,303.7,139.1,304.2z"/>
		</g>
		<g>
			<path class="st4" d="M157.6,127.7c0.1-0.8,0.2-1.7,0.3-2.5c0.1,0,0.2,0,0.4-0.1c0.4,0.6,0.7,1.1,1.1,1.7c0.2,1.7,0.4,3.4,0.5,5
				c0.3,5.3,0.5,10.6,0.9,15.9c0.4,5.9,0.4,11.9,0.5,17.8c0.1,7.2-0.2,14.5,1.3,21.6c0.8,3.7,1.2,7.4,2.8,10.8
				c0.2,1.1-0.2,2.1-0.2,3.1c-1.9-2.7-2.6-5.9-3.4-9c-1.8-7.1-2.1-14.3-2.1-21.5c0-6.2,0-12.4-0.3-18.5c-0.2-4.3-0.3-8.5-0.7-12.8
				C158.3,135.4,158.4,131.5,157.6,127.7z"/>
			<path class="st5" d="M157.6,127.7c0.7,3.8,0.6,7.7,0.9,11.5c0.4,4.2,0.4,8.5,0.7,12.8c0.3,6.2,0.3,12.3,0.3,18.5
				c0,7.2,0.3,14.5,2.1,21.5c0.8,3.1,1.5,6.3,3.4,9c1,2.6,1.2,5.4,2.5,8.2c0.6-4.1,1.8-7.7,3.3-11.3c1.9-4.7,5.6-7.9,9.2-11.2
				c5-4.6,9.3-9.8,12.3-16c0.1-0.2,0.3-0.3,0.5-0.5c-0.4,4.4-2.3,8.2-4.3,12c-2.8,5.3-6.8,9.8-10.1,14.7c-0.4,0.5-0.9,1-0.2,1.5
				c0.6,0.5,1.1-0.1,1.5-0.6c0.8-1,1.4-2.1,2.2-3.1c5.9-7.6,11.3-15.4,12.9-25.2c1.3,4.9,0,9.7-1,14.5c-1.9,8.5-6.5,15.7-12,22.4
				c-3.4,4-6.7,8-11.3,10.7c-0.7,0.4-0.7,1-0.5,1.5c1.8,5.1,4.2,10,6.9,15.1c0.5-2.8,1-5.1,1.5-7.4c1.3-6.3,5.2-11.2,9.3-15.9
				c5.3-5.9,11.6-10.7,17.4-16.1c0.1,1.2-0.5,2.2-0.9,3.3c-2.7,7.4-7.5,13.4-12.8,19c-2.1,2.2-4.2,4.3-5.8,6.9
				c-0.3,0.5-0.8,1.1,0,1.6c0.7,0.4,0.9-0.3,1.2-0.7c2-2.6,4.3-5,6.5-7.4c4.4-4.7,8.3-9.8,11.1-15.6c1.5-3,2.3-6.3,3.5-9.4
				c0.3,4.3-0.8,8.4-2,12.4c-1.8,5.9-4.2,11.6-8,16.5c-4.8,6.2-10.5,11.5-17,15.9c-1.4,0.9-1.7,1.6-0.8,3.1
				c2.9,4.9,5.8,9.8,8.8,14.7c0.2,0.3,0.5,0.6,1,1.2c-0.2-3.7,0.4-7,1.4-10.1c1.4-4.7,5-7.9,8-11.5c4-4.8,8.8-8.7,13.5-12.7
				c1.4-1.2,2.4-2.8,4-3.8c-0.3,1.5-1.1,2.7-1.8,3.9c-3.3,5.3-7.5,9.9-11.9,14.4c-2.1,2.2-4.2,4.5-5.8,7.2c-0.3,0.4-0.7,1,0,1.4
				c0.6,0.3,0.9-0.2,1.3-0.6c1-1.4,2-2.8,3.1-4.1c4.1-4.7,8.8-9,12.4-14.2c1.1-1.6,1.9-3.4,3.3-4.7c0.1,2.6-0.9,4.9-1.6,7.2
				c-1.6,5.5-3.9,10.8-7.5,15.3c-3.1,3.8-6.5,7.4-9.8,11c-1.7,1.9-3.1,4-5.2,5.5c-0.8,0.6,0,1.1,0.3,1.5c3,4.4,6.1,8.8,9.1,13.2
				c0.4,0.6,0.8,1.1,1.5,2.1c0-3,0.6-5.4,1.6-7.7c3.1-7.1,7.9-12.9,13.8-17.9c1.7-1.4,3.2-2.9,4.9-4.3c0.4,0.2,0.2,0.5,0,0.8
				c-1.4,2.3-2.6,4.7-4.3,6.7c-2.9,3.5-5.2,7.3-7.8,11c-1.6,2.4-2.9,5-3.8,7.8c-0.2,0.6-0.8,1.4,0.1,1.7c0.9,0.3,1-0.6,1.2-1.2
				c1.4-3.2,2.9-6.4,5-9.3c3.2-4.5,6.5-8.9,9.5-13.5c1.8-2.7,3.5-5.6,4.3-8.9l0,0c0.2,0,0.3-0.2,0.3-0.4c0.9-1.3,1.9-2.5,3-4
				c0.3,3.6,0,6.8-0.9,10C229,255.5,226,263,222,270c-2.8,5-7,8.5-12.5,10.2c-0.7,0.2-1.4,0.6-2.2,0.9c3.3,4.6,6.1,9.4,8.7,14.4
				c0.1,0,0.2-0.1,0.2-0.1c0.2-5.9,4.5-9.4,7.8-13.4c1.7-2,3.3-4.1,5.2-6c0.4,0.4,0.1,0.6-0.1,0.9c-2,3.5-4.1,7-6.4,10.3
				c-1.5,2.1-2.5,4.4-3.3,6.8c-0.2,0.6-0.5,1.3,0.3,1.6c0.8,0.4,1-0.4,1.2-1c1-3.4,2.9-6.3,4.8-9.1c2.2-3.2,4.1-6.6,6-10
				c3.3-5.7,5.6-11.7,7.8-17.8c1.2,2.3,0.3,4.6-0.1,6.8c-1.2,7.6-4.6,14.1-9.8,19.8c-4.6,5.1-8.2,11-10.3,17.5
				c-0.8,2.5-2.5,2.3-3.9,2.9c-4.1,1.7-8.6,1.9-13,2.1c-5.5,0.2-11.1,0.1-16.6-1.1c-7.2-1.5-13.8-4.6-20.3-8
				c-4.5-2.4-9-4.9-13.5-7.4c-0.4-0.2-1-0.3-1-0.9c0.3,0,0.6-0.1,0.9,0c9.3,2.2,18.7,3.9,27.8,7c2.1,0.7,4.2,1.5,6.3,2.2
				c0.6,0.2,1.3,0.3,1.5-0.5c0.2-0.7-0.5-0.8-1-1c-2.7-0.9-5.5-1.9-8.2-2.8c-8.5-2.8-17.3-4.3-26-6.6c4.5-1.2,9.1-0.4,13.6-0.2
				c10.8,0.6,21,3.8,31.3,6.9c6.3,2,12.6,4,19.1,6c-0.4-1.6-1.1-3-1.9-4.3c-2.5-4.6-5.1-9.2-8.1-13.4c-0.4-0.6-0.7-1.1-1.7-0.8
				c-10.3,2.7-20.1,0.8-29.9-2.5c-7.2-2.4-14.3-5.4-21.6-7.5c3-0.5,6.1-0.1,9.2-0.2c4.3-0.2,8.5-0.5,12.8-0.2
				c8.3,0.5,15.9,3.3,23.1,7.4c0.5,0.3,1,0.7,1.4,0.1c0.3-0.5,0-1-0.5-1.4c-0.6-0.4-1.2-0.9-1.8-1.2c-10.7-5.6-22-7.5-33.9-6.4
				c-4.8,0.5-9.6,0.2-14.4-0.2c0.2-0.9,1-0.9,1.7-1.1c16.9-3.1,33.2-1.2,48.7,6.4c0.4,0.2,0.7,0.4,1.1,0.6c0.4,0.2,0.7,0.4,1.3,0.4
				c-1-1.5-2-2.9-3-4.4c-2.1-3-4.2-6.1-6.3-9.1c-0.8-1.2-1.9-1.8-3.4-1.9c-10.3-1.2-20.7-1.9-30.9-4.1c-6.7-1.5-13.1-4.1-19.5-6.4
				c-2.4-0.9-5-1.5-7.3-2.7c0.8-0.1,1.6-0.3,2.3-0.3c11.6,0.2,22.8,2.3,33.9,5.6c2.3,0.7,4.6,1.5,6.9,2.2c0.6,0.2,1.3,0.5,1.5-0.3
				c0.3-0.8-0.5-1-1-1.3c-0.1-0.1-0.2,0-0.4-0.1c-8.9-3.2-18-5.4-27.3-6.7c-4.9-0.7-9.9-0.9-14.8-1.2c12.9-2.1,25.5-1.5,37.7,3.3
				c5.7,2.2,11.5,4.1,17.2,6.6c-0.9-1.4-1.8-2.8-2.7-4.3c-2.2-3.6-4.4-7.2-6.4-10.9c-0.5-0.9-1-1.1-1.8-0.8c-5.7,2-11.6,2.5-17.6,2
				c-11.3-0.9-20.9-5.9-29.8-12.7c-3.4-2.6-6.8-5.1-9.9-8c0.4-0.6,0.9-0.2,1.3,0c9.6,4.4,19.5,8,29.4,11.7c2.4,0.9,4.9,1.7,7.3,2.5
				c0.5,0.2,1,0.2,1.2-0.4c0.2-0.6-0.3-0.8-0.8-1c-0.9-0.3-1.8-0.7-2.7-1c-10-3.5-19.9-7.4-29.7-11.4c-0.4-0.2-1.5,0-1.2-1.1
				c17.8,2.7,35.3,6.3,51.5,15.6c-0.6-2.2-1.7-3.7-2.6-5.4c-1.9-3.8-3.5-7.8-5.2-11.8c-0.3-0.6-0.5-1-1.4-1.1
				c-5.6-0.5-10.7-2.4-15.6-4.9c-7.5-3.7-12.7-10-18.2-16c-3.3-3.6-6-7.8-9.6-11.2c-1.5-1.4-3.1-2.9-4.6-4.3c0.5-0.7,1-0.2,1.5-0.1
				c0.1,0.1,0.3,0.2,0.4,0.3l0,0c2.4,2.2,4.9,4.4,7.3,6.8c7.7,7.5,15.7,14.6,24.7,20.5c0.6,0.4,1.3,1.1,1.9,0.3
				c0.7-0.9-0.5-1.2-1-1.6c-3.2-2.3-6.4-4.6-9.6-7c-5.7-4.3-10.6-9.5-15.9-14.3c-0.6-0.6-1.9-0.9-1.7-2.2c4.4,1.9,8.3,4.7,12.4,7.2
				c8.3,4.9,14.8,11.8,21.4,18.7c1.7,1.8,3.7,3.2,5.9,4.6c-2.6-8.1-5.1-15.9-8.8-23.4c-2.9-5.8-4.9-12.1-5.6-18.6
				c-1.1-8.9-0.2-17.7,1.5-26.4c1.1-5.9,2.5-11.8,4.1-17.6C157.3,128.3,157.5,128,157.6,127.7z M209.6,303c0.5-0.3,1.2-0.1,1.1-0.9
				c-0.1-0.7-0.7-0.7-1.2-0.7c-4.4-0.5-8.7-1.2-13-2.1c-0.6-0.1-1.5-0.4-1.7,0.5c-0.2,0.9,0.7,1,1.3,1.1c2.3,0.5,4.6,0.9,6.9,1.3
				C205.2,302.5,207.5,302.7,209.6,303z M174.8,203.4c-0.1-0.5-0.2-0.8-0.6-0.9c-0.3-0.1-0.6,0.1-0.8,0.4c-0.3,0.5-0.5,1-0.7,1.5
				c-0.8,1.6-1.6,3.2-2.4,4.9c-0.3,0.6-0.2,1.1,0.4,1.4c0.6,0.3,0.8-0.3,1.1-0.7c0.5-1,1-1.9,1.5-2.9
				C173.8,205.7,174.6,204.6,174.8,203.4z M172.5,237c-0.1-0.1-0.3-0.4-0.5-0.4c-2.2-0.4-4.4-0.8-6.5-1.2c-0.4-0.1-0.7,0.2-0.8,0.6
				c-0.1,0.5,0.3,0.8,0.7,0.9c2,0.5,4,0.9,6,1.1C172.1,238.1,172.5,237.8,172.5,237z M195.4,249.6c-0.1-0.4-0.1-0.9-0.6-0.9
				c-0.4-0.1-0.7,0-0.9,0.4c-0.7,1.9-1.5,3.8-2.2,5.7c-0.2,0.5-0.1,0.8,0.4,1c0.5,0.2,0.8-0.1,1-0.5c0.5-1.1,1-2.3,1.5-3.5
				C194.9,251,195.4,250.3,195.4,249.6z M184.4,227.4c-0.2-0.5-0.6-0.6-1.1-0.4c-0.6,0.3-2.5,4.1-2.4,4.8c0.1,0.5,0.4,0.8,0.9,0.6
				C182.2,232.2,184.5,228,184.4,227.4z M183.8,258.3c0.3-0.1,0.5-0.3,0.6-0.6c0.1-0.5-0.3-0.8-0.7-0.9c-1.2-0.5-2.5-0.8-3.7-1.2
				c-0.4-0.1-0.7,0-1,0.3c-0.2,0.3-0.1,0.6,0.1,0.8C179.4,257.1,183.2,258.5,183.8,258.3z M160.4,212c-0.1-0.6-2.3-1.8-2.8-1.6
				c-0.4,0.2-0.7,0.5-0.5,1c0.2,0.6,2.3,1.7,2.9,1.5C160.4,212.7,160.5,212.4,160.4,212z"/>
			<path class="st5" d="M165.3,198c-1.7-3.4-2.1-7.2-2.8-10.8c-1.5-7.1-1.2-14.4-1.3-21.6c-0.1-5.9-0.1-11.9-0.5-17.8
				c-0.4-5.3-0.5-10.6-0.9-15.9c-0.1-1.7-0.3-3.4-0.5-5c2,2.3,3,5.1,4,7.9c2.1,5.8,4,11.7,4.9,17.8c1.7,11.4,1.8,22.9-0.4,34.3
				C167,190.5,166.3,194.3,165.3,198z"/>
			<path class="st4" d="M149,270.1c4.8,0.4,9.6,0.7,14.4,0.2c12-1.1,23.3,0.8,33.9,6.4c0.6,0.3,1.2,0.8,1.8,1.2
				c0.5,0.3,0.8,0.9,0.5,1.4c-0.4,0.6-0.9,0.2-1.4-0.1c-7.2-4-14.8-6.8-23.1-7.4c-4.3-0.3-8.5,0.1-12.8,0.2
				c-3.1,0.1-6.1-0.3-9.2,0.2c-1.1-0.2-2.2-0.4-3.3-0.7C149.3,271.4,148.5,271.1,149,270.1z"/>
			<path class="st4" d="M132.7,245.7c4.9,0.3,9.9,0.5,14.8,1.2c9.3,1.4,18.5,3.5,27.3,6.7c0.1,0,0.3,0,0.4,0.1
				c0.5,0.3,1.3,0.5,1,1.3c-0.3,0.8-0.9,0.5-1.5,0.3c-2.3-0.8-4.6-1.5-6.9-2.2c-11.1-3.3-22.3-5.4-33.9-5.6c-0.8,0-1.6,0.2-2.3,0.3
				C131,246.5,131.1,246.3,132.7,245.7z"/>
			<path class="st4" d="M124.3,220.5c-0.2,1.1,0.8,0.9,1.2,1.1c9.8,4.1,19.7,8,29.7,11.4c0.9,0.3,1.8,0.7,2.7,1c0.5,0.2,1,0.4,0.8,1
				c-0.2,0.6-0.8,0.5-1.2,0.4c-2.5-0.8-4.9-1.6-7.3-2.5c-9.9-3.6-19.8-7.2-29.4-11.7c-0.4-0.2-0.8-0.6-1.3,0l0,0
				c0-0.9-0.6-1-1.3-0.9c-1.2-0.7-2.5-1.2-3.4-3.1c2.9,1.1,5.4,2.1,7.9,3C123.1,220.6,123.6,221,124.3,220.5L124.3,220.5z"/>
			<path class="st4" d="M126.3,184.1c-0.2,1.3,1.1,1.6,1.7,2.2c5.2,4.8,10.2,10,15.9,14.3c3.1,2.4,6.4,4.6,9.6,7
				c0.5,0.4,1.6,0.6,1,1.6c-0.6,0.8-1.3,0.1-1.9-0.3c-9.1-5.8-17-13-24.7-20.5c-2.4-2.3-4.8-4.5-7.3-6.8c1.7,0.1,3.1,0.9,4.5,1.8
				C125.4,183.9,125.5,184.6,126.3,184.1L126.3,184.1z"/>
			<path class="st4" d="M207.9,191.9c-1.2,3.1-2,6.4-3.5,9.4c-2.8,5.9-6.8,10.9-11.1,15.6c-2.2,2.4-4.5,4.7-6.5,7.4
				c-0.3,0.4-0.5,1.1-1.2,0.7c-0.8-0.4-0.3-1.1,0-1.6c1.6-2.6,3.8-4.7,5.8-6.9c5.3-5.6,10.1-11.6,12.8-19c0.4-1.1,0.9-2.1,0.9-3.3
				c0.4-1.2,1.4-2.1,2.3-3C208,190.6,207.7,191.6,207.9,191.9z"/>
			<path class="st4" d="M152.5,288c8.6,2.2,17.5,3.8,26,6.6c2.7,0.9,5.5,1.9,8.2,2.8c0.5,0.2,1.2,0.3,1,1c-0.2,0.8-1,0.7-1.5,0.5
				c-2.1-0.7-4.2-1.5-6.3-2.2c-9.1-3.1-18.5-4.9-27.8-7c-0.3-0.1-0.6,0-0.9,0l0.1,0c0-0.2-0.2-0.3-0.4-0.3
				C150.6,288.3,150.9,288,152.5,288z"/>
			<path class="st4" d="M239.6,258c-2.2,6.1-4.6,12.2-7.8,17.8c-1.9,3.4-3.8,6.8-6,10c-2,2.8-3.8,5.7-4.8,9.1
				c-0.2,0.5-0.3,1.3-1.2,1c-0.8-0.3-0.5-1-0.3-1.6c0.8-2.4,1.8-4.7,3.3-6.8c2.3-3.3,4.4-6.8,6.4-10.3c0.2-0.3,0.5-0.6,0.1-0.9l0,0
				c0.4,0.1,0.3-0.2,0.3-0.4c3.6-5.4,7-10.8,8.9-17.1C238.8,257.5,238.9,257.6,239.6,258z"/>
			<path class="st4" d="M228.8,242.1c-0.8,3.3-2.5,6.1-4.3,8.9c-3.1,4.6-6.3,9-9.5,13.5c-2,2.9-3.6,6-5,9.3
				c-0.2,0.6-0.3,1.5-1.2,1.2c-0.9-0.3-0.3-1.2-0.1-1.7c0.9-2.8,2.2-5.4,3.8-7.8c2.5-3.7,4.9-7.5,7.8-11c1.7-2.1,3-4.4,4.3-6.7
				c0.1-0.2,0.4-0.5,0-0.8l0,0.1c0.5,0,0.3-0.4,0.3-0.6C226.3,245.1,227.1,243.1,228.8,242.1z"/>
			<path class="st4" d="M194.8,169.6c-1.6,9.8-7,17.6-12.9,25.2c-0.8,1-1.5,2.1-2.2,3.1c-0.4,0.5-0.9,1-1.5,0.6
				c-0.7-0.5-0.1-1,0.2-1.5c3.3-4.9,7.3-9.4,10.1-14.7c2-3.8,3.9-7.6,4.3-12c-0.1-0.8,0.1-1.7,0.8-1.9
				C194.2,168.2,194.7,168.8,194.8,169.6z"/>
			<path class="st4" d="M217.5,220.9c-1.4,1.4-2.2,3.2-3.3,4.7c-3.6,5.2-8.3,9.4-12.4,14.2c-1.1,1.3-2.1,2.7-3.1,4.1
				c-0.3,0.5-0.7,1-1.3,0.6c-0.7-0.4-0.3-1,0-1.4c1.6-2.7,3.6-5,5.8-7.2c4.3-4.5,8.6-9.1,11.9-14.4c0.8-1.2,1.6-2.4,1.8-3.9
				c0-0.9,1-1.1,1.3-1.9C218.1,217.5,218.4,219.3,217.5,220.9z"/>
			<path class="st5" d="M124.3,220.5c-0.7,0.4-1.1,0.1-1.6-0.4C123.3,220,123.8,220.1,124.3,220.5z"/>
			<path class="st5" d="M118.2,220.2c0.7-0.1,1.3,0,1.3,0.9C119,220.9,118.5,220.7,118.2,220.2z"/>
			<path class="st5" d="M126.3,184.1c-0.8,0.5-1-0.2-1.3-0.7C125.6,183.5,126,183.7,126.3,184.1z"/>
			<path class="st4" d="M114.5,217c-0.1,0.1-0.1,0.2-0.2,0.2c0,0-0.1,0-0.2,0c0-0.1,0-0.2,0-0.3C114.3,217,114.4,217,114.5,217z"/>
			<path class="st4" d="M229.1,241.7c0.1,0.2,0,0.4-0.3,0.4C228.7,241.8,228.9,241.7,229.1,241.7z"/>
			<path class="st5" d="M224.8,246.4c0,0.3,0.2,0.6-0.3,0.6C224.6,246.8,224.7,246.6,224.8,246.4z"/>
			<path class="st4" d="M120.6,181.6c-0.1-0.1-0.3-0.2-0.4-0.3C120.4,181.3,120.6,181.3,120.6,181.6z"/>
			<path class="st5" d="M150.9,289.4c0.2,0,0.4,0.1,0.4,0.3C150.9,289.9,151,289.6,150.9,289.4z"/>
			<path class="st5" d="M229.6,275.7c0,0.2,0.1,0.5-0.3,0.4C229.2,275.9,229.4,275.8,229.6,275.7z"/>
			<path class="st4" d="M209.6,303c-2.1-0.2-4.3-0.4-6.5-0.8c-2.3-0.4-4.6-0.8-6.9-1.3c-0.6-0.1-1.5-0.2-1.3-1.1
				c0.2-0.9,1-0.6,1.7-0.5c4.3,0.9,8.6,1.6,13,2.1c0.6,0.1,1.2,0.1,1.2,0.7C210.8,302.8,210.1,302.7,209.6,303z"/>
			<path class="st4" d="M174.8,203.4c-0.2,1.2-1,2.3-1.6,3.5c-0.5,1-1,1.9-1.5,2.9c-0.2,0.4-0.4,1-1.1,0.7c-0.6-0.3-0.7-0.8-0.4-1.4
				c0.8-1.6,1.6-3.2,2.4-4.9c0.2-0.5,0.4-1,0.7-1.5c0.1-0.2,0.4-0.5,0.8-0.4C174.6,202.5,174.8,202.9,174.8,203.4z"/>
			<path class="st4" d="M172.5,237c0,0.8-0.5,1.1-1.1,1c-2-0.2-4-0.6-6-1.1c-0.4-0.1-0.8-0.4-0.7-0.9c0.1-0.4,0.4-0.7,0.8-0.6
				c2.2,0.4,4.4,0.7,6.5,1.2C172.3,236.6,172.4,236.8,172.5,237z"/>
			<path class="st4" d="M195.4,249.6c0,0.8-0.5,1.5-0.8,2.2c-0.5,1.2-1,2.3-1.5,3.5c-0.2,0.4-0.5,0.7-1,0.5c-0.5-0.2-0.6-0.6-0.4-1
				c0.7-1.9,1.4-3.8,2.2-5.7c0.2-0.4,0.5-0.5,0.9-0.4C195.3,248.7,195.3,249.1,195.4,249.6z"/>
			<path class="st4" d="M184.4,227.4c0.1,0.6-2.2,4.8-2.6,5c-0.5,0.2-0.8-0.1-0.9-0.6c-0.1-0.6,1.8-4.5,2.4-4.8
				C183.8,226.8,184.2,226.9,184.4,227.4z"/>
			<path class="st4" d="M183.8,258.3c-0.6,0.1-4.4-1.2-4.7-1.6c-0.2-0.3-0.3-0.5-0.1-0.8c0.2-0.3,0.6-0.4,1-0.3
				c1.3,0.4,2.5,0.8,3.7,1.2c0.4,0.1,0.8,0.4,0.7,0.9C184.3,258,184.1,258.2,183.8,258.3z"/>
			<path class="st4" d="M160.4,212c0.1,0.4-0.1,0.7-0.5,0.8c-0.6,0.2-2.7-0.9-2.9-1.5c-0.1-0.5,0.1-0.8,0.5-1
				C158.1,210.1,160.3,211.4,160.4,212z"/>
		</g>
		<path class="st3" d="M226,115.3c2.7,1,5.1,1.9,5.1,2.1l3.8-9c-3.7,10.8-3.2,22,0.6,32l-3.1-7.6l-5.8,2.6c-3.7,1.7-5.3,6-3.6,9.7
			l2.4,5.4c1.7,3.7,6.1,5.3,9.7,3.6c2.6-1.2,5-2.3,5.1-2.1l-4-9.7c3.4,7.9,8.9,14.8,16.2,19.9L252,162l-2.3,6
			c-1.4,3.8,0.5,8,4.3,9.4l5.5,2.1c3.8,1.4,8-0.5,9.4-4.3c1-2.7,1.9-5.1,2.1-5.1l-0.5-0.2c5.5,1,11.1,1.1,16.4,0.2l2.1,4.6
			c1.7,3.7,6,5.3,9.7,3.6l5.4-2.4c3.7-1.7,5.3-6.1,3.6-9.7c-0.7-1.4-1.3-2.8-1.7-3.8c4.7-3.2,8.8-7.3,12.1-12.2l3.5,1.3
			c3.8,1.4,8-0.5,9.4-4.3l2.1-5.5c1.4-3.8-0.5-8-4.3-9.4c-1.1-0.4-2.2-0.8-3-1.1c1-6,0.7-11.9-0.6-17.6l3.1-1.4
			c3.7-1.7,5.3-6,3.6-9.7l-2.4-5.4c-1.7-3.7-6.1-5.3-9.7-3.6c-1.2,0.6-2.3,1.1-3.2,1.5c-3.5-4.5-7.8-8.4-12.9-11.4l1.5-3.9
			c1.4-3.8-0.5-8-4.3-9.4l-5.5-2.1c-3.8-1.4-8,0.5-9.4,4.3c-0.7,1.9-1.4,3.7-1.8,4.5c-5.4-0.5-10.9-0.1-16,1.2l-2.4-5.2
			c-1.7-3.7-6-5.3-9.7-3.6l-5.4,2.4c-3.7,1.7-5.3,6.1-3.6,9.7c1.2,2.6,2.3,5,2.1,5.1l3.1-1.3c-6.1,4.3-11.3,10.1-14.8,17.2l1.7-4.1
			l-6-2.3c-3.8-1.4-8,0.5-9.4,4.3l-2.1,5.5C220.3,109.7,222.2,114,226,115.3z M289.3,96.9c14.8,5.5,22.3,22.1,16.7,36.8
			c-5.5,14.8-22.1,22.3-36.8,16.7c-14.8-5.5-22.3-22.1-16.7-36.8C258,98.9,274.6,91.4,289.3,96.9z"/>
		<g>
			<path class="st6" d="M576.1,373.3c0,5.9-5.2,10.8-11.8,10.8l-377.8,2.1c-6.5,0-11.9-4.7-11.9-10.7l-1.2-224.1
				c0-5.9,5.2-10.8,11.8-10.8l377.8-2.1c6.5,0,11.9,4.7,11.9,10.7L576.1,373.3z"/>
			
				<rect x="191.1" y="159.9" transform="matrix(1 -5.563294e-03 5.563294e-03 1 -1.4511 2.0887)" class="st7" width="367.3" height="204"/>
			<path class="st6" d="M598.3,426.7c0.1,12.2-8.9,22.1-20,22.2l-405.2,2.3c-11.1,0.1-20.1-9.8-20.2-22L598.3,426.7z"/>
			<path class="st5" d="M598.3,426.7l-445.4,2.5l17-33.6c2.9-5.7,8.7-9.2,15-9.3l380.8-2.1c6.3,0,12.2,3.5,15.1,9.1L598.3,426.7z"/>
			<g>
				<path class="st6" d="M442.8,423.7c-58.3,0.3-87.4,0.5-145.7,0.8c3.3-7,4.9-10.6,8.2-17.6c51.7-0.3,77.6-0.4,129.2-0.7
					C437.8,413.2,439.5,416.7,442.8,423.7z"/>
			</g>
			<rect x="218" y="199.7" class="st7" width="312.2" height="154.8"/>
			<rect x="218" y="183.9" class="st8" width="312.2" height="15.8"/>
			<g>
				<path class="st9" d="M233.4,191.1c0,1.9-1.6,3.5-3.5,3.5c-1.9,0-3.5-1.6-3.5-3.5c0-1.9,1.6-3.5,3.5-3.5
					C231.9,187.5,233.4,189.1,233.4,191.1z"/>
				<path class="st9" d="M242.7,191c0,1.9-1.6,3.5-3.5,3.5c-1.9,0-3.5-1.6-3.5-3.5c0-1.9,1.6-3.5,3.5-3.5
					C241.1,187.5,242.7,189.1,242.7,191z"/>
				<path class="st9" d="M251.9,190.9c0,1.9-1.6,3.5-3.5,3.5c-1.9,0-3.5-1.6-3.5-3.5c0-1.9,1.6-3.5,3.5-3.5
					C250.3,187.4,251.9,189,251.9,190.9z"/>
			</g>
			<g>
				<rect x="300.6" y="318.1" class="st8" width="150" height="25.9"/>
				<rect x="300.6" y="281.6" class="st8" width="150" height="25.9"/>
			</g>
			<g>
				<defs>
					<path id="SVGID_1_" d="M383.2,214.8c14.7,4.2,23.3,19.4,19.1,33.8c-4.2,14.4-19.4,22.6-34.2,18.4
						c-14.7-4.2-23.3-19.4-19.1-33.8C353.2,218.8,368.5,210.5,383.2,214.8z"/>
				</defs>
				<clipPath id="SVGID_2_">
					<use xlink:href="#SVGID_1_"  style="overflow:visible;"/>
				</clipPath>
				<path class="st10" d="M383.2,214.8c14.7,4.2,23.3,19.4,19.1,33.8c-4.2,14.4-19.4,22.6-34.2,18.4c-14.7-4.2-23.3-19.4-19.1-33.8
					C353.2,218.8,368.5,210.5,383.2,214.8z"/>
				<g class="st11">
					<path class="st8" d="M399.5,284.1L388,255.8c-0.2-0.4-0.4-0.8-0.8-1.2c0,0-2.6-3.9-11.6-3.9c-9,0-11.6,3.9-11.6,3.9
						c-0.3,0.3-0.6,0.7-0.8,1.2l-11.6,28.3c-0.8,1.8,0.1,3.9,2,4.7c0.4,0.2,0.9,0.3,1.4,0.3c1.4,0,2.8-0.8,3.3-2.2l6.3-15.3
						l0.8,20.3l-2.2,33c-0.2,2.5,1.8,4.7,4.3,4.9c0.1,0,0.2,0,0.3,0c2.4,0,4.4-1.9,4.6-4.3l1.8-32.4c0,0,0-1.3,1.3-1.3
						c1.3,0,1.3,1.3,1.3,1.3l1.8,32.4c0.2,2.4,2.2,4.3,4.6,4.3c0.1,0,0.2,0,0.3,0c2.5-0.2,4.5-2.4,4.3-4.9l-2.2-33l0.8-20.3
						l6.3,15.3c0.6,1.4,1.9,2.2,3.3,2.2c0.4,0,0.9-0.1,1.4-0.3C399.4,288,400.3,285.9,399.5,284.1z"/>
					<path class="st8" d="M375.6,246.9c5,0,9-4,9-9c0-5-4-9-9-9c-5,0-9,4-9,9C366.7,242.9,370.7,246.9,375.6,246.9z"/>
				</g>
			</g>
			<g>
				<g>
					<path class="st12" d="M315.9,335.4c5,0,5-7.7,0-7.7C310.9,327.7,310.9,335.4,315.9,335.4L315.9,335.4z"/>
					<path class="st12" d="M333.2,335.4c5,0,5-7.7,0-7.7C328.2,327.7,328.2,335.4,333.2,335.4L333.2,335.4z"/>
					<path class="st12" d="M350.4,335.4c5,0,5-7.7,0-7.7C345.5,327.7,345.5,335.4,350.4,335.4L350.4,335.4z"/>
					<path class="st12" d="M367.7,335.4c5,0,5-7.7,0-7.7C362.7,327.7,362.7,335.4,367.7,335.4L367.7,335.4z"/>
					<path class="st12" d="M385,335.4c5,0,5-7.7,0-7.7C380,327.7,380,335.4,385,335.4L385,335.4z"/>
					<path class="st12" d="M402.2,335.4c5,0,5-7.7,0-7.7C397.3,327.7,397.3,335.4,402.2,335.4L402.2,335.4z"/>
					<path class="st12" d="M419.5,335.4c5,0,5-7.7,0-7.7C414.5,327.7,414.5,335.4,419.5,335.4L419.5,335.4z"/>
					<path class="st12" d="M436.8,335.4c5,0,5-7.7,0-7.7C431.8,327.7,431.8,335.4,436.8,335.4L436.8,335.4z"/>
				</g>
				<g>
					<path class="st12" d="M315.9,299.4c5,0,5-7.7,0-7.7C310.9,291.6,310.9,299.4,315.9,299.4L315.9,299.4z"/>
					<path class="st12" d="M333.2,299.4c5,0,5-7.7,0-7.7C328.2,291.6,328.2,299.4,333.2,299.4L333.2,299.4z"/>
					<path class="st12" d="M350.4,299.4c5,0,5-7.7,0-7.7C345.5,291.6,345.5,299.4,350.4,299.4L350.4,299.4z"/>
					<path class="st12" d="M367.7,299.4c5,0,5-7.7,0-7.7C362.7,291.6,362.7,299.4,367.7,299.4L367.7,299.4z"/>
					<path class="st12" d="M385,299.4c5,0,5-7.7,0-7.7C380,291.6,380,299.4,385,299.4L385,299.4z"/>
					<path class="st12" d="M402.2,299.4c5,0,5-7.7,0-7.7C397.3,291.6,397.3,299.4,402.2,299.4L402.2,299.4z"/>
					<path class="st12" d="M419.5,299.4c5,0,5-7.7,0-7.7C414.5,291.6,414.5,299.4,419.5,299.4L419.5,299.4z"/>
					<path class="st12" d="M436.8,299.4c5,0,5-7.7,0-7.7C431.8,291.6,431.8,299.4,436.8,299.4L436.8,299.4z"/>
				</g>
			</g>
			<g>
				<defs>
					
						<rect id="SVGID_3_" x="190.9" y="93.6" transform="matrix(1 -5.563294e-03 5.563294e-03 1 -1.2668 2.0872)" width="367.3" height="270.3"/>
				</defs>
				<clipPath id="SVGID_4_">
					<use xlink:href="#SVGID_3_"  style="overflow:visible;"/>
				</clipPath>
				<g class="st13">
					<g>
						<g>
							<path class="st14" d="M298.3,322.3c0,0,5.2-8,24.3-30.8c14-16.7,31.6-46.1,31.6-46.1l4.4,2c0,0-13.5,60.6-37.5,90.1
								c-5.7,7-15.4,1.9-21.2-5C296.3,328.4,298.3,322.3,298.3,322.3z"/>
							<path class="st9" d="M350.2,251.8c-6,9.6-17.7,27.9-27.7,39.7c-19.1,22.8-24.3,30.8-24.3,30.8s-1.9,6.1,1.6,10.3
								c5.8,6.9,15.6,12,21.2,5c18.5-22.9,30.8-64.4,35.4-81.9C354.4,254.4,352.3,253.1,350.2,251.8z"/>
							<path class="st14" d="M357,254c1.1-4.1,1.6-6.6,1.6-6.6l-4.4-2c0,0-1.1,1.9-3.1,5C353,251.7,355,252.9,357,254z"/>
							<path class="st9" d="M225.9,248.6c-2.1,6.3,8.6,16,22.7,35.1c14.1,19.1,44.3,50.1,54.1,56.9c11.8,8.3,24.1-2.6,8.8-21.1
								c-11.2-13.5-52.9-63-60.9-70.4C239.8,239.1,225.9,248.6,225.9,248.6z"/>
							<path class="st14" d="M366.6,227c-0.2-0.2-0.4-0.3-0.7-0.4c-1.4-0.4-2.8,0.8-3.8,2c-1.4,1.7-2.8,3.5-4.3,5.1
								c-0.8,0.9-2.3,0.7-2.9-0.4c-1.4-2.6-2.2-7.1-2.1-9.2c0-2,1.4-6.9-1-8.1c0,0,0,0-0.1,0c-1.2-0.6-2.6,0.4-2.5,1.6
								c0,0.4,0,0.9,0,1.4c0,0.3-0.1,0.6-0.2,0.8c-0.9,1.7-2,4.9-1.6,8.6c0,0.2,0,0.5-0.1,0.7c-1.2,3.2-1.2,6.3-0.9,8.3
								c0.3,1.7,2.2,12.6,3.2,15.1c0.2,0.5,5.1,0.6,5.1,0.6c0.5,0.1,1.2-1.6,3.4-5c0,0,1.6-4.6,2.7-8c1.2-3.8,5-6.6,6.3-10.1
								C367.6,228.9,367.3,227.6,366.6,227z"/>
							<path class="st14" d="M221,370.9c-18.5-2.5-76.6-7.1-75.7-7.9c5.6-5,22.7-82.3,23.7-94c0.4-4.4,2.2-12.7,6-22.8
								c5.2-14,32-8.6,32.4-8.6c0.7,0.1,28.2,2.5,29.2,2.8c3.8,1.2,11.9,5,11.9,9.1C247.8,290.7,222.1,371.1,221,370.9z"/>
							<path class="st15" d="M350.2,251.8c-6,9.6-17.7,27.9-27.7,39.7c-7.8,9.3-13.2,16.1-17,20.9c-15.8-18.8-48.1-56.9-55-63.4
								c-0.6-0.6-1.3-1.1-1.9-1.6c0-0.1,0-0.2,0-0.4c0,0-6.8-6.3-13.9-7.1c0,0-0.3,2.2-1,5.2c-4.5,1.2-7.8,3.4-7.8,3.4
								c-0.8,2.4,0.3,5.3,2.6,9c-0.1,0.1-0.1,0.1-0.2,0.2c-4.6,4.9-10.4,6.6-15.9,2.8c-4.2-2.8-7.3-9.6-6.3-14.6
								c0.6-3.1,3-9.2,3-9.2c0,0-23.8-3.1-34.4,4.3c-6.6,1.2-14.8,8.5-18.3,12.8c-8.8,10.8-16.2,22.7-23.4,34.6
								c-5.1,8.5-11.1,16.9-14.9,26.2c-2.8,6.9-8,24.4,1.9,28.2c6.2,2.4,13-2.5,15.8-7.9c3.8-7.3,15.8-24.2,27-40.4
								c-4.1,11.4-9.1,22.7-12.5,33.6c-2.8,9.1-9.3,34.6-8.9,34.7c3.7,1.2,11.9,2.3,15.8,2.9c8.3,1.3,16.6,2.2,25,3.1
								c15.4,1.6,30.9,2.5,46.3,4.6c0.8,0.1,15-48.5,19.5-90.9c0.2,0.3,0.5,0.6,0.7,0.9c14.1,19.1,44.3,50.1,54.1,56.9
								c5.7,4,11.5,3.5,14.3-0.1c1.5-0.5,2.9-1.4,4.2-2.9c18.5-22.9,30.8-64.4,35.4-81.9C354.4,254.4,352.3,253.1,350.2,251.8z"/>
							<path class="st15" d="M253.9,252.5c-1.4-1.5-2.6-2.7-3.4-3.5c-0.6-0.6-1.3-1.1-1.9-1.6c0-0.1,0-0.2,0-0.4
								c0,0-6.8-6.3-13.9-7.1c0,0-0.3,2.2-1,5.2c-4.5,1.2-7.8,3.4-7.8,3.4c-0.4,1.2-0.3,2.5,0.1,4H253.9z"/>
							<path class="st15" d="M247.6,285.6c0.1-1,0.2-1.9,0.3-2.9c0.2,0.3,0.5,0.6,0.7,0.9c0.5,0.6,1,1.3,1.5,1.9h32.8
								c-5.9-6.9-11.9-13.9-17.1-19.9H147.6c-4.5,6.5-8.7,13.1-12.8,19.9H247.6z"/>
							<path class="st15" d="M347.4,285.6c2.5-7.2,4.7-14,6.4-19.9h-12.5c-4.3,6.5-9.2,13.6-14,19.9H347.4z"/>
							<path class="st15" d="M149.9,313.4c3.2-4.6,6.6-9.6,10.1-14.6h-33.3c-2.9,4.7-5.7,9.5-7.9,14.6H149.9z"/>
							<path class="st15" d="M119.3,342.6h8.5c3.5-1.4,6.5-4.4,8.1-7.5c1.1-2.1,2.8-5,5.1-8.4h-26.2
								C113.7,333.2,114.1,340,119.3,342.6z"/>
							<path class="st15" d="M243.4,313.4c0.9-4.8,1.7-9.7,2.5-14.6h-84.5c-1.8,4.9-3.8,9.8-5.7,14.6H243.4z"/>
							<path class="st15" d="M237.2,342.6c1.2-5,2.4-10.3,3.6-15.9h-89.9c-0.2,0.5-0.4,1.1-0.5,1.6c-1,3.3-2.5,8.7-4,14.3H237.2z"/>
							<path class="st15" d="M143,355.8c-1,4.2-1.7,7.2-1.6,7.2c3.7,1.2,11.9,2.3,15.8,2.9c8.3,1.3,16.6,2.2,25,3.1
								c15.4,1.6,30.9,2.5,46.3,4.6c0.3,0,2.5-6.9,5.4-17.9H143z"/>
							<path class="st15" d="M335.9,313.4c2.3-4.8,4.5-9.7,6.5-14.6h-25.9c-4.6,5.6-8.2,10.1-10.9,13.6c-3.2-3.9-7.2-8.5-11.4-13.6
								h-33.2c4.2,4.8,8.7,9.8,13.2,14.6H335.9z"/>
							<path class="st15" d="M306.3,342.6h8.2c1-0.5,1.8-1.2,2.5-2.1c1.5-0.5,2.9-1.4,4.2-2.9c2.7-3.3,5.2-6.9,7.6-10.9h-41.6
								c6.6,6.5,12.3,11.6,15.6,13.9C303.9,341.5,305.1,342.1,306.3,342.6z"/>
							<path class="st15" d="M206.7,252.5c-0.7-2.2-1-4.5-0.6-6.5c0.6-3.1,3-9.2,3-9.2c0,0-23.8-3.1-34.4,4.3
								c-6,1-13.1,7.1-17.1,11.4H206.7z"/>
							<path class="st14" d="M209.8,246.4c7.1,16.3,22.5,14.4,22.9-0.3l4.5-24.8l-21.7-5.2l-5.9,26.8
								C209.2,244.1,209.3,245.3,209.8,246.4z"/>
							<polygon class="st16" points="231.8,250.1 214.5,219.9 215.6,215.4 239.1,219.9 233.4,243.3 							"/>
							<path class="st14" d="M212.5,143.7c8.3-3.6,23.9-1.9,32.3-0.6c7.5,1.2,13.8,5,18,10.2c4.5,5.4,6.2,11.6,6.7,18.3
								c0.2,2.9-1,4.2-1.7,8.3c-0.7,4.6-5.3,12.7-2.4,18.2c1,2,1.2,15.1-6.2,25c-1.9,2.5-2.6,7.2-4.7,9.4c-1.8,1.9-2.9,2.6-5.7,2.7
								c-3.8,0.2-7.6-0.6-11.4-1.3c-0.4-0.1-0.4-0.1-1.2-0.2c-2-0.3-1.1,0.2-3-0.7c-13.9-2.8-22.8-19-24.1-33.8l-6.6-35.7
								C202.2,155.7,205,146.9,212.5,143.7z"/>
							<polygon class="st17" points="250.3,191.6 254.6,208.6 248.5,208.2 							"/>
							<path class="st18" d="M247.2,184.1l-18.1-6.5l1-3.5l13.7,2.8c0.9,0.2,1.7,0.4,2.4,0.5c0.9,0.2,1.4,1,1.3,1.8L247.2,184.1z"/>
							<path class="st18" d="M257.1,184.7l-0.7-3.4c-0.8-1.4,0.3-3.1,2-3.1l9.8,0.2l-1,4.2L257.1,184.7z"/>
							<path class="st15" d="M242.9,129.9c-4.8,0.2-9.7,0.5-14.5,0.4c-5.2,0-14-0.5-17.9,3.5c-0.5,0.5-3.6,5.1-1,5.4
								c0,0-4-0.4-4.9-0.1c-9.8,4.3-15.2,21-17,30c-1.2,6-0.3,12.1,1.9,17.9c3.5,8.9,10.2,16.9,17.9,22.1c0,0,6.4,4.4,6.4,4.4
								s-7.1-17.4-0.8-17c-2.8-0.2,2.9-17.5,3.3-18.7c2.7-7,5.3-14.5,2.8-21.9c-1.5,0.2-2-1.1,5.1,1.3c5.7,2,34.6,15.8,47.9,9.9
								c13.6-6,13.3-24.6,2.6-33C266.2,127.7,253.1,129.5,242.9,129.9z"/>
							<g>
								<path class="st14" d="M213.9,191.6c1.7,6-0.2,11.5-4.4,12.4c-4.2,0.9-9-3.3-10.8-9.3c-1.7-6,0.2-11.5,4.4-12.4
									C207.3,181.5,212.1,185.6,213.9,191.6z"/>
								<path class="st19" d="M209.7,188.6c-0.4-1.4-0.9-2.5-2.5-3.3c-1.6-0.7-4.1-0.5-5.3,3.9c-1.1,4.4,1.1,9.1,3.7,9.1
									c0.8,0,1.5-1,2.1-2.3c-1.4-0.8-1.9-2.7-1.1-4.4c0.6-1.3,1.7-2.1,2.9-2.3C209.7,188.9,209.7,188.6,209.7,188.6z"/>
							</g>
							<path class="st9" d="M188.1,181.2c0,0,16.9,3.2,32.7-0.3c13.4-3,19.4-2.2,27.2,2.6c0,0,5.5,2.4,10.1-2.2c0,0,7.5-0.5,8.4,4.5
								c0,0-1.5,7.2-1.3,13.3c0,0-6.7,2.3-10.9-3.7c0,0-5.9-1.4-8,0.9c0,0-8.8,4.6-21.4-2.8l-17.7-7.4l-19.2-0.9V181.2z"/>
							<g>
								<path class="st15" d="M238.4,189.8c-0.6,1.5-2.2,2.3-3.7,1.8c-1.4-0.5-2.2-2.2-1.6-3.6c0.6-1.5,2.2-2.3,3.7-1.8
									C238.3,186.7,239,188.3,238.4,189.8z"/>
							</g>
							<g>
								<path class="st15" d="M262.8,191.9c-0.5,1.4-2.1,2.1-3.4,1.6c-1.3-0.5-2-2-1.5-3.4c0.5-1.4,2.1-2.1,3.4-1.6
									C262.7,189,263.3,190.5,262.8,191.9z"/>
							</g>
							<g>
								<g>
									<path class="st15" d="M241.6,212.7c2.8,3.8,8.3,5.5,12.7,3.5c0.6-0.3,0.2-1.3-0.4-1.1c-4.3,1.6-9,1.1-12.1-2.6
										C241.7,212.3,241.5,212.5,241.6,212.7L241.6,212.7z"/>
								</g>
							</g>
						</g>
					</g>
				</g>
			</g>
		</g>
	</g>
	<g>
		<g>
			<path class="st3" d="M617.1,217.2h-68.5c-4.7,0-8.5-3.8-8.5-8.5v-34.6c0-4.7,3.8-8.5,8.5-8.5h68.5c4.7,0,8.5,3.8,8.5,8.5v34.6
				C625.6,213.4,621.8,217.2,617.1,217.2z"/>
			<polygon class="st3" points="608.5,215.9 577.9,238.1 587,215.9 			"/>
			<g>
				<line class="st20" x1="555.6" y1="194.2" x2="615.8" y2="194.2"/>
				<line class="st20" x1="555.6" y1="200.6" x2="615.8" y2="200.6"/>
				<line class="st20" x1="555.6" y1="182.5" x2="615.8" y2="182.5"/>
				<line class="st20" x1="555.6" y1="188.6" x2="615.8" y2="188.6"/>
			</g>
		</g>
		<g>
			<path class="st3" d="M486.8,101.4h48.6c3,0,5.4,2.4,5.4,5.4v48.6c0,3-2.4,5.4-5.4,5.4h-48.6c-3,0-5.4-2.4-5.4-5.4v-48.6
				C481.3,103.8,483.8,101.4,486.8,101.4z"/>
			<line class="st20" x1="492.5" y1="123.1" x2="529.9" y2="123.1"/>
			<line class="st20" x1="492.5" y1="129.6" x2="529.9" y2="129.6"/>
			<line class="st20" x1="492.5" y1="137" x2="529.9" y2="137"/>
			<line class="st20" x1="501.9" y1="142.9" x2="520.5" y2="142.9"/>
		</g>
		<g>
			<path class="st9" d="M611.4,288.6h-67.2c-2.6,0-4.8-2.1-4.8-4.8v-37.6c0-2.6,2.1-4.8,4.8-4.8h67.2c2.6,0,4.8,2.1,4.8,4.8v37.6
				C616.1,286.5,614,288.6,611.4,288.6z"/>
			<line class="st21" x1="539.5" y1="283.9" x2="568.2" y2="263.8"/>
			<line class="st21" x1="615.8" y1="283.9" x2="587.1" y2="263.8"/>
			<path class="st3" d="M614.3,242.5l-27.2,21c-5.5,4.2-13.1,4.2-18.6,0l-27.1-21c-0.3,0.2-0.5,0.4-0.7,0.6l27.2,21.1
				c2.9,2.3,6.4,3.4,9.9,3.4c3.5,0,7-1.1,9.9-3.4l27.3-21C614.8,242.9,614.5,242.7,614.3,242.5z"/>
		</g>
		<g>
			
				<ellipse transform="matrix(0.7071 -0.7071 0.7071 0.7071 35.5986 330.9565)" class="st3" cx="417.3" cy="122.5" rx="38.7" ry="38.7"/>
			<path class="st8" d="M417.3,96.7c-14.2,0-25.8,11.6-25.8,25.8c0,14.2,11.6,25.8,25.8,25.8c14.2,0,25.8-11.6,25.8-25.8
				C443.1,108.3,431.5,96.7,417.3,96.7z M397.4,122.5c0-11,8.9-19.9,19.9-19.9c4.2,0,8.1,1.3,11.3,3.6l-26.1,29.7
				C399.4,132.3,397.4,127.6,397.4,122.5z M417.3,142.4c-3.7,0-7.2-1-10.2-2.8l25.8-29.4c2.7,3.4,4.2,7.6,4.2,12.3
				C437.2,133.5,428.3,142.4,417.3,142.4z"/>
		</g>
		<g>
			<path class="st3" d="M612.8,143.3h-54.8c-2.9,0-4.8-3.1-3.5-5.7l27.2-54.8c1.4-2.9,5.6-2.9,7,0l27.6,54.8
				C617.6,140.2,615.7,143.3,612.8,143.3z"/>
			<path class="st8" d="M603.2,137.9h-36.3c-1.9,0-3.2-2-2.3-3.8l18-36.3c1-1.9,3.7-1.9,4.7,0l18.3,36.3
				C606.4,135.9,605.1,137.9,603.2,137.9z"/>
			<g>
				<polygon class="st6" points="587.6,125.9 583,125.9 581.6,110 589.6,110 				"/>
				<circle class="st6" cx="585.2" cy="130.3" r="2.1"/>
			</g>
		</g>
	</g>
</g>
</svg>
